/* XPM */
static char *_633098899281[] = {
/* columns rows colors chars-per-pixel */
"64 64 138 2 ",
"   c #040504",
".  c #060807",
"X  c #0A0C0A",
"o  c #0D120D",
"O  c #0F1510",
"+  c #111611",
"@  c #141A14",
"#  c #191D14",
"$  c #171D18",
"%  c #191F19",
"&  c #1C2116",
"*  c #172018",
"=  c #1B241C",
"-  c #1F281F",
";  c #22261A",
":  c #28271D",
">  c #25291C",
",  c #292D1E",
"<  c #2D311F",
"1  c #31331F",
"2  c #1F2720",
"3  c #1F2920",
"4  c #202520",
"5  c #222C22",
"6  c #2A2D20",
"7  c #2C2F2C",
"8  c #253126",
"9  c #2D3424",
"0  c #273328",
"q  c #2A342A",
"w  c #2D3A2E",
"e  c #323422",
"r  c #373824",
"t  c #3C3E26",
"y  c #333E2E",
"u  c #3C3E2B",
"i  c #2F3C30",
"p  c #313731",
"a  c #313E32",
"s  c #3B3E3B",
"d  c #3F4027",
"f  c #3E412B",
"g  c #344335",
"h  c #3E4531",
"j  c #374638",
"k  c #39463A",
"l  c #374838",
"z  c #3C4B3D",
"x  c #42442B",
"c  c #47482C",
"v  c #4A4A2E",
"b  c #424432",
"n  c #444A30",
"m  c #494A34",
"M  c #4E4F3C",
"N  c #4D5134",
"B  c #545535",
"V  c #51513C",
"C  c #5B5C39",
"Z  c #64633C",
"A  c #6E6B3F",
"S  c #3F4D40",
"D  c #414E42",
"F  c #445145",
"G  c #475448",
"H  c #49554A",
"J  c #4C584D",
"K  c #5D5C45",
"L  c #4F5B50",
"P  c #525552",
"I  c #5A5D5A",
"U  c #5E625E",
"Y  c #656542",
"T  c #6B6941",
"R  c #636248",
"E  c #716D40",
"W  c #727246",
"Q  c #797545",
"!  c #777449",
"~  c #79764E",
"^  c #7C7A4A",
"/  c #757455",
"(  c #7D7A52",
")  c #7E7959",
"_  c #646764",
"`  c #807B47",
"'  c #837F4B",
"]  c #817E53",
"[  c #807E5F",
"{  c #83804C",
"}  c #8B864F",
"|  c #8C8A53",
" . c #84815E",
".. c #8D8B5C",
"X. c #928E54",
"o. c #979154",
"O. c #9E975B",
"+. c #A39E5D",
"@. c #A9A25F",
"#. c #898765",
"$. c #9D9765",
"%. c #979369",
"&. c #9C9669",
"*. c #9B9771",
"=. c #9F9B71",
"-. c #ACA464",
";. c #B8AE64",
":. c #B5AD6C",
">. c #BCB369",
",. c #ACA775",
"<. c #ACA870",
"1. c #B4AF73",
"2. c #B4AE7D",
"3. c #BAB476",
"4. c #BCB47B",
"5. c #C4BA6A",
"6. c #C9BF76",
"7. c #C2BA7C",
"8. c #CFC371",
"9. c #CAC17D",
"0. c #868986",
"q. c #8C8E8C",
"w. c #959795",
"e. c #969896",
"r. c #989B98",
"t. c #A4A6A4",
"y. c #A9AAA9",
"u. c #AFB1AF",
"i. c #B5B7B5",
"p. c #C3BC89",
"a. c #CDC381",
"s. c #C7C08B",
"d. c #C9C18B",
"f. c #CAC392",
"g. c #D1D2D1",
"h. c #D7D8D7",
"j. c #DDDDDD",
"k. c None",
/* pixels */
"o o o + o o o o o o o o X o o X X o o o X o o o X o o o o o o o o o o o X o o o o o X o o o o X o o o o X X O + + + O X X X o X ",
"o o o + + + + + + o O O O O + o O + + o + + + o + o o o o O o O o o O O O O O O O O O O o o O O o o o o O O + @ @ + @ + + O o o ",
"o + $ = = - - - - 3 3 3 > - 3 - 5 - - 2 - - - - - = - - = = 2 2 - - = - = = = - 3 - - 2 3 - - - = = = = % = = = % 2 - = = + o o ",
"o + = 8 0 q q w w i g i i g a w w i w w w y w w w w q q w w w q w q q q q g q g w i w w w i w w 0 0 0 q q q 8 5 7 q q q 5 = O X ",
"O @ ; q w i a s k k k z z k k k k k g k k k l l g g l g g g k g g g g g l l l l k g g k k k k k g g k s a a p p q q q q q = o X ",
"o @ 5 i a k k S S D G F G F S z S S S S S F S S S z S z l z D S z l z z z z z z S z z S D D S S D D D F S k a s s q 8 q q = O o ",
"+ @ 5 w q q q q p S G G H G G G G F F G F F F S F F G F S F F D S z S F F S S S S S S k a p a k z G G G D S S D s w 5 q q = o o ",
"X @ 5 q 3 @ + @ 2 p S G J H H H H H H J G G G G G G G G G G G G F F F F F F F F S z k q % $ @ 3 g D G G G G D D k y q q q - o o ",
"o @ 5 0 * .     + q S D H H J J J J H J G G G G G G G J J G G G F G F F F F F F S S k 3 X X   $ i S F J G G G G D p q q q - O X ",
"o * - 0 * .     + q z S H H J H G G G G G J G J J G J J J J G G G F G G F D S D D D k 5 X X X * g F F G G F G G D s q q q ; O o ",
"o @ - 0 * . . . @ q z S F G H H F F F F G J J J J J J J L J G G G G G F D S S D F F S 5 o o o - s S F F S S G G D s w q q = o X ",
"+ $ - 0 8 = * * 5 p z S F G H G F F F F G G G J G J H H J J J G H G G G G D F F F F F p 5 5 5 g z F F F S F S G D k a p q - + o ",
"+ * 5 w q g g g g z S S F F G G F F F G G F G G J J G H G J J L H H G G G F F F F F G S k l z z S D S F S S S S D k g p 8 = + X ",
"@ * - w g g g g l z S S S D S F F F F G F G G G G G H G J G G G G G G G G G F F F H G F S S S S F F F S S S S G D k a a q = + X ",
"+ * > q g g l l l z S S z S S S S F F F F G G G H H H H G G G G F F G G G G G F F G G F S S F S F F F S M S D F D k a i w ; + o ",
"+ * 3 w g l l l z S S S z S S S S S F F G F G G G G G G G G F S S D F G G G G F F G G F F F F G F G F S F D F G D s i w p 4 + X ",
"+ * - 0 g g g l k S S S D F D F D D F F F G G G F F S F F S S S S S S G G H G S F G G G S H S G F F S F F F F F z l w i i 2 O X ",
"+ * - g g g l l z z z S D F F F F D F S F F D D S M S S S S z z S S S S S G S S F S G S S S H S S S S S S F z G z l w i w 2 + X ",
"+ * - q g g g l z z z S S z S S S S S F S S S S z z z z z z l z S S S S S S F M z S S S S S S S S S S S S S S G S l g w q 2 + o ",
"@ * 5 q g g g l z z z l k l l l z z S S S l k k l l l l l l l z S S S S S S z z z l l S S S M z S S S S z z H J S z w w p 2 + X ",
"@ @ = 3 * 8 8 8 8 0 q 8 8 8 8 8 5 q q q q q 5 8 8 8 8 8 8 8 8 0 q q 0 0 0 0 0 q g 8 8 8 q 8 q 8 w g g z z z S J D k i w q 2 O X ",
"O @ O + O O @ O @ + + + + + + @ @ @ O @ @ O @ @ @ # + @ @ + @ + @ @ @ O @ O + + O O @ O + + @ @ + = 8 l l z z H D k w w i = O o ",
"o * 9 m n n d 1 > * o O O 8 f m m u > O @ * @ O & 1 v m m h f , @ O @ * * O > f v n h N m 9 @ O * - g l z z S H D k w q q - O X ",
". & Y *.+.O.{ Y c , @ + + M #.*.*.) b O = 0 3 + 1 A O.$.*.#.^ B > @ 3 i - + c { O.%.*.*.*.K & * 5 q g g l z S J D s p q q = O o ",
"  > ) d.a.8.+.W N 9 = * @ Y 2.s.f.=.V + - g 5 @ 1 Q -.3.f.,...Z 9 $ 0 g w = B | :.7.d.p.p./ > & q g l l z S D G D k a q q = + X ",
"X < ^ 7.8.8.X.N 9 q 8 = # Z :.9.1.#.n + = g 8 @ & d Z $.f.%.Z x ; * 0 l g w f B W -.9.3.<.Y - * w l l l z S F G D k a q 5 = + o ",
"+ 9 ! :.>.5.^ e * 0 g - @ Z ;.>.O.^ f + - g 8 @ O O > / f. .f > * = w l z z w = f | 8.@.X.C = - g l l l z F F G D z a a 5 = O X ",
"@ > n T T A v 6 5 q g > @ A ;.@.W v < + - g g 8 = @ > ( a.( r - 6 q g l z z w * d ' +.' B h 0 w l l z z z F G H G k k q 8 = + O ",
"@ @ $ = & # = > 0 g g 5 @ Z >.o.v * @ O > g g g 0 * > Q 8.` < - w l z z z z w * < A | N @ 5 l z l z z z S S G H D S g w 7 - @ O ",
"@ $ = - * + = 5 w g g 5 * c A Z < * * * q l l l g 8 < B } B > - a z z S z z g 5 g N C f * g l z S z S z S S D H G S g w 8 ; + + ",
"$ = 5 q > + 5 w g g g 5 + - < > @ @ - g g l l l g g g g d > * - g z F F F S z a 0 < , < g g z S S S S z S D G H G S g y q - $ + ",
"$ = 8 y 0 - q g l g g 5 = * * @ + * 8 g g l z z l l g 8 - - = 8 g z G G F z z z g 8 = g l l S S S S S S S S F H G k g w q - @ + ",
"$ $ 3 i i q a j l l l g w 0 0 3 * + 8 g l z z z z l g g g 0 q g g z F G F z z l k g a k S S S F S S S S S S D H F S a a q 5 @ + ",
"$ 2 0 i a j S l S S l l g g g 0 = = 0 g l z z S z l l l g l l z z z D G z z z z S S S S S F F F F S F S S D F H F s a a a 4 @ + ",
"$ * 0 i g S l S S S z l g g g w 8 8 w l z z S z z l l l l l z z z z G G S z z z D D S S S S S S S S S S D D F H D S p a w 5 $ O ",
"$ * 3 i a g S l l S S l l l g g g g k l S S S z z z l l z z z z z z F F F F F G F F D S S z S z S S S F D F F G D k g a w 5 @ + ",
"$ = 8 i g g l S S l S l k l l l l l l l S S S z z l z z S z S z S F F G G F F F F D D S S S S S S F D F F F F F D z k a w 5 @ + ",
"$ * 5 i i g l S S S S S k S S l l l l l z S S S z z l z z z S G G G G G G G F F F D F F F F F F S F D D F F F F F D D g y 4 $ + ",
"$ = 5 i i g j j l S S S S S S k z l z l z S S S z S z z S S S S F G F G G G G F D G F F S F F F S D F F F F F D z z k g w 5 + O ",
"@ * 5 i i g S S S S S S S S S S z l k z z z S S S S S S G S S S z F F F G G G F F G F F D S S S S S D D F F D D z k a a w 5 + o ",
"@ * 5 w g k z z S S S S S S S S k l z k z z z S S S S F F S S z S z F F F F G G F F F F S F S S D D D F D G D D z a w i q 4 @ o ",
"@ * 8 i g l z z S S S S F S S k k z l k z z z z z z S S S F S S z F F z F F F F F F D S F S F S k D D F G G G D k k p a a 4 + o ",
"@ * 8 i g k k z k S S S F S S S z k k l z z z k z z l z S S S S z z z F F S F F D D S S S S S S D D D D G G D G D k p q i 4 @ o ",
"@ = 3 w i i l z S S S S S S S j z z z z z z z z z l l l S S S S z z z z z z z S D S z z S z S S S S D D D D D D k a i a a 4 @ o ",
"@ * 3 w w i g z S S k S z l l l z z z l z z z z l l g g z z z z z z l l z z z z z z k l l z z z S D S z S S k k k a w i a 5 + o ",
"+ * 5 q 0 0 i g l z S l l l l g g g l g g g g l g g g g g g l g l l g g g l l g g g g g g g g g s k k z k S k s a w q w i 4 + O ",
"O @ 3 q 0 8 q l l S z z z g g g g w g w w i i w w w w w w w i a g g w w g w w w w w w w w w w g g k z S D D k a q q 0 q q - + O ",
"O + - 3 3 = 3 w g l l l g g w 0 8 3 5 8 5 0 5 5 5 8 8 8 5 0 0 0 0 0 0 0 0 0 0 0 5 0 8 8 8 3 8 0 w g k k k k a q 5 5 - 5 5 = + o ",
"O o @ @ @ @ = 5 q a g a i q = * $ $ = = = = - = = = * = = = = = = = = - = = = - = = = = = = % - 0 w g k g q 0 8 = * @ @ $ @ O o ",
"0 q 7 q % O @ 2 5 w g i i 3 $ O o + 5 p p q p p p p p p p p p p p p p p p p p p q p p a p 4 @ = 5 w g g g 8 5 - * @ + = 7 7 7 7 ",
"w.w.w.q.P @ $ 5 q w g w w 0 - $ + 7 _ r.r.r.r.r.r.r.r.r.r.r.r.r.e.r.r.r.r.r.r.r.r.r.r.r.e.U 4 $ 8 g g k g 8 q 8 - @ = I w.w.w.w.",
"k.k.k.k.0.= * 0 w g g w w 0 8 = @ s t.k.k.k.k.k.k.k.k.k.k.k.k.k.k.k.k.k.k.k.k.k.k.k.k.k.k.e.7 = q g g k g q g q 8 * q w.k.k.k.k.",
"k.k.k.k.0.= $ 5 q w g w w q 0 - @ s t.k.k.k.k.k.k.k.k.k.k.k.k.k.k.k.k.k.k.k.k.k.k.k.k.k.k.e.q $ 8 w g w w q 8 0 5 $ 7 w.k.k.k.k.",
"k.k.k.k.0.= @ 5 8 w w w i w w 3 @ s t.k.k.k.k.k.k.k.k.k.k.k.k.k.k.k.k.k.k.k.k.k.k.k.k.k.k.e.p $ 5 8 8 0 8 5 5 8 - $ 7 w.k.k.k.k.",
"k.k.k.k.0.4 @ % - 5 8 8 8 5 3 = + k t.k.k.k.k.k.k.k.k.k.k.k.k.k.k.k.k.k.k.k.k.k.k.k.k.k.k.e.q + * - - - - = - = * + 7 w.k.k.k.k.",
"k.k.k.k.0.% o @ + * @ * @ @ * + + s t.k.k.k.k.k.k.k.k.k.k.k.k.k.k.k.k.k.k.k.k.k.k.k.k.k.k.w.7 o + @ + @ + + + * + + 7 w.k.k.k.k.",
"k.k.k.k.r.D s s k s k s s s s s k U i.k.k.k.k.k.k.k.k.k.k.k.k.k.k.k.k.k.k.k.k.k.k.k.k.k.k.y.P s s s s s s s s s s s P y.k.k.k.k.",
"k.k.k.k.h.y.t.t.t.t.t.t.t.t.t.t.t.i.j.k.k.k.k.k.k.k.k.k.k.k.k.k.k.k.k.k.k.k.k.k.k.k.k.k.k.h.i.t.t.t.t.t.t.t.t.t.t.t.u.h.k.k.k.k.",
"k.k.k.k.k.k.k.k.k.k.k.k.k.k.k.k.k.k.k.k.k.k.k.k.k.k.k.k.k.k.k.k.k.k.k.k.k.k.k.k.k.k.k.k.k.k.k.k.k.k.k.k.k.k.k.k.k.k.k.k.k.k.k.k.",
"k.k.k.k.k.k.k.k.k.k.k.k.k.k.k.k.k.k.k.k.k.k.k.k.k.k.k.k.k.k.k.k.k.k.k.k.k.k.k.k.k.k.k.k.k.k.k.k.k.k.k.k.k.k.k.k.k.k.k.k.k.k.k.k.",
"k.k.k.k.k.k.k.k.k.k.k.k.k.k.k.k.k.k.k.k.k.k.k.k.k.k.k.k.k.k.k.k.k.k.k.k.k.k.k.k.k.k.k.k.k.k.k.k.k.k.k.k.k.k.k.k.k.k.k.k.k.k.k.k.",
"k.k.k.k.k.k.k.k.k.k.k.k.k.k.k.k.k.k.k.k.k.k.k.k.k.k.k.k.k.k.k.k.k.k.k.k.k.k.k.k.k.k.k.k.k.k.k.k.k.k.k.k.k.k.k.k.k.k.k.k.k.k.k.k.",
"k.k.k.k.k.k.k.k.k.k.k.k.k.k.k.k.k.k.k.k.k.k.k.k.k.k.k.k.k.k.k.k.k.k.k.k.k.k.k.k.k.k.k.k.k.k.k.k.k.k.k.k.k.k.k.k.k.k.k.k.k.k.k.k.",
"k.k.k.k.k.k.k.k.k.k.k.k.k.k.k.k.k.k.k.k.k.k.k.k.k.k.k.k.k.k.k.k.k.k.k.k.k.k.k.k.k.k.k.k.k.k.k.k.k.k.k.k.k.k.k.k.k.k.k.k.k.k.k.k."
};
