/* XPM */
static char *_633098907199[] = {
/* columns rows colors chars-per-pixel */
"64 64 138 2 ",
"   c #040504",
".  c #060807",
"X  c #0A0C0A",
"o  c #0D120D",
"O  c #0F1510",
"+  c #111611",
"@  c #141A14",
"#  c #191D14",
"$  c #171D18",
"%  c #191F19",
"&  c #1C2116",
"*  c #172018",
"=  c #1B241C",
"-  c #1F281F",
";  c #22261A",
":  c #28271D",
">  c #25291C",
",  c #292D1E",
"<  c #2D311F",
"1  c #31331F",
"2  c #1F2720",
"3  c #1F2920",
"4  c #202520",
"5  c #222C22",
"6  c #2A2D20",
"7  c #2C2F2C",
"8  c #253126",
"9  c #2D3424",
"0  c #273328",
"q  c #2A342A",
"w  c #2D3A2E",
"e  c #323422",
"r  c #373824",
"t  c #3C3E26",
"y  c #333E2E",
"u  c #3C3E2B",
"i  c #2F3C30",
"p  c #313731",
"a  c #313E32",
"s  c #3B3E3B",
"d  c #3F4027",
"f  c #3E412B",
"g  c #344335",
"h  c #3E4531",
"j  c #374638",
"k  c #39463A",
"l  c #374838",
"z  c #3C4B3D",
"x  c #42442B",
"c  c #47482C",
"v  c #4A4A2E",
"b  c #424432",
"n  c #444A30",
"m  c #494A34",
"M  c #4E4F3C",
"N  c #4D5134",
"B  c #545535",
"V  c #51513C",
"C  c #5B5C39",
"Z  c #64633C",
"A  c #6E6B3F",
"S  c #3F4D40",
"D  c #414E42",
"F  c #445145",
"G  c #475448",
"H  c #49554A",
"J  c #4C584D",
"K  c #5D5C45",
"L  c #4F5B50",
"P  c #525552",
"I  c #5A5D5A",
"U  c #5E625E",
"Y  c #656542",
"T  c #6B6941",
"R  c #636248",
"E  c #716D40",
"W  c #727246",
"Q  c #797545",
"!  c #777449",
"~  c #79764E",
"^  c #7C7A4A",
"/  c #757455",
"(  c #7D7A52",
")  c #7E7959",
"_  c #646764",
"`  c #807B47",
"'  c #837F4B",
"]  c #817E53",
"[  c #807E5F",
"{  c #83804C",
"}  c #8B864F",
"|  c #8C8A53",
" . c #84815E",
".. c #8D8B5C",
"X. c #928E54",
"o. c #979154",
"O. c #9E975B",
"+. c #A39E5D",
"@. c #A9A25F",
"#. c #898765",
"$. c #9D9765",
"%. c #979369",
"&. c #9C9669",
"*. c #9B9771",
"=. c #9F9B71",
"-. c #ACA464",
";. c #B8AE64",
":. c #B5AD6C",
">. c #BCB369",
",. c #ACA775",
"<. c #ACA870",
"1. c #B4AF73",
"2. c #B4AE7D",
"3. c #BAB476",
"4. c #BCB47B",
"5. c #C4BA6A",
"6. c #C9BF76",
"7. c #C2BA7C",
"8. c #CFC371",
"9. c #CAC17D",
"0. c #868986",
"q. c #8C8E8C",
"w. c #959795",
"e. c #969896",
"r. c #989B98",
"t. c #A4A6A4",
"y. c #A9AAA9",
"u. c #AFB1AF",
"i. c #B5B7B5",
"p. c #C3BC89",
"a. c #CDC381",
"s. c #C7C08B",
"d. c #C9C18B",
"f. c #CAC392",
"g. c #D1D2D1",
"h. c #D7D8D7",
"j. c #DDDDDD",
"k. c None",
/* pixels */
"o o X o O O + + + X X X O X X o X o o X o o o o X o o o X o o X o o o o o o o o X o o X o o X o o o X o o o o o o o O O O o O o ",
"X o o o + + @ + @ + O O O O + + O + O + + o O O O O O o O O O O O O O O o o o o O O O + O O + O O O o + O O O O O O + O O o o o ",
"o o @ * = 2 2 ; = = = = = = * = = 3 3 4 3 - - > - 3 3 = - = = - - - = = = * - - = > 5 = 2 - - 3 - - 5 5 3 3 2 2 2 2 = = = $ + o ",
"X + * 8 7 q q 0 5 7 0 0 0 0 0 q w w i a w i w i w i w w w w 0 q w w w 0 0 g 0 w w w a a w a w y w w a a i i i w w w q 0 5 = + O ",
"o o = 0 0 q q q p p a p j j s a g k j k j g g g j g j g g g g g g l g l g l l g g g k k k g j g j k S S j k s j j a a a w = @ O ",
"o O = q 0 0 q a a j j D D D D D D D D D S z S S S S z z S z l z S S z z z z S z S D D D D S S S m D S G F F F S z k j a w 5 @ O ",
"o + = q 0 7 p s D S S D G G G z s a a p g S S D F S F F F S z S F F S S S G G S D F D G G G F G G G G H G G S i q q 0 q q 5 @ X ",
"X o = q q 0 y k D D G G J G D g 4 $ % % 0 j z D S F F F F F F F F G G H G G H G G G G G J G G J H H J H G S i 4 + @ @ 5 q 4 @ + ",
"X + ; q q 0 a D G G G H H G D p * . . X - g D D D G D G D G D G G G H J J H G G H G G H H J J J J J H J F z w O     . $ 0 - @ o ",
"X + = q q p p D G G F G G F G p * . . o 5 l D D D D D D G G G G F G J L J H H J H J J G G G F G H J H G F z 0 O       $ 0 - @ o ",
"X + = q q p s D G G D D D G D s - o o O 7 S D D D D D F G G G G G G J J J J H J J J J G F F F F G H G F z l 0 O . . X $ 0 5 @ + ",
"o + = 0 a g j S F D D D D D G k g 5 5 5 a D G D D D D D G G G H J G J J J H H H G J G G F F F F G H G F F z g 8 % 4 = 7 q 5 @ + ",
"X O = 0 i s j S S S S G F D F m z z z z S G G F D D G G G G G H J J J G G H H H G G G G F F F F G G G F F z z l g g g w q 5 * $ ",
"o + = q i g j S H S S S D F G S S S z z F G F F G G G G G G G G G G H H H H H H G G F G G F F F F z F z S z z l g g g w q 5 $ @ ",
"X + 4 q i i z S H S S S S G S G F S S F F G G F D G H G G G F F G G G H H H H H G G F F G F S S z z z z z F z l g g l g w - $ + ",
"o + 4 p i g l S H S G S S S S G G F F F F F G F G G G G G F D S D D G G G G G G G G G F F F F S F F z z S z z l l g g g w - * @ ",
"o + 2 i w p a S F S S G S S F F F F F F F F G F F G G F G D S S S S S F F F F F G G G F D F F F F F F z S S S k k k g w 0 5 * O ",
"X + 2 p w w a S G F S S F S z F F F F F F F F F F F D G F S S z z z S S S S S F D G D F F F S F G F G F S z k S l j g g w - * O ",
"o + = w i p j D G S F z z F F F F S S S S S S S D S D D D S S z z l l z z z z z z S S F S S F z z z z z S S S z l j g w w 5 * O ",
"o o ; i p p k F H G S z z z z F S S S z l l l l z S z z z S D S z l l l l l l l l j l z F z z l z l l l l S l l l j g i 0 - * @ ",
"X o 2 w i w g F G F z z l g w 0 0 0 0 0 w 8 8 0 8 0 0 6 0 0 q 8 0 8 8 5 9 8 6 5 8 8 0 0 0 q 8 8 0 0 8 8 8 8 0 8 8 8 8 3 - = @ O ",
"o o 2 q w w s F H F z z l 0 = @ @ + @ @ * O O O @ @ @ @ @ + @ @ @ @ @ @ + @ @ @ @ + @ + @ @ @ @ @ @ @ @ @ + + @ @ + @ @ O O O @ ",
"o O = w w p g D G S z l l w - * + @ 0 n N z n N t ; O @ % @ o & < u x m m v 1 * o $ * @ o > g N n h < o o o $ > < d v n N 9 * o ",
"X O = q q p g F H F z l l g w 5 * & K *.*.%.O.+.{ c @ > q 5 + , B ^ #.*.$.+.A 1 @ 3 q = o h [ *.*.#.M + @ + , c Y { O.$.*.Y &   ",
"X O % 0 q y g D H D S k l l l 0 = > / p.s.d.7.:.| B - 0 l 0 * < Z ..,.f.4.-.Q r @ 8 g - O N =.p.s.2.Y @ * * q N W @.8.9.d.) >   ",
"O O * 7 p a k D G G D z l l l g = & Y <.1.9.-.W B h w g l q * ; f Z %.f.%.Z x & @ 8 g = O N ..1.7.1.Y @ = 8 q 9 N X.8.6.7.^ 6 X ",
"o o * 0 a a k D G F F S l l l g - ; C | @.8.| f * w l z l q = & > f  .f./ , o o @ 8 g 5 O f W +.>.;.Z @ , g 0 * < ^ 5.>.:.! e + ",
"o @ * 7 q g S G G G D S l z l l q 0 b B ^ @.' d * w z z l g q 8 - r ] a.^ ; @ = - g g 5 O , N W @.;.Z @ - g w > < N A A T m ; @ ",
"o @ = 0 y g S D G G S S z z z z l g 8 @ B | W 1 * q l z z z l w - 9 ^ 8.! ; * q g g g 5 O O & c o.>.Z @ 5 g g 0 > & # * = & @ @ ",
"@ @ = 0 i g z G H F S S z z z z z l 0 - f C N 9 8 g z F F z z w - ; B } C 9 8 a l l l 0 - & O 1 Z A c @ - g g q 0 = + $ = = % @ ",
"o @ - 0 i g D G H G S S S z S S z z l g 9 , < w g l F F G F z g - $ , u y y g g l l l g g - @ # > < > @ 5 g g g w 3 $ 3 q 6 = $ ",
"@ @ - q w a k G H F S S S S F S F z z z w - 5 g l l z F H F z g 8 = - > q g l l l l l l l , @ O @ * = = 0 g g l g q = 0 i 0 * $ ",
"+ @ 5 q i a z G H F S D S D D D S F S z j g g l z z l F H F z j y w q w g l l l k l S j g 8 * @ - 0 0 w g g l l l g i i i 0 2 @ ",
"+ @ 5 p a i k F H F s D S D S D F F F F S S F z z l z S G F z l l g g l g l z z S k S j g 0 * = 0 g g g l z S S S l j g w 3 * $ ",
"+ $ 5 i a a k F G G D D D D D D S S S S S S S S S z z S G F z z z z l l z l l z S S S k g i 0 8 g g g l l S S z S S j i i 5 * $ ",
"o @ 4 i a g z F G F F D D S S D z z z S z D F F G F S F F F z z z z z S z l z z S S S S l l g g g g l l l z z z k j j g i 8 = $ ",
"@ @ 5 w i j S S D D G D F D D D F z F z S F F F F F G F G F F F S S z z z l z z l S S S l l j j g g l l S S z S z l g g i 8 * $ ",
"+ @ 5 w s S S S D G F F D F D D F F F F F F F S F F H G G G G F F D S z z j z z S S S S l k l k l l z z S l z S l g g i i 3 = $ ",
"O @ > i a k S D D D F F D D D D D D D F F F F F F G G G F G G F F z S S z z z z S S S l l S S k l S S S S S S z z l g g i 8 * $ ",
"o + 2 i i p s S D F F F D D S S D F D S F F F F F G G F F F F F S z S G D S S S S S S S k k l l z S S S S S S S S z g g w 8 * @ ",
"o @ 4 w i p a z D F F F F D S S S D D F D F F F G G F D D S F z S S F F S S S S S S z z S l l k S S S D D S S S z z k g i 8 * @ ",
"o + 4 i w i a S F F G F F D S D z F D F S F D F F F F F F D S S S S S F S S S S z z z z l l l S S S D D D S S S z l k a i 3 * @ ",
"o @ 4 w i p g D D G G G F D D s S S D D D D D D F S z F S z z z z F S S S z z l l z z z l l l l k S S S D S S z z k j g i 5 * $ ",
"o + 5 a p a a k S D S S F D D S S S z z z z S D S S S z z z z S S S z z z l l l z z z z z z z z k z S S S S S S z j g i w 8 * @ ",
"o + 5 a i a a j j z z S z S S S S z l l k k l z z z z z l l z z z z z l g l g l z z z z z z l z l l z k z S z z l g w w 0 5 = @ ",
"O + 5 w q q p a s k S z z z z l l g g g g g g g g g l j g g g j l l g g i g g l g g l g g g g g j j k l l z z z g g 0 w w 3 * + ",
"o + 3 w q 0 0 q a j S S S l l g i w w w w w i i w g a i a a a a g i i w w w w w i w w w w w w g g g j l l z l l g 0 5 0 w - @ O ",
"o + * 5 5 4 5 0 w a g k z j g w 0 8 8 8 8 8 8 5 8 8 0 0 0 q 0 0 8 8 8 8 8 5 5 8 8 8 8 8 8 8 5 8 8 i i j l l l g g 5 = - 5 = + o ",
"o + + $ $ @ % = 7 0 w g k g w 8 = * = = = = = = = = = = = = = = = = = = = * = * = = = = = * * $ * = 0 i g g w 0 8 = @ @ $ O O O ",
"7 7 7 7 4 + @ * - 5 8 w g g w 6 % @ 5 p p p p p p p p a p p a p a p p p p p a a p p p p a - @ o O $ 3 i w w w 8 - @ + % 7 7 7 7 ",
"w.w.w.w.I = @ - 8 0 q g l g g 8 = 4 U r.r.r.r.r.r.r.e.r.r.r.r.r.r.r.r.r.r.r.r.r.e.r.r.r.e._ 7 o $ = 0 i w g g 0 3 * @ J q.w.w.w.",
"k.k.k.k.w.7 $ 5 q w w g l l g 0 = 7 e.k.k.k.k.k.k.k.k.k.k.k.k.k.k.k.k.k.k.k.k.k.k.k.k.k.k.t.s @ = 8 0 i w g g w 8 * = 0.k.k.k.k.",
"k.k.k.k.w.7 @ 5 8 0 0 w i i i 8 * q e.k.k.k.k.k.k.k.k.k.k.k.k.k.k.k.k.k.k.k.k.k.k.k.k.k.k.t.s @ 3 0 0 i i g w 0 5 % 2 0.k.k.k.k.",
"k.k.k.k.w.7 @ 5 8 8 8 8 0 0 8 3 $ 7 e.k.k.k.k.k.k.k.k.k.k.k.k.k.k.k.k.k.k.k.k.k.k.k.k.k.k.t.s $ 3 w w i w w w 0 5 % % 0.k.k.k.k.",
"k.k.k.k.w.7 @ * = - = = = 3 - * @ 7 e.k.k.k.k.k.k.k.k.k.k.k.k.k.k.k.k.k.k.k.k.k.k.k.k.k.k.t.s @ = 8 3 8 3 8 3 - * @ % 0.k.k.k.k.",
"k.k.k.k.w.7 + + @ + @ @ @ @ @ + + q w.k.k.k.k.k.k.k.k.k.k.k.k.k.k.k.k.k.k.k.k.k.k.k.k.k.k.t.s + + @ * @ * @ * @ + + = 0.k.k.k.k.",
"k.k.k.k.y.P s s g s s s s s s s s P y.k.k.k.k.k.k.k.k.k.k.k.k.k.k.k.k.k.k.k.k.k.k.k.k.k.k.i.U s s s s s s s s s s s D r.k.k.k.k.",
"k.k.k.k.h.u.t.t.t.t.t.t.t.t.t.t.t.u.h.k.k.k.k.k.k.k.k.k.k.k.k.k.k.k.k.k.k.k.k.k.k.k.k.k.k.j.i.t.t.t.t.y.t.t.t.y.t.t.y.g.k.k.k.k.",
"k.k.k.k.k.k.k.k.k.k.k.k.k.k.k.k.k.k.k.k.k.k.k.k.k.k.k.k.k.k.k.k.k.k.k.k.k.k.k.k.k.k.k.k.k.k.k.k.k.k.k.k.k.k.k.k.k.k.k.k.k.k.k.k.",
"k.k.k.k.k.k.k.k.k.k.k.k.k.k.k.k.k.k.k.k.k.k.k.k.k.k.k.k.k.k.k.k.k.k.k.k.k.k.k.k.k.k.k.k.k.k.k.k.k.k.k.k.k.k.k.k.k.k.k.k.k.k.k.k.",
"k.k.k.k.k.k.k.k.k.k.k.k.k.k.k.k.k.k.k.k.k.k.k.k.k.k.k.k.k.k.k.k.k.k.k.k.k.k.k.k.k.k.k.k.k.k.k.k.k.k.k.k.k.k.k.k.k.k.k.k.k.k.k.k.",
"k.k.k.k.k.k.k.k.k.k.k.k.k.k.k.k.k.k.k.k.k.k.k.k.k.k.k.k.k.k.k.k.k.k.k.k.k.k.k.k.k.k.k.k.k.k.k.k.k.k.k.k.k.k.k.k.k.k.k.k.k.k.k.k.",
"k.k.k.k.k.k.k.k.k.k.k.k.k.k.k.k.k.k.k.k.k.k.k.k.k.k.k.k.k.k.k.k.k.k.k.k.k.k.k.k.k.k.k.k.k.k.k.k.k.k.k.k.k.k.k.k.k.k.k.k.k.k.k.k.",
"k.k.k.k.k.k.k.k.k.k.k.k.k.k.k.k.k.k.k.k.k.k.k.k.k.k.k.k.k.k.k.k.k.k.k.k.k.k.k.k.k.k.k.k.k.k.k.k.k.k.k.k.k.k.k.k.k.k.k.k.k.k.k.k."
};
