/* XPM */
static char *result[] = {
/* columns rows colors chars-per-pixel */
"64 64 228 2 ",
"   c #191C1D",
".  c #1B0B09",
"X  c #210A06",
"o  c #2F0E05",
"O  c #350E05",
"+  c #3C0E03",
"@  c #2D110A",
"#  c #39130A",
"$  c #281C19",
"%  c #34221D",
"&  c #28201E",
"*  c #1C1F23",
"=  c #1A2224",
"-  c #182A2C",
";  c #163839",
":  c #212425",
">  c #292A28",
",  c #273333",
"<  c #223A3C",
"1  c #273838",
"2  c #322D2A",
"3  c #420E03",
"4  c #4B1103",
"5  c #461407",
"6  c #581707",
"7  c #6B1602",
"8  c #6D1904",
"9  c #6C1E0B",
"0  c #631A08",
"q  c #721A04",
"w  c #7B1F09",
"e  c #771E08",
"r  c #46241E",
"t  c #55281F",
"y  c #7D230D",
"u  c #74220C",
"i  c #742714",
"p  c #583829",
"a  c #55352B",
"s  c #7B3320",
"d  c #753624",
"f  c #633022",
"g  c #55463F",
"h  c #774A3A",
"j  c #69473D",
"k  c #2D3E43",
"l  c #144545",
"z  c #195858",
"x  c #254B4C",
"c  c #374749",
"v  c #35555B",
"b  c #39555B",
"n  c #39585A",
"m  c #275152",
"M  c #385D62",
"N  c #2F5D61",
"B  c #186566",
"V  c #1A7675",
"C  c #2A6668",
"Z  c #376668",
"A  c #376D71",
"S  c #257779",
"D  c #2D6F73",
"F  c #475A5B",
"G  c #4C504F",
"H  c #65554E",
"J  c #67625D",
"K  c #456665",
"L  c #447369",
"P  c #567475",
"I  c #516E71",
"U  c #797B7B",
"Y  c #5E6058",
"T  c #84240E",
"R  c #8B240D",
"E  c #91250C",
"W  c #942A0F",
"Q  c #9A2A0F",
"!  c #862911",
"~  c #892A12",
"^  c #872812",
"/  c #942B11",
"(  c #9B2C11",
")  c #962F1A",
"_  c #89331A",
"`  c #953315",
"'  c #9B3416",
"]  c #963119",
"[  c #9C351B",
"{  c #9E391F",
"}  c #A63315",
"|  c #A93515",
" . c #A33A1E",
".. c #AA3C1C",
"X. c #A4351A",
"o. c #B03D1B",
"O. c #8D3C25",
"+. c #8B3720",
"@. c #9D3C22",
"#. c #943B22",
"$. c #A33C22",
"%. c #AB3E23",
"&. c #B33F25",
"*. c #821F08",
"=. c #B7421F",
"-. c #9A4229",
";. c #944B35",
":. c #844632",
">. c #A64125",
",. c #AC4225",
"<. c #A3442A",
"1. c #AC4529",
"2. c #A9492E",
"3. c #B34325",
"4. c #BD4524",
"5. c #B54A2D",
"6. c #BD4C2E",
"7. c #B74926",
"8. c #A84B32",
"9. c #B34E32",
"0. c #BC4D31",
"q. c #AE5034",
"w. c #BA5235",
"e. c #B55338",
"r. c #C14727",
"t. c #C44A25",
"y. c #CE4C23",
"u. c #C44D2D",
"i. c #CA4E2D",
"p. c #C04628",
"a. c #D04D22",
"s. c #D24F2B",
"d. c #C5512D",
"f. c #CD512D",
"g. c #CF5427",
"h. c #D4512E",
"j. c #DC542D",
"k. c #DE592D",
"l. c #D25026",
"z. c #C24E30",
"x. c #CC4F30",
"c. c #C55131",
"v. c #CC5231",
"b. c #C65A38",
"n. c #D35231",
"m. c #DD5C32",
"M. c #D85732",
"N. c #E45B2D",
"B. c #EB5D2E",
"V. c #E2572A",
"C. c #EA5F31",
"Z. c #E25D31",
"A. c #DA6036",
"S. c #DA6239",
"D. c #F3612E",
"F. c #EA6031",
"G. c #ED602E",
"H. c #B65D44",
"J. c #BA644B",
"K. c #B66450",
"L. c #DB6B44",
"P. c #DA714C",
"I. c #C16B52",
"U. c #1A7F80",
"Y. c #257E81",
"T. c #3F7D81",
"R. c #4C7D84",
"E. c #4E7780",
"W. c #527E84",
"Q. c #189595",
"!. c #1B8383",
"~. c #238788",
"^. c #3E8D94",
"/. c #289A9B",
"(. c #3B949B",
"). c #35999E",
"_. c #37959B",
"`. c #3F8289",
"'. c #2D9EA5",
"]. c #349CA3",
"[. c #3A9BA2",
"{. c #16A6A6",
"}. c #18A5A5",
"|. c #15A8A6",
" X c #1CACAA",
".X c #1AB5B5",
"XX c #1CBDBD",
"oX c #17B8B8",
"OX c #1CB0B0",
"+X c #28A7AA",
"@X c #36A6A9",
"#X c #2AADB1",
"$X c #22AFB5",
"%X c #30ACB0",
"&X c #2CB2B6",
"*X c #2BB6BD",
"=X c #24BABC",
"-X c #2BBABD",
";X c #23B5BA",
":X c #35B4B5",
">X c #4C858E",
",X c #48858C",
"<X c #51858D",
"1X c #568389",
"2X c #438C93",
"3X c #4B8992",
"4X c #4D8790",
"5X c #538790",
"6X c #44939A",
"7X c #1EBFC2",
"8X c #28BDC2",
"9X c #1FC3C5",
"0X c #1CC9CB",
"qX c #1BD2D4",
"wX c #1CD6D9",
"eX c #1BDBDC",
"rX c #16D8DA",
"tX c #24C1C4",
"yX c #2AC1C4",
"uX c #24C5C9",
"iX c #25CBCE",
"pX c #23D4D6",
"aX c #24D5D8",
"sX c #22D9DA",
"dX c #23CFD0",
"fX c #18DEE0",
"gX c #17E5E6",
"hX c None",
/* pixels */
"hXhXhXhXhXhXhXhXhXhXhXhXhXhXhXhXhXhXhXhXhXhXhXhXhXhXhXhXhXhXhXhXhXhXhXhXhXhXhXhXhXhXhXhXhXhXhXhXhXhXhXhXhXhXhXhXhXhXhXhXhXhXhXhX",
"hXhXhXhXhXhXhXhXhXhXhXhXhXhXhXhXhXhXhXhXhXhXhXhXhXhXhXhXhXhXhXhXhXhXhXhXhXhXhXhXhXhXhXhXhXhXhXhXhXhXhXhXhXhXhXhXhXhXhXhXhXhXhXhX",
"hXhXhXhXhXhXhXhXhXhXhXhXhXhXhXhXhXhXhXhXhXhXhXhXhXhXhXhXhXhXhXhXhXhXhXhXhXhXhXhXhXhXhXhXhXhXhXhXhXhXhXhXhXhXhXhXhXhXhXhXhXhXhXhX",
"hXhXhXhXhXhXhXhXhXhXhXhXhXhXhXhXhXhXhXhXhXhXhXhXhXhXhXhXhXhXhXhXhXhXhXhXhXhXhXhXhXhXhXhXhXhXhXhXhXhXhXhXhXhXhXhXhXhXhXhXhXhXhXhX",
"hXhXhXhXhXhXhXhXhXhXhXhXhXhXhXhXhXhXhXhXhXhXhXhXhXhXhXhXhXhXhXhXhX< < < < < < < ; hXhXhXhXhXhXhXhXhXhXhXhXhXhXhXhXhXhXhXhXhXhXhX",
"hXhXhXhXhXhXhXhXhXhXhXhXhXhXhXhXhXhXhXhXhXhXhXhXhXhXhXhXhXhX; l B .X.X.X.X.X.X.XoXQ.l < x hXhXhXhXhXhXhXhXhXhXhXhXhXhXhXhXhXhXhX",
"hXhXhXhXhXhXhXhXhXhXhXhXhXhXhXhXhXhXhXhXhXhXhXhXhXhXhXZ l S XX7X0XeXXX'.].[.@X+XqXrXXXXX+Xz x hXhXhXhXhXhXhXhXhXhXhXhXhXhXhXhXhX",
"hXhXhXhXhXhXhXhXhXhXhXhXhXhXhXhXhXhXhXhXhXhXhXhXU v z  XpX&X(.(.(.+XsX[.<X5X4XyXtX_.(._.@XtX0XV z P hXhXhXhXhXhXhXhXhXhXhXhXhXhX",
"hXhXhXhXhXhXhXhXhXhXhXhXhXhXhXhXhXhXhXhXhXhXhXC B +XuX0X0X+X4X5X5X^./.C v b N Y./.4X>X<X^.XXqX9XtXU.z L hXhXhXhXhXhXhXhXhXhXhXhX",
"hXhXhXhXhXhXhXhXhXhXhXhXhXhXhXhXhXhXhXhXhXK !.rX0X).2X^.@X8X_.m c c $ o o o O @ 2 c c C &X*X(.2X^.&XfXOXD hXhXhXhXhXhXhXhXhXhXhX",
"hXhXhXhXhXhXhXhXhXhXhXhXhXhXhXhXhXhXhXhXn ~.&X9XXX].,X1XZ z x @ O 3 0 7 7 7 7 7 6 O O > C m W.<X2X&XtXtX+XD J hXhXhXhXhXhXhXhXhX",
"hXhXhXhXhXhXhXhXhXhXhXhXhXhXhXhXhXhXhXZ /.%X2X2X%X*XC , % 3 4 8 7 w =.X.@.[ @.@.T 8 q 6 3 # > < /.=X).,X).+XY.K hXhXhXhXhXhXhXhX",
"hXhXhXhXhXhXhXhXhXhXhXhXhXhXhXhXhXhXC  X%X2X<X4X,Xz % 3 6 8 y ,. .R N.h.6.6.0.0.] / y.| w 7 4 # 1 A <X<X>X(.;X~.c hXhXhXhXhXhXhX",
"hXhXhXhXhXhXhXhXhXhXhXhXhXhXhXhXhXF B gX9X].3XP > 5 8 w ) ,.1.c.r.E N.y.6.w.0.0.] | D.h.6. .T e 6 $ n R.6X#XeX.Xl hXhXhXhXhXhXhX",
"hXhXhXhXhXhXhXhXhXhXhXhXhXhXhXhXG B =X/.#X-XA > 4 8 4.j.u.6.0.x.r.E V.f.6.0.0.0.] | B.s.h.i.i.r.y 6 # c ].-X].+X+X< hXhXhXhXhXhX",
"hXhXhXhXhXhXhXhXhXhXhXhXhXhXhXhXn !.8X2X3XR.  4 u q a.B.s.u.i.j.r.E N.f.6.u.6.0.] | C.u.h.h.j.s.R T 9 @ x 3X>X@X=Xz hXhXhXhXhXhX",
"hXhXhXhXhXhXhXhXhXhXhXhXhXhXhXG V 8X2X4XW.b @ 0 $.^ y.B.h.i.i.n.3.R N.f.x.x.x.0.] | C.u.z.j.j.x.R t.} 3 > I 4X,X'.tX; hXhXhXhXhX",
"hXhXhXhXhXhXhXhXhXhXhXhXhXhXhXC Q.9X8X@XA . 6 ~ 5.T y.j.s.s.i.n.3.R B.l.s.j.z.0.] | C.p.u.j.h.p.R a.4.u O , 6X*X=XXXV n hXhXhXhX",
"hXhXhXhXhXhXhXhXhXhXhXhXhXhX, Q.9X+X8X/.k # 9 5.9.R y.k.i.h.h.n.,.R N.s.n.j.x.0.] | C.z.z.x.j.0.T a.k._ 4 % C *X*X'.iXl hXhXhXhX",
"hXhXhXhXhXhXhXhXhXhXhXhXhXhX> Q.8X2X5XM . 0 [ 7.0.T y.V.u.h.h.d.3.R N.s.n.j.i.0.) | C.p.0.u.n.6.R a.k.,.^ 3 - >X4X[.pXl hXhXhXhX",
"hXhXhXhXhXhXhXhXhXhXhXhXhXhX1 Q.8X>X1Xn . 9 5.0.9.R y.j.0.i.n.z.,.R N.s.n.j.i.z.) | C.u.0.6.h.s.E a.k.w.] 3 - W.>X(.iXl hXhXhXhX",
"hXhXhXhXhXhXhXhXhXhXhXhXhXc ~.oX+X(.A $ 6 y 5.0.0.T y.j.p.i.v.0.%.~ B.a.n.s.x.c.] | C.u.0.z.h.h.E a.k.6.[ 0 # < 2X[.$X.XhXhXhXhX",
"hXhXhXhXhXhXhXhXhXhXhXhXhX, |.gXpXaX~.X T h.u.6.0.T y.k.0.0.z.0.,.R B.j.h.u.n.i.) | C.6.0.z.j.s.E y.k.6.9.] 4 ; yXaXwXgXhXhXhXhX",
"hXhXhXhXhXhXhXhXhXhXhXhXhX, {.9X[.(.C X ! F.i.0.0.^ y.V.0.0.0.0.3.E B.V.u.z.n.f.] | F.u.0.z.n.x.R l.k.0.0.@.4 = 2X).+XeXhXhXhXhX",
"hXhXhXhXhXhXhXhXhXhXhXhXhX, }.*X>X<XF O y t.%.$.$.y o.4.$.$.$.$.[ *.r.r.%.$.&.&.! Q t.>.$.$.%.$.y o.4.$.$.~ 4 % W.<X(.aXhXhXhXhX",
"hXhXhXhXhXhXhXhXhXhXhXhXhX, {.-X>XP h ` } | | | X.} | | } } | | } } | | } } } } } } | } | | } } } | | } | } } :.Y 1X(.aXhXhXhXhX",
"hXhXhXhXhXhXhXhXhXhXhXhXhX, |.rX-XL ` F.N.k.A.P.S.N.k.N.m.L.P.m.k.N.V.V.m.P.L.V.N.k.k.N.S.P.A.N.V.N.k.L.L.k.N.t.p @XtXfXhXhXhXhX",
"hXhXhXhXhXhXhXhXhXhXhXhXhX, |.rX-XL ` F.t.6.w.J.e.6.6.5.0.e.J.0.6.6.0.6.0.H.H.0.6.6.6.6.e.K.w.0.6.6.5.J.J.0.7...p [.tXgXhXhXhXhX",
"hXhXhXhXhXhXhXhXhXhXhXhXhX, }.-X,XP h ` ~ ~ ! ! ~ ~ ~ ~ ~ ~ ~ ~ ~ ~ ~ ~ ^ ~ _ ~ ~ ~ ~ ~ ~ ~ ~ ~ ^ ~ ~ _ ~ ~ _ h Y W._.pXhXhXhXhX",
"hXhXhXhXhXhXhXhXhXhXhXhXhX, }.-X,X<XF O 8 q q q 8 7 q q q q q 8 8 8 q 8 q 9 6 9 8 q q 8 8 8 8 8 8 8 9 0 8 9 5 2 W.<X(.qXhXhXhXhX",
"hXhXhXhXhXhXhXhXhXhXhXhXhX, {.9X).6XC X y f.3.1.,.*.&.a.4.3.,.1.@.y 7.,.-.<.s -._ _ g.,.-.1.1.<.u 7.@._ <._ O = ,X6X).XXhXhXhXhX",
"hXhXhXhXhXhXhXhXhXhXhXhXhX, |.gXqXaX~.X ~ F.d.6.0.T a.B.h.x.0.z.<.u d.d.2.q.-.-._ ! 6.e.O.q.w.8.9 d.,.-.2._ O - +XtX|.oXhXhXhXhX",
"hXhXhXhXhXhXhXhXhXhXhXhXhX, {.7X_.6XN X ~ F.z.8.9.T y.N.i.s.6.0.<.9 d.b.g.w.#.w. .` 7.q.+.8.w.8.9 f.d.1.M.1.+ - 3X`.S 8XhXhXhXhX",
"hXhXhXhXhXhXhXhXhXhXhXhXhX, }.*X4X<Xb X ^ m.;.H h u y.j.s.n.z.0.2.! g.>.<.e.-.6.[ ` 7.q.O.q.0.8.9 f.d.>.v.,.5 - >XP D OXhXhXhXhX",
"hXhXhXhXhXhXhXhXhXhXhXhXhX, }.8X2X4Xv X ~ b.a U G 6 a.V.x.x.s.6.<.! M.9.@.w.>.5.[ ` 3.q.#.2.w.-.9 g.g.{ 5.,.3 = P R.D ;XhXhXhXhX",
"hXhXhXhXhXhXhXhXhXhXhXhXhX, {.fX7XuXY.X ^ m.:.J j e i.V.p.i.n.x.<.u 7.>.5.b.7.w.] ' d.w.9.1.-.-.y g.Z.2.2.>.5 - }.8X.XoXhXhXhXhX",
"hXhXhXhXhXhXhXhXhXhXhXhXhX, {.qX8X8XD . ^ C.q.a ;.^ y.V.6.z.s.n.3.R Z.c.6.n.M.v.` | Z.u.z.v.z.9.! a.B.j.n.%.4 - %X*X7XfXhXhXhXhX",
"hXhXhXhXhXhXhXhXhXhXhXhXhX, }.8X,X4Xv X ^ C.9.a ;.R y.j.6.6.i.n.,.R B.i.6.h.j.f.) | B.u.x.n.p.5.T a.D.h.n.X.4 * R.>X(.aXhXhXhXhX",
"hXhXhXhXhXhXhXhXhXhXhXhXhX, {.*X>X<Xb X T C.9.a ;.R y.V.6.6.i.n.3.R V.s.z.h.j.x.) | C.u.z.v.z.6.R y.V.h.x. .4 = W.>X(.aXhXhXhXhX",
"hXhXhXhXhXhXhXhXhXhXhXhXhX, {.0X].].N X ^ C.q.a ;.^ y.m.6.6.z.n.r.E B.i.z.n.j.x.] | C.p.x.n.z.0.T a.k.l.n. .4 = ^.].+XeXhXhXhXhX",
"hXhXhXhXhXhXhXhXhXhXhXhXhX, |.gXqXwXY.. ^ F.;.g :.w a.k.0.0.6.x.p.E B.f.p.n.j.x.) | C.i.j.j.n.p.R a.j.i.j.o.4 ; yXqXrXgXhXhXhXhX",
"hXhXhXhXhXhXhXhXhXhXhXhXhX, }.tX(.6XN X ^ v.j U G 6 y.V.6.0.6.x.p.E N.f.0.h.j.c.] | C.i.h.V.n.z.R a.k.i.j...4 = ,X(.'.wXhXhXhXhX",
"hXhXhXhXhXhXhXhXhXhXhXhXhX, }.-X4X5Xb X ! m.h J H 0 y.N.6.6.0.z.r.E N.l.6.v.v.z.] | B.i.h.s.h.u.T y.k.i.x.$.3 = R.>X(.pXhXhXhXhX",
"hXhXhXhXhXhXhXhXhXhXhXhXhX, }.-X2X>Xv X ! B.7.:.8.T y.j.6.6.0.z.r.E N.f.0.6.6.0.) | G.s.h.u.h.6.R a.k.p.x. .4   R.4X(.aXhXhXhXhX",
"hXhXhXhXhXhXhXhXhXhXhXhXhX, |.fX0XiXS X ! F.d.6.9.T y.N.6.0.0.d.r.E N.f.6.6.0.0.) | D.j.y.u.n.6.R a.j.0.0. .4 ; &XuX0XgXhXhXhXhX",
"hXhXhXhXhXhXhXhXhXhXhXhXhX, |.qX&X&XD X ! N.u.6.7.T y.j.0.0.0.f.r.E N.d.6.w.0.0.) | D.j.6.x.h.i.R y.j.u.0.@.4 - @X&X8XfXhXhXhXhX",
"hXhXhXhXhXhXhXhXhXhXhXhXhX, {.-X>X>Xb X T k.u.7.5.T r.h.5.5.5.d.,.R j.t.7.5.5.5.) } V.l.u.5.p.x.R t.h.5.5.[ 4 $ W.>X(.pXhXhXhXhX",
"hXhXhXhXhXhXhXhXhXhXhXhXhX, }.&X>XW.H 9 T ( W / E R W ( W E W Q E R Q Q / / / / R R ( Q Q E / ( R W ( / / R y f P W.(.aXhXhXhXhX",
"hXhXhXhXhXhXhXhXhXhXhXhXhX, {.0X[.L ` N.N.k.A.S.k.k.k.k.V.m.A.k.k.j.V.j.k.A.m.k.k.k.V.j.m.S.k.j.j.V.j.A.S.k.N.t.g ,X+XeXhXhXhXhX",
"hXhXhXhXhXhXhXhXhXhXhXhXhX, |.gXdXL ' G.g.d.b.K.b.d.d.d.d.J.J.b.u.f.d.u.c.I.J.u.i.i.d.u.e.I.b.u.d.d.d.I.J.u.d.,.p :XrXgXhXhXhXhX",
"hXhXhXhXhXhXhXhXhXhXhXhXhX, {.8X6XI :.7. .@.@.@.@. . . .{ @.@.{  .$.$. .@.@.@.$.{  .$.$.$.-.@.$.@. .{ @.@.$. .:.j 1X].sXhXhXhXhX",
"hXhXhXhXhXhXhXhXhXhXhXhXhX, }.8X5X1XG 5 7 7 8 7 7 7 7 7 7 7 7 7 7 7 7 7 7 7 7 7 7 7 7 7 7 7 7 7 7 7 7 7 7 7 6 r P <X_.sXhXhXhXhX",
"hXhXhXhXhXhXhXhXhXhXhXhXhX, }.=X^.3Xv X u ....X.] y ' ..` [ [ [ ~ y ..' ]  .[ ] y R ..X.[ [ X.] w }  .` ] ~ 4   ,X3X_.sXhXhXhXhX",
"hXhXhXhXhXhXhXhXhXhXhXhXhX, {.gXiXiXY.X R B.j.n.6.R i.N.0.i.n.0.,.R N.y.i.n.h.i.] | F.f.n.u.n.6.T y.k.d.w.{ 4 ; =XiXqXgXhXhXhXhX",
"hXhXhXhXhXhXhXhXhXhXhXhXhX, {.qX%X%XD X ! B.i.h.u.R y.j.p.i.v.z.>.R N.h.n.s.s.f.` | F.u.x.h.h.6.R y.k.6.6.{ 4 - ).%X=XfXhXhXhXhX",
"hXhXhXhXhXhXhXhXhXhXhXhXhX, }.*X,X>Xv X ~ N.i.h.i.E y.j.x.v.x.5.,.E B.g.h.x.n.i.] | B.u.u.h.u.6.T y.j.5.0.{ 4 = 1X>X(.aXhXhXhXhX",
"hXhXhXhXhXhXhXhXhXhXhXhXhX, }.-X3X5XM X ^ C.i.u.i.~ y.N.i.f.0.0.,.R B.V.h.f.f.n. .| C.u.6.u.6.5.R a.k.0.0.{ 4 = R.>X_.aXhXhXhXhX",
"hXhXhXhXhXhXhXhXhXhXhXhXhXc ~.~.Z K k . 9 u.,.>.$.9 ..y.3.>.,.>.] 9 d.t.3.>.,.3.^ ~ i.%.,.$.>.$.9 ,.4.>.>._ O   M K D '.hXhXhXhX",
"hXhXhXhXhXhXhXhXhXhXhXhXhXhXG - : : = $ % s +.s d r f s +.s s s f r d s s s s s t t s s s s s d r f s s s t $ * : : : , hXhXhXhX",
"hXhXhXhXhXhXhXhXhXhXhXhXhXhXhXhXhXhXhXhXhXhXhXhXhXhXhXhXhXhXhXhXhXhXhXhXhXhXhXhXhXhXhXhXhXhXhXhXhXhXhXhXhXhXhXhXhXhXhXhXhXhXhXhX",
"hXhXhXhXhXhXhXhXhXhXhXhXhXhXhXhXhXhXhXhXhXhXhXhXhXhXhXhXhXhXhXhXhXhXhXhXhXhXhXhXhXhXhXhXhXhXhXhXhXhXhXhXhXhXhXhXhXhXhXhXhXhXhXhX",
"hXhXhXhXhXhXhXhXhXhXhXhXhXhXhXhXhXhXhXhXhXhXhXhXhXhXhXhXhXhXhXhXhXhXhXhXhXhXhXhXhXhXhXhXhXhXhXhXhXhXhXhXhXhXhXhXhXhXhXhXhXhXhXhX",
"hXhXhXhXhXhXhXhXhXhXhXhXhXhXhXhXhXhXhXhXhXhXhXhXhXhXhXhXhXhXhXhXhXhXhXhXhXhXhXhXhXhXhXhXhXhXhXhXhXhXhXhXhXhXhXhXhXhXhXhXhXhXhXhX",
"hXhXhXhXhXhXhXhXhXhXhXhXhXhXhXhXhXhXhXhXhXhXhXhXhXhXhXhXhXhXhXhXhXhXhXhXhXhXhXhXhXhXhXhXhXhXhXhXhXhXhXhXhXhXhXhXhXhXhXhXhXhXhXhX"
};
