/* XPM */
static char *result[] = {
/* columns rows colors chars-per-pixel */
"64 64 231 2 ",
"   c #0C1215",
".  c #0B1619",
"X  c #0A1A1D",
"o  c #181A1D",
"O  c #14181A",
"+  c #0B0E11",
"@  c #3B0D03",
"#  c #2D1F1C",
"$  c #281715",
"%  c #361911",
"&  c #2E211D",
"*  c #35201A",
"=  c #1A1E21",
"-  c #161E22",
";  c #0C1D20",
":  c #132526",
">  c #1F2326",
",  c #15272A",
"<  c #172E31",
"1  c #0C3233",
"2  c #0E3838",
"3  c #123535",
"4  c #0E2F2F",
"5  c #212326",
"6  c #222629",
"7  c #25292B",
"8  c #2B2525",
"9  c #2D3334",
"0  c #12201E",
"q  c #46160A",
"w  c #5A1D0C",
"e  c #43150A",
"r  c #6D1904",
"t  c #651C09",
"y  c #6B1702",
"u  c #731B05",
"i  c #7B1C06",
"p  c #751D07",
"a  c #47251A",
"s  c #552917",
"d  c #7B230C",
"f  c #75240E",
"g  c #772B15",
"h  c #7A331C",
"j  c #67220E",
"k  c #533529",
"l  c #683A2B",
"z  c #763925",
"x  c #544733",
"c  c #6C4D38",
"v  c #2B3E44",
"b  c #1C5656",
"n  c #174648",
"m  c #2D4246",
"M  c #224D4D",
"N  c #265759",
"B  c #355454",
"V  c #3A5C63",
"C  c #187474",
"Z  c #156465",
"A  c #286767",
"S  c #376869",
"D  c #297776",
"F  c #3C6F75",
"G  c #585857",
"H  c #4D574F",
"J  c #67564C",
"K  c #496E75",
"L  c #446D74",
"P  c #47767B",
"I  c #556C6D",
"U  c #6C6B6C",
"Y  c #47715E",
"T  c #831D07",
"R  c #871D07",
"E  c #84230B",
"W  c #8C240D",
"Q  c #8E2A0F",
"!  c #93250C",
"~  c #94290D",
"^  c #992A0E",
"/  c #852A12",
"(  c #8B2D13",
")  c #832711",
"_  c #932D13",
"`  c #863119",
"'  c #9C351A",
"]  c #98361A",
"[  c #A53414",
"{  c #AB3516",
"}  c #A3391D",
"|  c #AC3A1C",
" . c #A7371A",
".. c #B43C1C",
"X. c #B93E1B",
"o. c #B13718",
"O. c #893A23",
"+. c #943C22",
"@. c #973D24",
"#. c #AD3C21",
"$. c #BA431D",
"%. c #974529",
"&. c #974A33",
"*. c #894E33",
"=. c #AB4A2B",
"-. c #A54528",
";. c #B44424",
":. c #BB4524",
">. c #B94B2B",
",. c #AC553B",
"<. c #BC5436",
"1. c #B1522E",
"2. c #B86E3B",
"3. c #C4451E",
"4. c #D04B1F",
"5. c #C54A25",
"6. c #CA4C25",
"7. c #CA4D2A",
"8. c #C54D2B",
"9. c #D34F23",
"0. c #CB522B",
"q. c #C95129",
"w. c #D45125",
"e. c #D3532B",
"r. c #DC552B",
"t. c #DC592E",
"y. c #D75525",
"u. c #CC5431",
"i. c #C75A34",
"p. c #D45B34",
"a. c #DC5A30",
"s. c #E25B2D",
"d. c #ED5D2E",
"f. c #E6582A",
"g. c #F05F2B",
"h. c #EC5E31",
"j. c #E25C31",
"k. c #F15B32",
"l. c #CB6535",
"z. c #C9673A",
"x. c #D86B38",
"c. c #C5773A",
"v. c #D3733D",
"b. c #ED602E",
"n. c #E7692D",
"m. c #FE6325",
"M. c #F2612E",
"N. c #FD652A",
"B. c #FB6B2A",
"V. c #F3652A",
"C. c #F9782E",
"Z. c #EB6131",
"A. c #E46834",
"S. c #F46130",
"D. c #F97931",
"F. c #F77834",
"G. c #E97031",
"H. c #B85D43",
"J. c #B5634B",
"K. c #B66953",
"L. c #B37B43",
"P. c #8E675C",
"I. c #C56649",
"U. c #D27B42",
"Y. c #C16C50",
"T. c #F0843E",
"R. c #D58143",
"E. c #F9994A",
"W. c #EA954D",
"Q. c #FBA957",
"!. c #FAAA59",
"~. c #F9A656",
"^. c #F0A557",
"/. c #387D83",
"(. c #4D7D85",
"). c #477A80",
"_. c #507A83",
"`. c #178383",
"'. c #1A9696",
"]. c #278989",
"[. c #38858A",
"{. c #3B8E94",
"}. c #2A979A",
"|. c #39969B",
" X c #3E9186",
".X c #339DA2",
"XX c #3B9EA3",
"oX c #219EA0",
"OX c #1EADAD",
"+X c #1BAFB1",
"@X c #1AB0B1",
"#X c #1BB8BA",
"$X c #1BB0AF",
"%X c #2DA3A5",
"&X c #2CAAAE",
"*X c #26A7A9",
"=X c #36A4A9",
"-X c #2BACB2",
";X c #24ADB2",
":X c #32AEB2",
">X c #22B9BB",
",X c #2ABABD",
"<X c #29B4B7",
"1X c #34B1B4",
"2X c #36B0AE",
"3X c #46868D",
"4X c #4B858D",
"5X c #48878C",
"6X c #51858D",
"7X c #528085",
"8X c #448A92",
"9X c #498A93",
"0X c #449595",
"qX c #518790",
"wX c #1FC0BF",
"eX c #25BEC2",
"rX c #2ABDC1",
"tX c #1BBEC0",
"yX c #1DC3C5",
"uX c #1CCACC",
"iX c #1CC7CA",
"pX c #1CD2D2",
"aX c #16D7D9",
"sX c #1ACFD1",
"dX c #22C2C5",
"fX c #22CCCD",
"gX c #26C4C7",
"hX c #24D0D2",
"jX c #17DFE1",
"kX c #14E3E5",
"lX c None",
/* pixels */
"lXlXlXlXlXlXlXlXlXlXlXlXlXlXlXlXlXlXlXlXlXlXlXlXlXlXlXlXlXlXlXlXlXlXlXlXlXlXlXlXlXlXlXlXlXlXlXlXlXlXlXlXlXlXlXlXlXlXlXlXlXlXlXlX",
"lXlXlXlXlXlXlXlXlXlXlXlXlXlXlXlXlXlXlXlXlXlXlXlXlXlXlXlXlXlXlXlXlXlXlXlXlXlXlXlXlXlXlXlXlXlXlXlXlXlXlXlXlXlXlXlXlXlXlXlXlXlXlXlX",
"lXlXlXlXlXlXlXlXlXlXlXlXlXlXlXlXlXlXlXlXlXlXlXlXlXlXlXlXlXlXlXlXlXlXlXlXlXlXlXlXlXlXlXlXlXlXlXlXlXlXlXlXlXlXlXlXlXlXlXlXlXlXlXlX",
"lXlXlXlXlXlXlXlXlXlXlXlXlXlXlXlXlXlXlXlXlXlXlXlXlXlXlXlXlXlXlXlXlXlXlXlXlXlXlXlXlXlXlXlXlXlXlXlXlXlXlXlXlXlXlXlXlXlXlXlXlXlXlXlX",
"lXlXlXlXlXlXlXlXlXlXlXlXlXlXlXlXlXlXlXlXlXlXlXlXlXlXlXlXlXlXlXlXlXlXlXlXlXlXlXlXlXlXlXlXlXlXlXlXlXlXlXlXlXlXlXlXlXlXlXlXlXlXlXlX",
"lXlXlXlXlXlXlXlXlXlXlXlXlXlXlXlXlXlXlXlXlXlXlXlXlXlXlXlXlXlXlXlXlXlXlXlXlXlXlXlXlXlXlXlXlXlXlXlXlXlXlXlXlXlXlXlXlXlXlXlXlXlXlXlX",
"lXlXlXlXlXlXlXlXlXlXlXlXlXlXlXlXlXlXlXlXlXlXlXlXlXlXlXlXlXlXlXlXlXlXlXlXlXlXlXlXlXlXlXlXlXlXlXlXlXlXlXlXlXlXlXlXlXlXlXlXlXlXlXlX",
"lXlXlXlXlXlXlXlXlXlXlXlXlXlXlXlXlXlXlXlXlXlXlXlXlXlXN N b b b b b 7 s ] %.%.h ` ] *.lXlXlXlXlXlXlXlXlXlXlXlXlXlXlXlXlXlXlXlXlXlX",
"lXlXlXlXlXlXlXlXlXlXlXlXlXlXlXlXlXlXlXlXlXlXD C C `.pXuX>X,X>X<X Xc $.G.F.U.( o.j.;.f c lXlXlXlXlXlXlXlXlXlXlXlXlXlXlXlXlXlXlXlX",
"lXlXlXlXlXlXlXlXlXlXlXlXlXlXlXlXlXlXm S '.'.&X<X<X<XwXsX-X5XP c =.f.T.E.W.0.E $.Z.5.T | =.lXlXlXlXlXlXlXlXlXlXlXlXlXlXlXlXlXlXlX",
"lXlXlXlXlXlXlXlXlXlXlXlXlXlXlXM M '.;X#XaXdX|.4X5X5XF <X}.H h y.B.C.T.T.Z.q.E X.S.6.R w.w.+.z lXlXlXlXlXlXlXlXlXlXlXlXlXlXlXlXlX",
"lXlXlXlXlXlXlXlXlXlXlXlXlXS `.uXtX%X|.XX%X,X<X[.V B , : 0 % E b.B.T.R.[ Z.7.E ..S.6.R 9.Z.@.s B lXlXlXlXlXlXlXlXlXlXlXlXlXlXlXlX",
"lXlXlXlXlXlXlXlXlXlXlXlXD }.,XyXyX%X3X(.P N Z n . O > # & g 3.V.B.E.c.~ n.w.W X.k.6.R w.a.' s Y D S lXlXlXlXlXlXlXlXlXlXlXlXlXlX",
"lXlXlXlXlXlXlXlXlXlXN ].%X0X8X8X=X;XD < 6 - O = 5 5 > > q [ B.m.C.E.2.~ b.y.W X.N.6.R w.s.} y s 5X%X].V lXlXlXlXlXlXlXlXlXlXlXlX",
"lXlXlXlXlXlXlXlXlXn #XeX.X4XqX6XL v , - = 5 > > > > > # j $.V.B.E.R.-.~ g.r.W X.S.5.R 9.Z...u ` J XXwXoX< lXlXlXlXlXlXlXlXlXlXlX",
"lXlXlXlXlXlXlXlXV C eXdX,X=XP B = - = 5 > 5 > > > : # w $.m.N.B.Q.v.[ ~ b.r.! ..h.;.T 9.d.#.! a.h ).gX$XC H lXlXlXlXlXlXlXlXlXlX",
"lXlXlXlXlXlXlXB Z hX.X3XXX/.< O = 5 > > > > > > > 5 & w $.N.m.B.~.U.' ! d.r.! ..h.;.T 9.d.o.! Z.Q G 5X2XgXn I lXlXlXlXlXlXlXlXlX",
"lXlXlXlXlXlX9 D >X.X4X4X).m + 5 > 5 > > 5 > > > > 5 # f 4.N.N.F.E.v.} ! S.r.W X.Z.:.T w.d.| ! s.] c 7X5X%X>Xb lXlXlXlXlXlXlXlXlX",
"lXlXlXlXlXlXA '.iX<X:X9Xv O = 5 5 > > > > > > > 5 & w 6.m.m.F.~.l.u.| ! d.e.W ..S.5.R 9.d...! b.q.h H 2X>XiX`.V lXlXlXlXlXlXlXlX",
"lXlXlXlXlX, OX,X.XrX1XN , o 5 5 > > > > 6 > > > 5 # t 9.m.m.C.~.l.0.| ~ h.8.E X.S.5.R 9.d...! b.y.` x 2X1X}.fX`.7 lXlXlXlXlXlXlX",
"lXlXlXlXlX: $XgX3X4X(.: O 5 > > > > > > > > > > > # t y.m.m.D.!.z.q.| ^ Z.8.E X.S.5.R 9.g...! b.f._ e 9 5X{.hX`.5 lXlXlXlXlXlXlX",
"lXlXlXlXI b *X2X8X7XV - O > > 6 > > 6 > > > > > > # t 4.N.b.y.U.1.-._ ! Z.q.E X.h.;.T w.f.| ! d.y._ @ = (.8X,X'.N lXlXlXlXlXlXlX",
"lXlXlXlX1 uXaXeXgX|.; o > > > > > > > > > > > > > # t w.y.X.$.$.X.X.^ E o.' i ..j.;.T 9.s.} ! Z.e./ @ < &XrXyXaXOX, lXlXlXlXlXlX",
"lXlXlXlX1 sXuX-X-X{.X o > > > > > > > > > > > > > # t w.{ [ b.t.e.l.u.3.3.5._ ~ { Q i 5.0.' ! b.e.` @ 4 =X:X-XaX@X: lXlXlXlXlXlX",
"lXlXlXlX1 fX-X4X4XK   - > > > > > > > > > > > > > # t w.$.o.w.$.-.J.K.i.u.i.p.r.e.8.^ ' [ E E 6.:.E @ > _.6X3XeX+X: lXlXlXlXlXlX",
"lXlXlXlX1 fX;X3X9XK   o > > > > > > > > > > > > > 8 t 9.N.y.[ u u ` ] ] %.K.H.<.<.I.p.t.t.6.{ o.{ E q 7 (.9X{.eX@X: lXlXlXlXlXlX",
"lXlXlXlX1 pXaXgXgX.XX - > > > > > > > > > > > > 5 # t w.m.m.G.c.-.E r r u ( ( ( @.J.1.>.J.I.p.t.p.7.' k 1XrXiXjX@X: lXlXlXlXlXlX",
"lXlXlXlX1 sXyX&X=X[.. o > > 6 5 6 > > > > > > > 5 # t 9.N.B.D.^.z.>.' W 5.W y u i d d d +.,.-.=.K.I.#.k 0X=X%XsX@X: lXlXlXlXlXlX",
"lXlXlXlX1 fX&X4X6XK   o 5 6 6 6 > > > > > > > > 5 # t w.N.N.G.R.i.u.| ~ Z.>.E ..6.E r Q E u u f @.%.g a P 6X6XgX@X: lXlXlXlXlXlX",
"lXlXlXlX1 wX-X8X3XL . = 7 > > 6 6 6 6 6 6 > 6 > 5 & w 5.B.N.G.2.z.u.] ( A.q.E X.b.;.E w.6./ i | E r @ , 3X9X8XgX@X: lXlXlXlXlXlX",
"lXlXlXlX4 @XiX'.'.].- > 7 o = > 7 6 = > > 7 > 6 6 # w $.y.M.G.R.I.=.h / A.q.E $.b.:.T w.s.' ! Z.:.d @ 3 <XfXfXkX@X: lXlXlXlXlXlX",
"lXlXlXlX2 pX;XD [.F O > 7 > > 6 7 > > 6 6 6 6 7 = & j q.V.N.A.2.*.k k ` Z.5.E X.M.5.R w.t.} ! Z.e.( @ , {.XX.XuX@X: lXlXlXlXlXlX",
"lXlXlXlX2 uX-X(._.V   = 7 5 = 6 6 6 6 6 > 5 > 7 0 & j y.B.B.A.L.x G G l A.7.E X.k.6.R w.s.} ! h.r.( @ - _.6X4XeX+X: lXlXlXlXlXlX",
"lXlXlXlX2 fX+X/.).F O - 7 6 = > 7 > 6 7 > > > 7 5 # w ;.w.Z.G.L.x U G l x.5.W X.S.6.R w.s.} ! g.s._ @ > 3X|.|.iX+X: lXlXlXlXlXlX",
"lXlXlXlX1 pXaX#X#X}.; = 6 6 6 6 6 > > 7 > 6 6 6 5 & t 5.M.B.F.^.J.x k ` h.p.W X.S.6.R w.k.#.! g.f._ @ 1 rXfXuXkX+X: lXlXlXlXlXlX",
"lXlXlXlX1 hX<X|.8XP   - 6 = > > 6 > > > > > > > 5 & t w.N.N.D.Q.2.c a W h.r.! X.h.5.T w.k.#.! k.s._ @ - 8X8X|.iX+X: lXlXlXlXlXlX",
"lXlXlXlX1 fX&X4XqXK   - 6 > > > > > > > > > > 5 5 & t w.N.N.C.Q.U.z a ( h.r.! X.h.;.T w.h...! b.e.( @ - _.(.8XeX+X: lXlXlXlXlXlX",
"lXlXlXlX1 sX>X=XXX/.  - > > > > > > > > > > > > 5 & t w.N.m.D.Q.I.l a W S.r.! X.h.:.T 9.j. .! Z.e.( @ , |.XX%XsX@X: lXlXlXlXlXlX",
"lXlXlXlX1 pXjXuXfX%XX - 6 > > 5 > > > > > > > > > & t w.N.m.T.!.z.l a E h.r.W X.S.6.R 9.s.} ! b.f._ @ 3 <XfXuXkX@X: lXlXlXlXlXlX",
"lXlXlXlX1 sX;X8X9XL   o > > > > > > > > > > > > > & t w.N.N.D.^.*.J J z h.r.! X.k.7.R e.r.} ! M.f._ @ - (.8X{.eX@X: lXlXlXlXlXlX",
"lXlXlXlX1 fX&X4XqXK + O > > > > > > > > > > > > > & t w.N.m.D.^.c U U c A.7.W X.S.6.R w.f.#.! d.s._ @ 0 (.6X5XwX@X: lXlXlXlXlXlX",
"lXlXlXlX1 pXyX&X:X[.. = 5 > > > > > > > > > > > > # t w.N.m.D.^.J U G h A.q.E X.S.5.R w.h...! d.s._ @ , |.=X&XaX@X: lXlXlXlXlXlX",
"lXlXlXlX1 pXaXeXgX.XX o > 5 = > > 6 > > > > > > > # t 9.N.m.C.Q.2.&.h ( b.q.E X.h.;.T 9.h.| ~ Z.e./ @ 1 1XdXdXjX@X: lXlXlXlXlXlX",
"lXlXlXlX1 uX;X3X3XK   o 5 > 6 5 > > > > 6 > > > > # t y.N.m.C.Q.l.q.;.^ d.e.W X.h.;.i e.j.} ! Z.6./ @ > 7X4X8XeX@X: lXlXlXlXlXlX",
"lXlXlXlX1 fX&X4X6XK + o > > > > > > > > > > > > > # t 9.B.m.C.Q.x.y.| ! M.r.! X.h.;.T e.e._ R 7.| ~ p s I 7X5XeX$X: lXlXlXlXlXlX",
"lXlXlXlX1 pXuX-X<X{.X = > > > > > > 6 > > > > > 5 # t y.N.m.C.Q.x.6.' ~ S.e.E $.s.' i | X.{ [ ..e.t.:.g k 0X2XaX@X: lXlXlXlXlXlX",
"lXlXlXlX1 pXsX,X,X|.X - 6 > > > > > > > > > > > > # t 9.N.m.D.Q.A.q.] W t. .d ^ X.:.$.3.u.p.t.p.I.H.>.-.k 0X,XaX@X: lXlXlXlXlXlX",
"lXlXlXlX1 uX-X5XqXK . = > > > > > > > > > > > > 5 # t y.N.V.n.W.<. .Q W o.6.9.6.0.p.e.p.Y.J.=.=.,.O.d l G 7X8XgX@X: lXlXlXlXlXlX",
"lXlXlXlX1 fX-X3XqXK   O > > > 5 > > > > > > > 5 > # t w.f.3.{ {  .5.r.r.e.I.i.8.J.K.-.} -.O.u u r r e = (.4X8XeX+X: lXlXlXlXlXlX",
"lXlXlXlX1 pXsXeXrX.XX - > > > > > 5 > > > 5 > > > # t e.o.[ g.f.a.I.H.<.<.K.&.] ] ` r y r r i | ' p @ < :XeXeXaX@X: lXlXlXlXlXlX",
"lXlXlXlX1 pXuX-X1X{.X o > > > > 5 5 5 5 > > > > > # t q.o.{ n.$.=.H.&./ ) ) u y i u u ..:.( W b.t.( @ , XX:X-XaX@X: lXlXlXlXlXlX",
"lXlXlXlX1 fX-X4X4XK   o 6 > > > 5 = 5 5 > > > > > # t y.g.4.[ d p p u u E T u | r.:.R w.h...! d.s._ @ : (.qX3XeX+X: lXlXlXlXlXlX",
"lXlXlXlX1 fX&X4X6XK   o > = 5 5 5 5 5 5 5 5 5 5 & # t 4.N.N.n.=.] _ d ! s.0.W X.S.5.R w.S...! h.9.( @ = _.6X3XrX+X, lXlXlXlXlXlX",
"lXlXlXlXI A M m m 9   O o o O o o o O o O o o o O $ t y.N.m.D.Q.x.e.} ~ M.r.W X.Z.5.R w.h...! h.7.` q o v v m N A lXlXlXlXlXlXlX",
"lXlXlXlXlXlXlXlXlXlXlXlXlXlXlXlXlXlXlXlXlXlXlXlXlXP.g q.N.m.C.Q.l.e.| ! d.r.W X.d.;.R w.s. .E 0.-.P.lXlXlXlXlXlXlXlXlXlXlXlXlXlX",
"lXlXlXlXlXlXlXlXlXlXlXlXlXlXlXlXlXlXlXlXlXlXlXlXlXlXh 6.N.m.C.Q.l.u...! h.f.W X.h.;.R e.7.@.` *.lXlXlXlXlXlXlXlXlXlXlXlXlXlXlXlX",
"lXlXlXlXlXlXlXlXlXlXlXlXlXlXlXlXlXlXlXlXlXlXlXlXlXlXg 9.N.m.D.Q.l.e.| ! k.e.W X.Z.;.d ' =.lXlXlXlXlXlXlXlXlXlXlXlXlXlXlXlXlXlXlX",
"lXlXlXlXlXlXlXlXlXlXlXlXlXlXlXlXlXlXlXlXlXlXlXlXlXlXg 9.m.m.D.Q.i.8.} ~ h.7.E | u.%.lXlXlXlXlXlXlXlXlXlXlXlXlXlXlXlXlXlXlXlXlXlX",
"lXlXlXlXlXlXlXlXlXlXlXlXlXlXlXlXlXlXlXlXlXlXlXlXlXlXg y.N.m.D.Q.z.>.' ^ Z.;.O.` &.lXlXlXlXlXlXlXlXlXlXlXlXlXlXlXlXlXlXlXlXlXlXlX",
"lXlXlXlXlXlXlXlXlXlXlXlXlXlXlXlXlXlXlXlXlXlXlXlXlXlXg 9.m.m.D.^.l.<.@.R =.&.lXlXlXlXlXlXlXlXlXlXlXlXlXlXlXlXlXlXlXlXlXlXlXlXlXlX",
"lXlXlXlXlXlXlXlXlXlXlXlXlXlXlXlXlXlXlXlXlXlXlXlXlXlXz 6.d.g.G.^.l.@.&.lXlXlXlXlXlXlXlXlXlXlXlXlXlXlXlXlXlXlXlXlXlXlXlXlXlXlXlXlX",
"lXlXlXlXlXlXlXlXlXlXlXlXlXlXlXlXlXlXlXlXlXlXlXlXlXlXlX&.] ] ] %.O.lXlXlXlXlXlXlXlXlXlXlXlXlXlXlXlXlXlXlXlXlXlXlXlXlXlXlXlXlXlXlX",
"lXlXlXlXlXlXlXlXlXlXlXlXlXlXlXlXlXlXlXlXlXlXlXlXlXlXlXlXlXlXlXlXlXlXlXlXlXlXlXlXlXlXlXlXlXlXlXlXlXlXlXlXlXlXlXlXlXlXlXlXlXlXlXlX",
"lXlXlXlXlXlXlXlXlXlXlXlXlXlXlXlXlXlXlXlXlXlXlXlXlXlXlXlXlXlXlXlXlXlXlXlXlXlXlXlXlXlXlXlXlXlXlXlXlXlXlXlXlXlXlXlXlXlXlXlXlXlXlXlX"
};
