/* XPM */
static char *dcd5ea89595e4549850a1e3de20c105bmBpUp5d4O5s9QTVv[] = {
/* columns rows colors chars-per-pixel */
"64 64 10 1 ",
"  c #073002",
". c #312C2C",
"X c #393333",
"o c #0A4E03",
"O c #227D19",
"+ c #474141",
"@ c #4E4646",
"# c #585151",
"$ c #878282",
"% c #939090",
/* pixels */
"OO  $$$$##......XX......................................##$$$$$$",
"OO  $$$$##......XX......................................##$$$$$$",
"OO  $$####..XXXXXX........................++++++++......##$$##$$",
"OO  $$####..XXXXXX........................++++++++......##$$##$$",
"OO    ##....++++++####$$##....####$$..XX++++++..XXXXXX......##$$",
"OO    ##....++++++####$$##....####$$..XX++++++..XXXXXX......##$$",
"OOoo  ......++++..$$$$$$####$$$$$$$$..XX++++........XXXX....##$$",
"OOoo  ......++++..$$$$$$####$$$$$$$$..XX++++........XXXX....##$$",
"OOoo  oo      ++..####$$$$$$##%%%%..........####$$$$..........##",
"OOoo  oo      ++..####$$$$$$##%%%%..........####$$$$..........##",
"OOoooooo  ++++++....##$$$$########........####$$$$$$##..XXXX....",
"OOoooooo  ++++++....##$$$$########........####$$$$$$##..XXXX....",
"OOOOoooo    ++++++..######............####$$$$$$$$$$##....XX....",
"OOOOoooo    ++++++..######............####$$$$$$$$$$##....XX....",
"OOOOoooo    XXXX++........XXXXXX......$$$$##$$%%%%$$..XX..XX....",
"OOOOoooo    XXXX++........XXXXXX......$$$$##$$%%%%$$..XX..XX....",
"OOOOOOOOoo        ..    ....++++++....##$$$$%%%%####..XX....##$$",
"OOOOOOOOoo        ..    ....++++++....##$$$$%%%%####..XX....##$$",
"OOOOooOOoooooooo        @@@@..XX++++..##$$%%%%%%$$##..XX....##$$",
"OOOOooOOoooooooo        @@@@..XX++++..##$$%%%%%%$$##..XX....##$$",
"OOoooo          ..  @@@@@@$$$$@@XX++XX..%%%%%%%%%%##..XXXX##$$$$",
"OOoooo          ..  @@@@@@$$$$@@XX++XX..%%%%%%%%%%##..XXXX##$$$$",
"OOoo  %%$$####....@@@@$$$$$$$$$$@@++XX..####$$$$$$XXXXXX..##$$$$",
"OOoo  %%$$####....@@@@$$$$$$$$$$@@++XX..####$$$$$$XXXXXX..##$$$$",
"OOoo    $$##......####%%%%%%%%$$@@........##########......######",
"OOoo    $$##......####%%%%%%%%$$@@........##########......######",
"OOOO      ##......##%%%%%%%%$$$$................................",
"OOOO      ##......##%%%%%%%%$$$$................................",
"OOOOoo    ##XX....##%%%%##@@$$@@..######......XXXXXX............",
"OOOOoo    ##XX....##%%%%##@@$$@@..######......XXXXXX............",
"OOOOoo  ..XXXXXX..##$$$$##........######....++XX..########$$##..",
"OOOOoo  ..XXXXXX..##$$$$##........######....++XX..########$$##..",
"OOOOOOoo  ......................##$$$$##....++XX..$$$$$$$$$$##..",
"OOOOOOoo  ......................##$$$$##....++XX..$$$$$$$$$$##..",
"OOOOOOoooo    ..................##$$$$##..XX++XX..%%%%%%%%####..",
"OOOOOOoooo    ..................##$$$$##..XX++XX..%%%%%%%%####..",
"OOOOoooo  ..##$$##..++++XXXX..##$$$$####..XX++XX..##%%%%$$##....",
"OOOOoooo  ..##$$##..++++XXXX..##$$$$####..XX++XX..##%%%%$$##....",
"OOOOOO    ##$$$$##..++++++..$$$$%%%%##....XXXXXX......######....",
"OOOOOO    ##$$$$##..++++++..$$$$%%%%##....XXXXXX......######....",
"OOOOoo    %%$$####....XX....$$%%%%%%##....XXXXXX......XX........",
"OOOOoo    %%$$####....XX....$$%%%%%%##....XXXXXX......XX........",
"OOOOoooo  %%$$##..............$$%%$$##XX..............XXXX......",
"OOOOoooo  %%$$##..............$$%%$$##XX..............XXXX......",
"OOOOOOoooo%%$$##......@@@@....$$$$..XXXX....$$######....XX++++XX",
"OOOOOOoooo%%$$##......@@@@....$$$$..XXXX....$$######....XX++++XX",
"OOOOoooo    ####..@@@@@@@@..........XX....$$$$$$$$##........++XX",
"OOOOoooo    ####..@@@@@@@@..........XX....$$$$$$$$##........++XX",
"OOOOoooo  oo    ..####$$$$####....XXXX..##$$$$%%####....XXXXXX..",
"OOOOoooo  oo    ..####$$$$####....XXXX..##$$$$%%####....XXXXXX..",
"OOOOOOoooooooo    ##$$%%$$######..++++##$$$$%%$$##......XX++XX..",
"OOOOOOoooooooo    ##$$%%$$######..++++##$$$$%%$$##......XX++XX..",
"OOOOOOooOOoo        $$%%%%$$$$##..++..####$$%%####....XX++++XX..",
"OOOOOOooOOoo        $$%%%%$$$$##..++..####$$%%####....XX++++XX..",
"OOOOOOOOoo    ....####$$%%%%$$##XX....##$$%%%%$$##..++XXXXXX..##",
"OOOOOOOOoo    ....####$$%%%%$$##XX....##$$%%%%$$##..++XXXXXX..##",
"OOOOOOoo  ++++++....####$$######XXXX....$$%%%%$$##..++XXXX..####",
"OOOOOOoo  ++++++....####$$######XXXX....$$%%%%$$##..++XXXX..####",
"OOoooo  ..XX++++XX......######....XX..............XXXX..########",
"OOoooo  ..XX++++XX......######....XX..............XXXX..########",
"OO    $$##..XX++XX..............XX++++XX..........XX....####$$$$",
"OO    $$##..XX++XX..............XX++++XX..........XX....####$$$$",
"OO  %%$$##....XXXXXX............XX++++++XXXXXXXXXXXX..####$$$$$$",
"OO  %%$$##....XXXXXX............XX++++++XXXXXXXXXXXX..####$$$$$$"
};
