/* XPM */
static char *_633098946143[] = {
/* columns rows colors chars-per-pixel */
"64 64 10 1 ",
"  c #073002",
". c #312C2C",
"X c #393333",
"o c #0A4E03",
"O c #227D19",
"+ c #474141",
"@ c #4E4646",
"# c #585151",
"$ c #878282",
"% c #939090",
/* pixels */
"OO  $$$$##......XX......................................##$$$$$$",
"OO  $$$$##......XX......................................##$$$$$$",
"OO  $$####..XXXXXX........................++++++++......##$$##$$",
"OO  $$####..XXXXXX........................++++++++......##$$##$$",
"OO    ##....++++++####$$##....####$$..XX++++++..XXXXXX......##$$",
"OO    ##....++++++####$$##....####$$..XX++++++..XXXXXX......##$$",
"OOoo  ......++++..$$$$$$####$$$$$$$$..XX++++........XXXX....##$$",
"OOoo  ......++++..$$$$$$####$$$$$$$$..XX++++........XXXX....##$$",
"OOoo  oo      ++..####$$$$$$##%%%%..........####$$$$..........##",
"OOoo  oo      ++..####$$$$$$##%%%%..........####$$$$..........##",
"OOoooooo  ++++++....##$$$$########........####$$$$$$##..XXXX....",
"OOoooooo  ++++++....##$$$$########........####$$$$$$##..XXXX....",
"OOOOoooo    ++++++..######............####$$$$$$$$$$##....XX....",
"OOOOoooo    ++++++..######............####$$$$$$$$$$##....XX....",
"OOOOoooo    XXXX++........XXXXXX......$$$$##$$%%%%$$..XX..XX....",
"OOOOoooo    XXXX++........XXXXXX......$$$$##$$%%%%$$..XX..XX....",
"OOOOOOOOoo        ..    ....++++++....##$$$$%%%%####..XX....##$$",
"OOOOOOOOoo        ..    ....++++++....##$$$$%%%%####..XX....##$$",
"OOOOooOOoooooooo        @@@@..XX++++..##$$%%%%%%$$##..XX....##$$",
"OOOOooOOoooooooo        @@@@..XX++++..##$$%%%%%%$$##..XX....##$$",
"OOoooo          ..  @@@@@@$$$$@@XX++XX..%%%%%%%%%%##..XXXX##$$$$",
"OOoooo          ..  @@@@@@$$$$@@XX++XX..%%%%%%%%%%##..XXXX##$$$$",
"OOoo  %%$$####....@@@@$$$$$$$$$$@@++XX..####$$$$$$XXXXXX..##$$$$",
"OOoo  %%$$####....@@@@$$$$$$$$$$@@++XX..####$$$$$$XXXXXX..##$$$$",
"OOoo    $$##......####%%%%%%%%$$@@........##########......######",
"OOoo    $$##......####%%%%%%%%$$@@........##########......######",
"OOOO      ##......##%%%%%%%%$$$$................................",
"OOOO      ##......##%%%%%%%%$$$$................................",
"OOOOoo    ##XX....##%%%%##@@$$@@..######......XXXXXX............",
"OOOOoo    ##XX....##%%%%##@@$$@@..######......XXXXXX............",
"OOOOoo  ..XXXXXX..##$$$$##........######....++XX..########$$##..",
"OOOOoo  ..XXXXXX..##$$$$##........######....++XX..########$$##..",
"OOOOOOoo  ......................##$$$$##....++XX..$$$$$$$$$$##..",
"OOOOOOoo  ......................##$$$$##....++XX..$$$$$$$$$$##..",
"OOOOOOoooo    ..................##$$$$##..XX++XX..%%%%%%%%####..",
"OOOOOOoooo    ..................##$$$$##..XX++XX..%%%%%%%%####..",
"OOOOoooo  ..##$$##..++++XXXX..##$$$$####..XX++XX..##%%%%$$##....",
"OOOOoooo  ..##$$##..++++XXXX..##$$$$####..XX++XX..##%%%%$$##....",
"OOOOOO    ##$$$$##..++++++..$$$$%%%%##....XXXXXX......######....",
"OOOOOO    ##$$$$##..++++++..$$$$%%%%##....XXXXXX......######....",
"OOOOoo    %%$$####....XX....$$%%%%%%##....XXXXXX......XX........",
"OOOOoo    %%$$####....XX....$$%%%%%%##....XXXXXX......XX........",
"OOOOoooo  %%$$##..............$$%%$$##XX..............XXXX......",
"OOOOoooo  %%$$##..............$$%%$$##XX..............XXXX......",
"OOOOOOoooo%%$$##......@@@@....$$$$..XXXX....$$######..  XX++++XX",
"OOOOOOoooo%%$$##......@@@@....$$$$..XXXX....$$######..  XX++++XX",
"OOOOoooo    ####..@@@@@@@@..........XX....$$$$$$$$  ..  ....++XX",
"OOOOoooo    ####..@@@@@@@@..........XX....$$$$$$$$  ..  ....++XX",
"OOOOoooo  oo    ..####$$$$####....XXXX..##$$$$%%##      XXXXXX..",
"OOOOoooo  oo    ..####$$$$####....XXXX..##$$$$%%##      XXXXXX..",
"OOOOOOoooooooo    ##$$%%$$######..++++  $$$$%%$$##  oo  XX++XX..",
"OOOOOOoooooooo    ##$$%%$$######..++++  $$$$%%$$##  oo  XX++XX..",
"OOOOOOooOOoo        $$%%%%$$$$##..++..  ##$$%%####  oo  ++++XX..",
"OOOOOOooOOoo        $$%%%%$$$$##..++..  ##$$%%####  oo  ++++XX..",
"OOOOOO  oo          ##$$%%%%$$##XX..    $$%%%%$$##..oo  XXXX  ##",
"OOOOOO  oo          ##$$%%%%$$##XX..    $$%%%%$$##..oo  XXXX  ##",
"OOOOOOOO  oooooo          ######XXXXoooo$$%%%%$$##..oooo        ",
"OOOOOOOO  oooooo          ######XXXXoooo$$%%%%$$##..oooo        ",
"OOOOOOOOOOOOOOoooooo        ##                  ooooooOOoo      ",
"OOOOOOOOOOOOOOoooooo        ##                  ooooooOOoo      ",
"OOOOOOOOOOOOOOOOOOOOoooo        oo  ooooooooOOOOOOooOOOOoooooo  ",
"OOOOOOOOOOOOOOOOOOOOoooo        oo  ooooooooOOOOOOooOOOOoooooo  ",
"OOOOOOOOOOOOOOOOOOOOOOOOOOOOooooOOOOOOOOOOOOooOOOOOOOOOOOOoooo  ",
"OOOOOOOOOOOOOOOOOOOOOOOOOOOOooooOOOOOOOOOOOOooOOOOOOOOOOOOoooo  "
};
