/* XPM */
static char *_633098954378[] = {
/* columns rows colors chars-per-pixel */
"64 64 10 1 ",
"  c #073002",
". c #312C2C",
"X c #393333",
"o c #0A4E03",
"O c #227D19",
"+ c #474141",
"@ c #4E4646",
"# c #585151",
"$ c #878282",
"% c #939090",
/* pixels */
"OOOOOOOOOOOOOOOOOOOOOOOOOOOOOOOOOOOOOOOOOOOOOOOOOOOOOOOOOOOOOOOO",
"OOOOOOOOOOOOOOOOOOOOOOOOOOOOOOOOOOOOOOOOOOOOOOOOOOOOOOOOOOOOOOOO",
"OOOOOOOOOOOOOOOOOOOOOOOOOOOOOOOOOOOOOOooooooOOOOOOOOoooooo      ",
"OOOOOOOOOOOOOOOOOOOOOOOOOOOOOOOOOOOOOOooooooOOOOOOOOoooooo      ",
"OOOOOOOOOOOOOOooooOOooooOOooOOOOoooo      ooooOOoooooo      $$$$",
"OOOOOOOOOOOOOOooooOOooooOOooOOOOoooo      ooooOOoooooo      $$$$",
"OOOOOOOO  oooooooooooo    oooooo        %%  OOOOoooooooo..####$$",
"OOOOOOOO  oooooooooooo    oooooo        %%  OOOOoooooooo..####$$",
"OOOOOO  ooOOoo    oo        oo  ..    $$$$  oooo        ....####",
"OOOOOO  ooOOoo    oo        oo  ..    $$$$  oooo        ....####",
"OOOOOOoo  oooooo  %%%%%%##..  ..XX########  oo      ++  ........",
"OOOOOOoo  oooooo  %%%%%%##..  ..XX########  oo      ++  ........",
"OOOOOOoo    oo  ##$$$$$$$$##  ..XXXX....##  oo  XX++++  ++++XX..",
"OOOOOOoo    oo  ##$$$$$$$$##  ..XXXX....##  oo  XX++++  ++++XX..",
"OOOOoooo        ########$$$$....XX........  oo  XX++++++++++XX..",
"OOOOoooo        ########$$$$....XX........  oo  XX++++++++++XX..",
"OOOOoo        ........######................    ++++......++XXXX",
"OOOOoo        ........######................    ++++......++XXXX",
"OOOOoo      ####@@..............########@@    ........##$$##....",
"OOOOoo      ####@@..............########@@    ........##$$##....",
"OOoo    ##$$$$##@@......++++....$$%%%%##@@@@    ..######$$##....",
"OOoo    ##$$$$##@@......++++....$$%%%%##@@@@    ..######$$##....",
"OOoo    $$%%%%$$@@@@..XX++++....$$%%%%%%$$@@    ..##$$$$$$$$....",
"OOoo    $$%%%%$$@@@@..XX++++....$$%%%%%%$$@@    ..##$$$$$$$$....",
"OO      %%%%$$$$@@@@....++XX....####%%%%$$@@@@....##$$$$####....",
"OO      %%%%$$$$@@@@....++XX....####%%%%$$@@@@....##$$$$####....",
"OO    ##%%$$####..........XX......@@%%%%$$$$@@..XX..##$$##......",
"OO    ##%%$$####..........XX......@@%%%%$$$$@@..XX..##$$##......",
"oo  ####$$$$####......$$$$........$$$$%%$$$$..++XX..####$$......",
"oo  ####$$$$####......$$$$........$$$$%%$$$$..++XX..####$$......",
"oo    ########....$$$$%%$$##......@@$$$$$$@@XX++XX..##%%$$##....",
"oo    ########....$$$$%%$$##......@@$$$$$$@@XX++XX..##%%$$##....",
"OOoo  XXXX........$$%%%%%%$$####......@@@@XX++++....##%%$$##....",
"OOoo  XXXX........$$%%%%%%$$####......@@@@XX++++....##%%$$##....",
"OO    XX..++++XX....$$%%%%$$$$$$####....++++++..........$$$$....",
"OO    XX..++++XX....$$%%%%$$$$$$####....++++++..........$$$$....",
"OOoo  oo  ..++XXXXXX########$$$$####....XXXX....................",
"OOoo  oo  ..++XXXXXX########$$$$####....XXXX....................",
"OOoo  oo      ....XXXX....##########........####$$##....XXXX....",
"OOoo  oo      ....XXXX....##########........####$$##....XXXX....",
"OOoo  $$$$##$$##........................##%%$$$$$$##....++++....",
"OOoo  $$$$##$$##........................##%%$$$$$$##....++++....",
"OOoo  %%%%$$$$$$$$....XXXXXXXX........####%%%%$$##$$##..++++++..",
"OOoo  %%%%$$$$$$$$....XXXXXXXX........####%%%%$$##$$##..++++++..",
"ooOO  %%%%%%%%$$$$$$..XXXX++++++++....##$$%%%%%%$$$$####..++++..",
"ooOO  %%%%%%%%$$$$$$..XXXX++++++++....##$$%%%%%%$$$$####..++++..",
"OOOO  $$$$##$$%%$$##..XXXXXXXXXXXXXX..##$$%%%%%%%%$$$$##....++..",
"OOOO  $$$$##$$%%$$##..XXXXXXXXXXXXXX..##$$%%%%%%%%$$$$##....++..",
"OOOOoo##########$$##..............XX..##$$%%$$##%%$$$$$$..XX++..",
"OOOOoo##########$$##..............XX..##$$%%$$##%%$$$$$$..XX++..",
"OOoooo....        ##......##%%$$##XX..##XX######$$$$$$$$..XX....",
"OOoooo....        ##......##%%$$##XX..##XX######$$$$$$$$..XX....",
"OOOOoooooooooo  ..........%%%%$$##......XX........####..XXXX....",
"OOOOoooooooooo  ..........%%%%$$##......XX........####..XXXX....",
"OOOOOOoo            XXXX##%%%%$$##......XXXXXXXXXX......XX......",
"OOOOOOoo            XXXX##%%%%$$##......XXXXXXXXXX......XX......",
"OOoooo  XX++XXXX..XXXX..##$$%%$$##........XX........XX......####",
"OOoooo  XX++XXXX..XXXX..##$$%%$$##........XX........XX......####",
"oooo    XX++++XX..++....######$$$$....######....XXXXXX......$$$$",
"oooo    XX++++XX..++....######$$$$....######....XXXXXX......$$$$",
"oooo      XXXXXX++++........######....##$$$$####........######$$",
"oooo      XXXXXX++++........######....##$$$$####........######$$",
"        ##......XXXX..................##$$$$$$$$......##$$$$$$$$",
"        ##......XXXX..................##$$$$$$$$......##$$$$$$$$"
};
