/* XPM */
static char *_633098937729[] = {
/* columns rows colors chars-per-pixel */
"64 64 10 1 ",
"  c #073002",
". c #312C2C",
"X c #393333",
"o c #0A4E03",
"O c #227D19",
"+ c #474141",
"@ c #4E4646",
"# c #585151",
"$ c #878282",
"% c #939090",
/* pixels */
"  ooooOOOOOOOOOOOOooOOOOOOOOOOOOooooOOOOOOOOOOOOOOOOOOOOOOOOOOOO",
"  ooooOOOOOOOOOOOOooOOOOOOOOOOOOooooOOOOOOOOOOOOOOOOOOOOOOOOOOOO",
"  ooooooOOOOooOOOOOOoooooooo  oo        ooooOOOOOOOOOOOOOOOOOOOO",
"  ooooooOOOOooOOOOOOoooooooo  oo        ooooOOOOOOOOOOOOOOOOOOOO",
"      ooOOoooooo                  ##        ooooooOOOOOOOOOOOOOO",
"      ooOOoooooo                  ##        ooooooOOOOOOOOOOOOOO",
"        oooo..##$$%%%%$$ooooXXXX######          oooooo  OOOOOOOO",
"        oooo..##$$%%%%$$ooooXXXX######          oooooo  OOOOOOOO",
"##  XXXX  oo..##$$%%%%$$    ..XX##$$%%%%$$##          oo  OOOOOO",
"##  XXXX  oo..##$$%%%%$$    ..XX##$$%%%%$$##          oo  OOOOOO",
"..XX++++  oo  ####%%$$##  ..++..##$$$$%%%%$$        ooOOooOOOOOO",
"..XX++++  oo  ####%%$$##  ..++..##$$$$%%%%$$        ooOOooOOOOOO",
"..XX++XX  oo  ##$$%%$$$$  ++++..######$$%%$$##    ooooooooOOOOOO",
"..XX++XX  oo  ##$$%%$$$$  ++++..######$$%%$$##    ooooooooOOOOOO",
"..XXXXXX      ##%%$$$$##..XXXX....####$$$$####..    oo  ooooOOOO",
"..XXXXXX      ##%%$$$$##..XXXX....####$$$$####..    oo  ooooOOOO",
"XX++....  ..  $$$$$$$$....XX..........@@@@@@@@..####    ooooOOOO",
"XX++....  ..  $$$$$$$$....XX..........@@@@@@@@..####    ooooOOOO",
"XX++++XX  ..######$$....XXXX..$$$$....@@@@......##$$%%ooooOOOOOO",
"XX++++XX  ..######$$....XXXX..$$$$....@@@@......##$$%%ooooOOOOOO",
"......XXXX..............XX##$$%%$$..............##$$%%  ooooOOOO",
"......XXXX..............XX##$$%%$$..............##$$%%  ooooOOOO",
"........XX......XXXXXX....##%%%%%%$$....XX....####$$%%    ooOOOO",
"........XX......XXXXXX....##%%%%%%$$....XX....####$$%%    ooOOOO",
"....######......XXXXXX....##%%%%$$$$..++++++..##$$$$##    OOOOOO",
"....######......XXXXXX....##%%%%$$$$..++++++..##$$$$##    OOOOOO",
"....##$$%%%%##..XX++XX..####$$$$##..XXXX++++..##$$##..  ooooOOOO",
"....##$$%%%%##..XX++XX..####$$$$##..XXXX++++..##$$##..  ooooOOOO",
"..####%%%%%%%%..XX++XX..##$$$$##..................    ooooOOOOOO",
"..####%%%%%%%%..XX++XX..##$$$$##..................    ooooOOOOOO",
"..##$$$$$$$$$$..XX++....##$$$$##......................  ooOOOOOO",
"..##$$$$$$$$$$..XX++....##$$$$##......................  ooOOOOOO",
"..##$$########..XX++....######........##$$$$##..XXXXXX..  ooOOOO",
"..##$$########..XX++....######........##$$$$##..XXXXXX..  ooOOOO",
"............XXXXXX......######..@@$$@@##%%%%##....XX##    ooOOOO",
"............XXXXXX......######..@@$$@@##%%%%##....XX##    ooOOOO",
"................................$$$$%%%%%%%%##......##      OOOO",
"................................$$$$%%%%%%%%##......##      OOOO",
"######......##########........@@$$%%%%%%%%####......##$$    ooOO",
"######......##########........@@$$%%%%%%%%####......##$$    ooOO",
"$$$$##..XXXXXX$$$$$$####..XX++@@$$$$$$$$$$@@@@....####$$%%  ooOO",
"$$$$##..XXXXXX$$$$$$####..XX++@@$$$$$$$$$$@@@@....####$$%%  ooOO",
"$$$$##XXXX..##%%%%%%%%%%..XX++XX@@$$$$@@@@@@  ..          ooooOO",
"$$$$##XXXX..##%%%%%%%%%%..XX++XX@@$$$$@@@@@@  ..          ooooOO",
"$$##....XX..##$$%%%%%%$$##..++++XX..@@@@        ooooooooOOooOOOO",
"$$##....XX..##$$%%%%%%$$##..++++XX..@@@@        ooooooooOOooOOOO",
"$$##....XX..####%%%%$$$$##....++++++....    ..        ooOOOOOOOO",
"$$##....XX..####%%%%$$$$##....++++++....    ..        ooOOOOOOOO",
"....XX..XX..$$%%%%$$##$$$$......XXXXXX........++XXXX    ooooOOOO",
"....XX..XX..$$%%%%$$##$$$$......XXXXXX........++XXXX    ooooOOOO",
"....XX....##$$$$$$$$$$####............######..++++++    ooooOOOO",
"....XX....##$$$$$$$$$$####............######..++++++    ooooOOOO",
"....XXXX..##$$$$$$####........########$$$$##....++++++  ooooooOO",
"....XXXX..##$$$$$$####........########$$$$##....++++++  ooooooOO",
"##..........$$$$####..........%%%%##$$$$$$####..++      oo  ooOO",
"##..........$$$$####..........%%%%##$$$$$$####..++      oo  ooOO",
"$$##....XXXX........++++XX..$$$$$$$$####$$$$$$..++++......  ooOO",
"$$##....XXXX........++++XX..$$$$$$$$####$$$$$$..++++......  ooOO",
"$$##......XXXXXX..++++++XX..$$####....##$$####++++++....##    OO",
"$$##......XXXXXX..++++++XX..$$####....##$$####++++++....##    OO",
"$$##$$##......++++++++........................XXXXXX..####$$  OO",
"$$##$$##......++++++++........................XXXXXX..####$$  OO",
"$$$$$$##......................................XX......##$$$$  OO",
"$$$$$$##......................................XX......##$$$$  OO"
};
