/* XPM */
static char *_633098923928[] = {
/* columns rows colors chars-per-pixel */
"64 64 10 1 ",
"  c #073002",
". c #312C2C",
"X c #393333",
"o c #0A4E03",
"O c #227D19",
"+ c #474141",
"@ c #4E4646",
"# c #585151",
"$ c #878282",
"% c #939090",
/* pixels */
"$$$$$$$$##......$$$$$$$$##..................XXXX......##        ",
"$$$$$$$$##......$$$$$$$$##..................XXXX......##        ",
"$$######........####$$$$##....######........++++XXXXXX      oooo",
"$$######........####$$$$##....######........++++XXXXXX      oooo",
"$$$$......XXXXXX....######....$$$$######....++..XX++++XX    oooo",
"$$$$......XXXXXX....######....$$$$######....++..XX++++XX    oooo",
"####......XX........XX........##$$%%$$##..XXXX..XXXX++XX  ooooOO",
"####......XX........XX........##$$%%$$##..XXXX..XXXX++XX  ooooOO",
"......XX......XXXXXXXXXX......##$$%%%%##XXXX            ooOOOOOO",
"......XX......XXXXXXXXXX......##$$%%%%##XXXX            ooOOOOOO",
"....XXXX..####........XX......##$$%%%%..........  ooooooooooOOOO",
"....XXXX..####........XX......##$$%%%%..........  ooooooooooOOOO",
"....XX..$$$$$$$$######XX##..XX##$$%%##......##        ....ooooOO",
"....XX..$$$$$$$$######XX##..XX##$$%%##......##        ....ooooOO",
"..++XX..$$$$$$%%##$$%%$$##..XX..............##$$##########ooOOOO",
"..++XX..$$$$$$%%##$$%%$$##..XX..............##$$##########ooOOOO",
"..++....##$$$$%%%%%%%%$$##..XXXXXXXXXXXXXX..##$$%%$$##$$$$  OOOO",
"..++....##$$$$%%%%%%%%$$##..XXXXXXXXXXXXXX..##$$%%$$##$$$$  OOOO",
"..++++..####$$$$%%%%%%$$##....++++++++XXXX..$$$$$$%%%%%%%%  OOoo",
"..++++..####$$$$%%%%%%$$##....++++++++XXXX..$$$$$$%%%%%%%%  OOoo",
"..++++++..##$$##$$%%%%####........XXXXXXXX....$$$$$$$$%%%%  ooOO",
"..++++++..##$$##$$%%%%####........XXXXXXXX....$$$$$$$$%%%%  ooOO",
"....++++....##$$$$$$%%##........................##$$##$$$$  ooOO",
"....++++....##$$$$$$%%##........................##$$##$$$$  ooOO",
"....XXXX....##$$####........##########....XXXX....      oo  ooOO",
"....XXXX....##$$####........##########....XXXX....      oo  ooOO",
"....................XXXX....####$$$$########XXXXXX++..  oo  ooOO",
"....................XXXX....####$$$$########XXXXXX++..  oo  ooOO",
"....$$$$..........++++++....####$$$$$$%%%%$$....XX++++..XX    OO",
"....$$$$..........++++++....####$$$$$$%%%%$$....XX++++..XX    OO",
"....##$$%%##....++++XX@@@@......####$$%%%%%%$$........XXXX  ooOO",
"....##$$%%##....++++XX@@@@......####$$%%%%%%$$........XXXX  ooOO",
"....##$$%%##..XX++XX@@$$$$$$@@......##$$%%$$$$....########    oo",
"....##$$%%##..XX++XX@@$$$$$$@@......##$$%%$$$$....########    oo",
"......$$####..XX++..$$$$%%$$$$........$$$$......####$$$$####  oo",
"......$$####..XX++..$$$$%%$$$$........$$$$......####$$$$####  oo",
"......##$$##..XX..@@$$$$%%%%@@......XX..........####$$%%##    OO",
"......##$$##..XX..@@$$$$%%%%@@......XX..........####$$%%##    OO",
"....####$$$$##....@@@@$$%%%%####....XX++....@@@@$$$$%%%%      OO",
"....####$$$$##....@@@@$$%%%%####....XX++....@@@@$$$$%%%%      OO",
"....$$$$$$$$##..    @@$$%%%%%%$$....++++XX..@@@@$$%%%%$$    ooOO",
"....$$$$$$$$##..    @@$$%%%%%%$$....++++XX..@@@@$$%%%%$$    ooOO",
"....##$$######..    @@@@##%%%%$$....++++......@@##$$$$##    ooOO",
"....##$$######..    @@@@##%%%%$$....++++......@@##$$$$##    ooOO",
"....##$$##........    @@########..............@@####      ooOOOO",
"....##$$##........    @@########..............@@####      ooOOOO",
"XXXX++......++++    ................######........        ooOOOO",
"XXXX++......++++    ................######........        ooOOOO",
"..XX++++++++++XX  oo  ........XX....$$$$########        ooooOOOO",
"..XX++++++++++XX  oo  ........XX....$$$$########        ooooOOOO",
"..XX++++  ++++XX  oo  ##....XXXX..  ##$$$$$$$$##  oo    ooOOOOOO",
"..XX++++  ++++XX  oo  ##....XXXX..  ##$$$$$$$$##  oo    ooOOOOOO",
"........  ++      oo  ########XX..  ..##%%%%%%  oooooo  ooOOOOOO",
"........  ++      oo  ########XX..  ..##%%%%%%  oooooo  ooOOOOOO",
"####....        oooo  $$$$    ..  oo        oo    ooOOoo  OOOOOO",
"####....        oooo  $$$$    ..  oo        oo    ooOOoo  OOOOOO",
"$$####..ooooooooOOOO  %%        oooooo    oooooooooooo  OOOOOOOO",
"$$####..ooooooooOOOO  %%        oooooo    oooooooooooo  OOOOOOOO",
"$$$$      ooooooOOoooo      ooooOOOOooOOooooOOooooOOOOOOOOOOOOOO",
"$$$$      ooooooOOoooo      ooooOOOOooOOooooOOooooOOOOOOOOOOOOOO",
"      ooooooOOOOOOOOooooooOOOOOOOOOOOOOOOOOOOOOOOOOOOOOOOOOOOOOO",
"      ooooooOOOOOOOOooooooOOOOOOOOOOOOOOOOOOOOOOOOOOOOOOOOOOOOOO",
"OOOOOOOOOOOOOOOOOOOOOOOOOOOOOOOOOOOOOOOOOOOOOOOOOOOOOOOOOOOOOOOO",
"OOOOOOOOOOOOOOOOOOOOOOOOOOOOOOOOOOOOOOOOOOOOOOOOOOOOOOOOOOOOOOOO"
};
