/* XPM */
static char *_c82924512dc47dbb4566490faf379ffEhTCmybG7SqhwyIi[] = {
/* columns rows colors chars-per-pixel */
"64 64 10 1 ",
"  c #073002",
". c #312C2C",
"X c #393333",
"o c #0A4E03",
"O c #227D19",
"+ c #474141",
"@ c #4E4646",
"# c #585151",
"$ c #878282",
"% c #939090",
/* pixels */
"$$$$$$$$##......$$$$$$$$##..................XXXX......######$$$$",
"$$$$$$$$##......$$$$$$$$##..................XXXX......######$$$$",
"$$######........####$$$$##....######........++++XXXXXX..####$$$$",
"$$######........####$$$$##....######........++++XXXXXX..####$$$$",
"$$$$......XXXXXX....######....$$$$######....++..XX++++XX..####$$",
"$$$$......XXXXXX....######....$$$$######....++..XX++++XX..####$$",
"####......XX........XX........##$$%%$$##..XXXX..XXXX++XXXX######",
"####......XX........XX........##$$%%$$##..XXXX..XXXX++XXXX######",
"......XX......XXXXXXXXXX......##$$%%%%##XXXX........XXXXXX....##",
"......XX......XXXXXXXXXX......##$$%%%%##XXXX........XXXXXX....##",
"....XXXX..####........XX......##$$%%%%................++++XX....",
"....XXXX..####........XX......##$$%%%%................++++XX....",
"....XX..$$$$$$$$######XX##..XX##$$%%##......######........XXXXXX",
"....XX..$$$$$$$$######XX##..XX##$$%%##......######........XXXXXX",
"..++XX..$$$$$$%%##$$%%$$##..XX..............##$$##########....XX",
"..++XX..$$$$$$%%##$$%%$$##..XX..............##$$##########....XX",
"..++....##$$$$%%%%%%%%$$##..XXXXXXXXXXXXXX..##$$%%$$##$$$$....XX",
"..++....##$$$$%%%%%%%%$$##..XXXXXXXXXXXXXX..##$$%%$$##$$$$....XX",
"..++++..####$$$$%%%%%%$$##....++++++++XXXX..$$$$$$%%%%%%%%....XX",
"..++++..####$$$$%%%%%%$$##....++++++++XXXX..$$$$$$%%%%%%%%....XX",
"..++++++..##$$##$$%%%%####........XXXXXXXX....$$$$$$$$%%%%....XX",
"..++++++..##$$##$$%%%%####........XXXXXXXX....$$$$$$$$%%%%....XX",
"....++++....##$$$$$$%%##........................##$$##$$$$....XX",
"....++++....##$$$$$$%%##........................##$$##$$$$....XX",
"....XXXX....##$$####........##########....XXXX....######....XX++",
"....XXXX....##$$####........##########....XXXX....######....XX++",
"....................XXXX....####$$$$########XXXXXX++........++++",
"....................XXXX....####$$$$########XXXXXX++........++++",
"....$$$$..........++++++....####$$$$$$%%%%$$....XX++++..XXXX++++",
"....$$$$..........++++++....####$$$$$$%%%%$$....XX++++..XXXX++++",
"....##$$%%##....++++XX@@@@......####$$%%%%%%$$........XXXX..XXXX",
"....##$$%%##....++++XX@@@@......####$$%%%%%%$$........XXXX..XXXX",
"....##$$%%##..XX++XX@@$$$$$$@@......##$$%%$$$$....########......",
"....##$$%%##..XX++XX@@$$$$$$@@......##$$%%$$$$....########......",
"......$$####..XX++..$$$$%%$$$$........$$$$......####$$$$####....",
"......$$####..XX++..$$$$%%$$$$........$$$$......####$$$$####....",
"......##$$##..XX..@@$$$$%%%%@@......XX..........####$$%%####....",
"......##$$##..XX..@@$$$$%%%%@@......XX..........####$$%%####....",
"....####$$$$##....@@@@$$%%%%####....XX++....@@@@$$$$%%%%$$##....",
"....####$$$$##....@@@@$$%%%%####....XX++....@@@@$$$$%%%%$$##....",
"....$$$$$$$$##..    @@$$%%%%%%$$....++++XX..@@@@$$%%%%$$##......",
"....$$$$$$$$##..    @@$$%%%%%%$$....++++XX..@@@@$$%%%%$$##......",
"....##$$######..    @@@@##%%%%$$....++++......@@##$$$$####......",
"....##$$######..    @@@@##%%%%$$....++++......@@##$$$$####......",
"....##$$##........    @@########..............@@####  ##......XX",
"....##$$##........    @@########..............@@####  ##......XX",
"XXXX++......++++    ................######........    ....XXXXXX",
"XXXX++......++++    ................######........    ....XXXXXX",
"..XX++++++++++XX  oo  ........XX....$$$$########      ..++++++XX",
"..XX++++++++++XX  oo  ........XX....$$$$########      ..++++++XX",
"..XX++++  ++++XX  oo  ##....XXXX..  ##$$$$$$$$##  oo    ++++XX..",
"..XX++++  ++++XX  oo  ##....XXXX..  ##$$$$$$$$##  oo    ++++XX..",
"........  ++      oo  ########XX..  ..##%%%%%%  oooooo  ++XX....",
"........  ++      oo  ########XX..  ..##%%%%%%  oooooo  ++XX....",
"####....        oooo  $$$$    ..  oo        oo    ooOOoo  ..####",
"####....        oooo  $$$$    ..  oo        oo    ooOOoo  ..####",
"$$####..ooooooooOOOO  %%        oooooo    ooooooooooooOOoo  $$$$",
"$$####..ooooooooOOOO  %%        oooooo    ooooooooooooOOoo  $$$$",
"$$$$      ooooooOOoooo      ooooOOOOooOOooooOOooooOOOOOOOOoo  %%",
"$$$$      ooooooOOoooo      ooooOOOOooOOooooOOooooOOOOOOOOoo  %%",
"      ooooooOOOOOOOOooooooOOOOOOOOOOOOOOOOOOOOOOOOOOOOOOOOoo    ",
"      ooooooOOOOOOOOooooooOOOOOOOOOOOOOOOOOOOOOOOOOOOOOOOOoo    ",
"OOOOOOOOOOOOOOOOOOOOOOOOOOOOOOOOOOOOOOOOOOOOOOOOOOOOOOOOOOOOOOOO",
"OOOOOOOOOOOOOOOOOOOOOOOOOOOOOOOOOOOOOOOOOOOOOOOOOOOOOOOOOOOOOOOO"
};
