/* XPM */
static char *_633098915344[] = {
/* columns rows colors chars-per-pixel */
"64 64 10 1 ",
"  c #073002",
". c #312C2C",
"X c #393333",
"o c #0A4E03",
"O c #227D19",
"+ c #474141",
"@ c #4E4646",
"# c #585151",
"$ c #878282",
"% c #939090",
/* pixels */
"OOOOOOOOOOOOOOOOOOOOOOOOOOOOOOOOOOOOOOOOOOOOOOOOOOOOOOOOOOOOOOOO",
"OOOOOOOOOOOOOOOOOOOOOOOOOOOOOOOOOOOOOOOOOOOOOOOOOOOOOOOOOOOOOOOO",
"    ooOOOOOOOOOOOOOOOOOOOOOOOOOOOOOOOOooooooOOOOOOOOoooooo      ",
"    ooOOOOOOOOOOOOOOOOOOOOOOOOOOOOOOOOooooooOOOOOOOOoooooo      ",
"%%  ooOOOOOOOOooooOOooooOOooOOOOoooo      ooooOOoooooo      $$$$",
"%%  ooOOOOOOOOooooOOooooOOooOOOOoooo      ooooOOoooooo      $$$$",
"$$$$  ooOOoooooooooooo    oooooo        %%  OOOOoooooooo..####$$",
"$$$$  ooOOoooooooooooo    oooooo        %%  OOOOoooooooo..####$$",
"####..  ooOOoo    oo        oo  ..    $$$$  oooo        ....####",
"####..  ooOOoo    oo        oo  ..    $$$$  oooo        ....####",
"....XX++  oooooo  %%%%%%##..  ..XX########  oo      ++  ........",
"....XX++  oooooo  %%%%%%##..  ..XX########  oo      ++  ........",
"..XX++++    oo  ##$$$$$$$$##  ..XXXX....##  oo  XX++++  ++++XX..",
"..XX++++    oo  ##$$$$$$$$##  ..XXXX....##  oo  XX++++  ++++XX..",
"XX++++++..      ########$$$$....XX........  oo  XX++++++++++XX..",
"XX++++++..      ########$$$$....XX........  oo  XX++++++++++XX..",
"XXXXXX....    ........######................    ++++......++XXXX",
"XXXXXX....    ........######................    ++++......++XXXX",
"XX......##  ####@@..............########@@    ........##$$##....",
"XX......##  ####@@..............########@@    ........##$$##....",
"......####$$$$##@@......++++....$$%%%%##@@@@    ..######$$##....",
"......####$$$$##@@......++++....$$%%%%##@@@@    ..######$$##....",
"......##$$%%%%$$@@@@..XX++++....$$%%%%%%$$@@    ..##$$$$$$$$....",
"......##$$%%%%$$@@@@..XX++++....$$%%%%%%$$@@    ..##$$$$$$$$....",
"....##$$%%%%$$$$@@@@....++XX....####%%%%$$@@@@....##$$$$####....",
"....##$$%%%%$$$$@@@@....++XX....####%%%%$$@@@@....##$$$$####....",
"....####%%$$####..........XX......@@%%%%$$$$@@..XX..##$$##......",
"....####%%$$####..........XX......@@%%%%$$$$@@..XX..##$$##......",
"....####$$$$####......$$$$........$$$$%%$$$$..++XX..####$$......",
"....####$$$$####......$$$$........$$$$%%$$$$..++XX..####$$......",
"......########....$$$$%%$$##......@@$$$$$$@@XX++XX..##%%$$##....",
"......########....$$$$%%$$##......@@$$$$$$@@XX++XX..##%%$$##....",
"XXXX..XXXX........$$%%%%%%$$####......@@@@XX++++....##%%$$##....",
"XXXX..XXXX........$$%%%%%%$$####......@@@@XX++++....##%%$$##....",
"++++XXXX..++++XX....$$%%%%$$$$$$####....++++++..........$$$$....",
"++++XXXX..++++XX....$$%%%%$$$$$$####....++++++..........$$$$....",
"++++........++XXXXXX########$$$$####....XXXX....................",
"++++........++XXXXXX########$$$$####....XXXX....................",
"++XX....######....XXXX....##########........####$$##....XXXX....",
"++XX....######....XXXX....##########........####$$##....XXXX....",
"XX....$$$$##$$##........................##%%$$$$$$##....++++....",
"XX....$$$$##$$##........................##%%$$$$$$##....++++....",
"XX....%%%%$$$$$$$$....XXXXXXXX........####%%%%$$##$$##..++++++..",
"XX....%%%%$$$$$$$$....XXXXXXXX........####%%%%$$##$$##..++++++..",
"XX....%%%%%%%%$$$$$$..XXXX++++++++....##$$%%%%%%$$$$####..++++..",
"XX....%%%%%%%%$$$$$$..XXXX++++++++....##$$%%%%%%$$$$####..++++..",
"XX....$$$$##$$%%$$##..XXXXXXXXXXXXXX..##$$%%%%%%%%$$$$##....++..",
"XX....$$$$##$$%%$$##..XXXXXXXXXXXXXX..##$$%%%%%%%%$$$$##....++..",
"XX....##########$$##..............XX..##$$%%$$##%%$$$$$$..XX++..",
"XX....##########$$##..............XX..##$$%%$$##%%$$$$$$..XX++..",
"XXXXXX........######......##%%$$##XX..##XX######$$$$$$$$..XX....",
"XXXXXX........######......##%%$$##XX..##XX######$$$$$$$$..XX....",
"....XX++++................%%%%$$##......XX........####..XXXX....",
"....XX++++................%%%%$$##......XX........####..XXXX....",
"##....XXXXXX........XXXX##%%%%$$##......XXXXXXXXXX......XX......",
"##....XXXXXX........XXXX##%%%%$$##......XXXXXXXXXX......XX......",
"######XXXX++XXXX..XXXX..##$$%%$$##........XX........XX......####",
"######XXXX++XXXX..XXXX..##$$%%$$##........XX........XX......####",
"$$####..XX++++XX..++....######$$$$....######....XXXXXX......$$$$",
"$$####..XX++++XX..++....######$$$$....######....XXXXXX......$$$$",
"$$$$####..XXXXXX++++........######....##$$$$####........######$$",
"$$$$####..XXXXXX++++........######....##$$$$####........######$$",
"$$$$######......XXXX..................##$$$$$$$$......##$$$$$$$$",
"$$$$######......XXXX..................##$$$$$$$$......##$$$$$$$$"
};
