/* XPM */
static char *result[] = {
/* columns rows colors chars-per-pixel */
"64 64 36 1 ",
"  c #504743",
". c #534A46",
"X c #564D49",
"o c #584F4B",
"O c #5A514E",
"+ c #5E5551",
"@ c #605754",
"# c #635A56",
"$ c #655D5A",
"% c #685F5C",
"& c #6A615E",
"* c #6D6562",
"= c #6F6865",
"- c #706765",
"; c #716866",
": c #756C6A",
"> c #786F6D",
", c #79706E",
"< c #7D7473",
"1 c #7F7877",
"2 c #807777",
"3 c #817877",
"4 c #837B7A",
"5 c #887F7F",
"6 c #87807F",
"7 c #878080",
"8 c #8C8484",
"9 c #8F8788",
"0 c #8F8888",
"q c #928C8B",
"w c #94908F",
"e c #968F90",
"r c #979191",
"t c #9A9494",
"y c #9E9999",
"u c #A09B9B",
/* pixels */
"XXX........  .+&28euuur4;OX ..X. X+:6ryyuq62&O     . .... ...X.X",
"XXXXX..XX.X..X+*29euurw4;+X..XX..X+=1ryyue92*+o XXXo.oX.XXXXXXXX",
"XXXXOOO+OOOoo+$*27qtru94:#OOXXX. X+*10ttu972-#OoOOOOO+OOO@Oooo.X",
"XXXO+#%%%%$$$%&:37qqeq94,*#OOXX..X+*100re983:*%%%#%%$$$%$$#@Oo..",
".XO+%*--;::;;::<358990661>;$+OX ..+%<7009774<::;;;-;-;*-:--$@o..",
".XO#*,<41<<<<<<14555566431,*#OX...+%:177555422<<222>222222>-#oX.",
" .O$:<44422222243334334443<;$OX...o%:144332222222222222222>-$@oo",
".XO%:144421<<<<<,<<,<,,<<<,*#OX...+%=<442<<<<2<<22222222222;&#@O",
" X+$:2442,,>>>>>>>:::>,,>>:*++....+%:<41<,>:>>>>>>>,>>>,>>>-&$$%",
" XO$:<2<,:;-----;;;;;;;;;**%+oX..X+%;<4<>;--;;;;;;;;;;;;-----&&%",
".X+$*,<>;*&&&&*&***&&&&&*&%#+oX...o#=><<:-**&&&&&&&&&&&&%%&&&&&&",
".Xo+%***%$#@##$%&&&&&####@++oX....++%*=;-**&%$$########@######%%",
"X.oO+##+@+o++++$&&&&$+++++OXX....XoO+#%%**&%#@+++O++OOOOO+O@O+++",
"XXXXoO+OooooooO@$*&&+OooXoooooXX.Xooo++#%&&%@+ooOoooOoOoooooOOoo",
".XXoO++@@@+ooXo+$&&$+oXoo+++++++oo...Xo+#%%#+oX..XoOO+@#@@+oooo.",
".XX+$%**--*$+oXo++++ooX+$*=:**&#+o.. ..O+#@+o.....OO$*;;;;*#+o. ",
" .o#*><4441=#+X.O++oXXO$=14441,*$o.   XXOOOOX.....O&:<17741=$o. ",
".X+&>49qeq81*+X.XooX.X+*<8qeq05>&+X..XXXXXOXXX....O&18rrrw8<*+X ",
"o+#-<8qttt93:#+XXXXXo++:4ettte81*#+oo+O++OOO++OXXX#*10tyytw1=$+o",
"$$&:28qereq5,*$+oooo++*<79ete081>*%$$$%$%%$%%%%+OO+&10rttr06,*%#",
"-:><488999852>-%+oo+$=:158999954<,:;:;::;;::::-%OO+&,69qe9841>==",
"<<224455555542>-#O++*>14455555442<<<<2<<<<<11<,*#OO&:15557541111",
"44442222222222>&+++$;<44422222224242222222121<>*#OO#:<4441111111",
"55442<<<>22>>:-$+o+%:<742<<<<<<<<<<<<2<2<<<<,>*%#OO$;1441<<<<<<1",
"55422:::>>:-*&$@+o+%:244<>>:::,>>:>>>>>>>>>:*&#+OXO%:<44<>>:>>:>",
"4422>:----*%#@Oo.X+$:<2<,:--;*;--;-----:;**%#++XXXO%-<2<,;-*----",
"2<<>:-**&&%#Oo....o$-><:;*&&&&&&****&&&&**%#+oX..XO$;><>;*&%****",
"-::--*&&%$@Oo.. .Xo+%*-*&$$$$$$%&**&&$#$#%++oX....o+%*;**%%%%**;",
"$$$&&-&&#+oo.....oo++$$$+++++++$%*&%$@+++++oo.....Xo@#$#@@@#%***",
"OO+#$&&&#OooXoXX..XooOO+OOooXo++%&&%@OooooXooXX..XXooOOOoOO@%&*-",
"..o+#$&$#@@++@+Ooo.X.X..XXX..Xo+$%%#+oX..XXX..ooo+++OXXXXXoO#%%*",
"..oo+@$$&&&-*&&#+o............X+@##+oX........o+%**%+X   XXo@@#$",
"..XXoO+#2335332*#o.     ... ..Xoo++ooX.....  Xo%:11:$o.  ..Xo++O",
"XXXXXo+#25669632%+oXX.ooXXXXXXXXooooXXXX.XX..X@-4771*+X..XXXoooo",
"XXXXXO+223eeeq64;#+oOO+OOOOooXXXX.Xoooo+O+Ooo@#;7eq4;%+Oo+o+O++O",
".XoO+#@2356eeq63>-$#%%%$%%%+OoX...Xo@$$%%%$$$$-<7007,*%#%%%$%$%%",
".XO+#2&2356666652>;;-;:;:--%+oX...o+%--:;;:;;;>240951>-:;::;;;::",
".XO#%&23356654552222>22222>-$OX..XO#->22222<222244441<<<<<<<<<<<",
".XO$22443354322222222222222*$OoXX+#&-222223322221141414442<11<<<",
".XO%23433223:22222>2222222>*#OoO+$&-:>22222>22221<<<<<<<1<<<>>::",
"..O%22332::::>2;>>>>>>>>2:;&+oo+%-:>>>>>>>>>>>>>>>:>>,>,,,::*&%$",
"..O%*2322:*;;;;;--;;;;--;;*$@oO#*>2>::-----:;;;;--------;-*%#++O",
"..O#&222-*&&%&&&%*&*&&&***&#+OO$*>>>:*&%&&&&%&&%&&&&&&&&&&%@+XX.",
".XO@$&&#&%#$#$$#######%&&*&#OoO@$--*%$@$#$##$$$##%$##%$#$@@+XX  ",
"XXoO+###@++++++O+++OO++%%&&#+ooO##$#+++o++@+++@@+@++++++++OoX. .",
"XXXooOOOOooooooooooooOO+%&&%+oXXOOOOOooXoXooXXoXooXoooooXOooXXXX",
" XXoO@@OooXXXXXXXXo..Xo+#%%#OOooO++@+@@+oXXXXXXXXXXXXXXXO+++@@+@",
" Xo+%&&%Oo....X..... .XO+##OoooO#$**--*$@X...X...... .X+$%*-*---",
" Xo$:<<:$o....X. .X  .XXoO+XXXo#*,1466<:$o........X...o#->235445",
" o@*2874*+X...XXXXXXXXXXoooXXoO&,40qq081*@...XXXXXX...+%>78qqqeq",
"oO#25q95:++XXXXXo+o+++o++++ooO$*<8wrrr04-$+XXXXX.XXXoO#-<8qetttt",
"###25995<*&+OooO@$%%$$%$$$$$$%*;480qq072:*$@oo...XXo+$*:48qerrrt",
";;2235851>*$+oO+%;;;;;*&;;*;;;;248864441,;-&#oX...X@%-:245899000",
"2233454441,*++++;;333232332>23224443<,:><<,*#oX..X+#*>2445455555",
"3354333241<=++++&223332232323232333,:--:<<<=$+XXXo#%:<22444<1141",
"55433222<<,=$O++%;;;222232222222<<,>----><,*#+oo@$&::,<2<<<<,<<<",
"5542<,>:>>:&@OXO@$&;;:22;2:22::2>::;;**;>:;%#oo#%;:>>>>>:>>::>:>",
"543<>;;;-;*%@OXXoO+#&*;;;;;;&;;;;;--***;;;-$@oo$->,<>;;;;;;;;---",
"2<,>;**&**$@+oXX.XoO#%&&&&&&&&&&&&&&*****%$#ooO#->,>;-&&%%**&*&&",
";;-*%%####@+OXX...oo@@############%&&**&%$#@ooo#%-;;&###$#######",
"%%$#@+++++OOoXXX.XXoOO+@@+++++O+++@#&&*&#@oooXX+@%$#@@++O++O++++",
"OOOooXooXooXXXXXXX.oooooooooooooooO@$&&$@+oX.X.oooo+oooooooooooo",
"XXXXXXXXXXXXX..XX.XX.XXX.o.XXXXX.Xo@$&&$@oXX.XXXXXXXXX.XXXXXXXXX",
" ..X...X.X.X.XXXXX.X...X..........X+$&&$@o...XX...... XX.XX..X.."
};
