/* XPM */
static char *result[] = {
/* columns rows colors chars-per-pixel */
"64 64 8 1 ",
"  c #34353B",
". c #404147",
"X c #5A5A5F",
"o c #66676C",
"O c #808085",
"+ c #8C8D91",
"@ c #A6A6A9",
"# c None",
/* pixels */
"################################################################",
"################################################################",
"################################################################",
"################################################################",
"####################+oooooooo+##################################",
"####################o        X@#################################",
"####################o        .X+################################",
"####################o  .XooX.  X@###############################",
"####################o  X@##@X  .Xoo+################++##########",
"####################o.X+####o      X@###############O+##########",
"####################oX@#####o      .X+############+O############",
"####################oX@#####OX.    .X+############O+############",
"####################o.X+##+O#@X    X@###########+O##############",
"####################o.X+##++##o    X@###########O+##############",
"####################oX@#######o    .X+########+O################",
"####################oo########o      X@#######O+################",
"####################oo########o      .X+####+O##################",
"####################+O#######@X        o####O+##################",
"######################O+####+X.        o##+O####################",
"######################+O###@X          X@#O+####################",
"########################OooX.          .XO######################",
"########################o.XooX.          X@#####################",
"########################oX@##@X          .X+####################",
"########################oo####+X.          o####################",
"########################oo#####@X          o####################",
"########################oo######o          o####################",
"########################oo######o          o####################",
"########################oo#####@X.XX.      X@###################",
"########################oo####+X.X@@X      .X+##################",
"########################oo####OX.o##o        o##################",
"########################oo##+O#@Xo##o        o##################",
"########################oX@#O+##oo##o        o##################",
"########################o.XO####oo##o        o##################",
"########################o.X+####oo##o        o##################",
"########################oX@#####oo##o        o##################",
"########################O+######oo##o        X@#################",
"######################+O########oo##o        .X+################",
"######################O+########++##o          o################",
"####################+O##############o          o################",
"####################O+##############+X.        o################",
"##################+O#################@X        o################",
"##################O+#################@X        o################",
"##############+ooO##################+X.        o################",
"##############o  X@#################o          o################",
"##############o  .X+################o          o################",
"##############+X.  X@###############o          X@###############",
"###############@X  .X+##############o          .X+##############",
"################+X.  X@############@X            o##############",
"#################@X  .X+##########+X.            o##############",
"##################+ooX.X@#########o            .X+##############",
"#####################@X.Xoo+######o            X@###############",
"######################+oooo+#####@X            o################",
"################################+X.            o################",
"################################o              X@###############",
"################################o              .X+##############",
"###############################@X                o##############",
"######################+oooo+##+X.                o##++##########",
"######################+X.  X@@X              .XX.X@#O+##########",
"############+oo+##++###@X  .XX.              X@@X.XO############",
"###########@X.X+##+O####+ooX.                X@#OooO############",
"##########+X.X@#####O+#####@X                .XO####O+##########",
"##########+ooO#####@XX@####@X                  X@###oo##########",
"######++######OooooX..XooooX.                  .X+##oo##+oo+####",
"######oo######o                                  o##oo##o  o####"
};
