/* XPM */
static char *result[] = {
/* columns rows colors chars-per-pixel */
"64 64 8 1 ",
"  c #34353B",
". c #404147",
"X c #5A5A5F",
"o c #66676C",
"O c #808085",
"+ c #8C8D91",
"@ c #A6A6A9",
"# c None",
/* pixels */
"################################################################",
"################################################################",
"################################################################",
"################################################################",
"##################################+oooooooo+####################",
"#################################@X        o####################",
"################################+X.        o####################",
"###############################@X  .XooX.  o####################",
"##########++################+ooX.  X@##@X  o####################",
"##########+O###############@X      o####+X.o####################",
"############O+############+X.      o#####@Xo####################",
"############+O############+X.    .XO#####@Xo####################",
"##############O+###########@X    X@#O+##+X.o####################",
"##############+O###########@X    o##++##+X.o####################",
"################O+########+X.    o#######@Xo####################",
"################+O#######@X      o########oo####################",
"##################O+####+X.      o########oo####################",
"##################+O####o        X@#######O+####################",
"####################O+##o        .X+####+O######################",
"####################+O#@X          X@###O+######################",
"######################OX.          .XooO########################",
"#####################@X          .XooX.o########################",
"####################+X.          X@##@Xo########################",
"####################o          .X+####oo########################",
"####################o          X@#####oo########################",
"####################o          o######oo########################",
"####################o          o######oo########################",
"###################@X      .XX.X@#####oo########################",
"##################+X.      X@@X.X+####oo########################",
"##################o        o##o.XO####oo########################",
"##################o        o##oX@#O+##oo########################",
"##################o        o##oo##+O#@Xo########################",
"##################o        o##oo####OX.o########################",
"##################o        o##oo####+X.o########################",
"##################o        o##oo#####@Xo########################",
"#################@X        o##oo######+O########################",
"################+X.        o##oo########O+######################",
"################o          o##++########+O######################",
"################o          o##############O+####################",
"################o        .X+##############+O####################",
"################o        X@#################O+##################",
"################o        X@#################+O##################",
"################o        .X+##################Ooo+##############",
"################o          o#################@X  o##############",
"################o          o################+X.  o##############",
"###############@X          o###############@X  .X+##############",
"##############+X.          o##############+X.  X@###############",
"##############o            X@############@X  .X+################",
"##############o            .X+##########+X.  X@#################",
"##############+X.            o#########@X.Xoo+##################",
"###############@X            o######+ooX.X@#####################",
"################o            X@#####+oooo+######################",
"################o            .X+################################",
"###############@X              o################################",
"##############+X.              o################################",
"##############o                X@###############################",
"##########++##o                .X+##+oooo+######################",
"##########+O#@X.XX.              X@@X  .X+######################",
"############OX.X@@X              .XX.  X@###++##+oo+############",
"############OooO#@X                .Xoo+####O+##+X.X@###########",
"##########+O####OX.                X@#####+O#####@X.X+##########",
"##########oo###@X                  X@####@XX@#####Ooo+##########",
"####+oo+##oo##+X.                  .XooooX..XooooO######++######",
"####o  o##oo##o                                  o######oo######"
};
