/* XPM */
static char *result[] = {
/* columns rows colors chars-per-pixel */
"64 64 47 1 ",
"  c #D93F4E",
". c #DA3F4F",
"X c #DA4150",
"o c #DB4453",
"O c #DC4554",
"+ c #DC4655",
"@ c #DD4856",
"# c #E05562",
"$ c #E05663",
"% c #E35C69",
"& c #E45E69",
"* c #E45F69",
"= c #E4616B",
"- c #E5636C",
"; c #E5636D",
": c #E6636D",
"> c #E6636E",
", c #E7626F",
"< c #E5646E",
"1 c #E6646E",
"2 c #E7646E",
"3 c #E7646F",
"4 c #EB656F",
"5 c #EB666F",
"6 c #E96670",
"7 c #EC6670",
"8 c #F77E86",
"9 c #FF7F86",
"0 c #F78087",
"q c #FF8087",
"w c #FF8187",
"e c #F28B92",
"r c #F38C93",
"t c #FAA5AA",
"y c #FAA7AD",
"u c #FEB1B5",
"i c #FEB2B5",
"p c #FFB2B6",
"a c #FFB3B7",
"s c #FFB4B8",
"d c #FFB5B9",
"f c #FFB6BA",
"g c #FFB6BB",
"h c #FFB8BC",
"j c #FFBDC1",
"k c #FFBDC2",
"l c None",
/* pixels */
"llllllllllllllllllllllllllllllllllllllllllllllllllllllllllllllll",
"llllllllllllllllllllllllllllllllllllllllllllllllllllllllllllllll",
"llllllllllllllllllllllllllllllllllllllllllllllllllllllllllllllll",
"llllllllllllllllllllllllllllllllllllllllllllllllllllllllllllllll",
"llllllllllllllllllllllllllllllllllllllllllllllllllllllllllllllll",
"llllllllllllllllllllllllllllllllllllllllllllllllllllllllllllllll",
"llllllllllllllllllllllllllllllllllllllllllllllllllllllllllllllll",
"llllllllllllllllllllllllllllllllllllllllllllllllllllllllllllllll",
"lllllllllllllllll1113llllllllllllllllllllll3111lllllllllllllllll",
"llllllllllllllll1;-<1>llllllllllllllllllll>1<-;1llllllllllllllll",
"llllllllllllllll1lll611llllllllllllllllll116lll1llllllllllllllll",
"lllllllllllllll2,lllll11llllllllllllllll11lllll,2lllllllllllllll",
"lllllllllllllll1lllllll11llaaaaaaaaaall11lllllll1lllllllllllllll",
"lllllllllllllll1llllllll11aaaaaaaaaaaa11llllllll1lllllllllllllll",
"lllllllllllllll1lllllllll11taaaaaaaat11lllllllll1lllllllllllllll",
"lllllllllllllll25lllllllla11=uaaaau=11allllllll42lllllllllllllll",
"llllllllllllllll1llllllllaa:1O+%%+O1:aallllllll1llllllllllllllll",
"llllllllllllllll17lllllllaaa11++++11aaalllllll41llllllllllllllll",
"lllllllllllllllll1lllllllaaai11++11iaaalllllll1lllllllllllllllll",
"lllllllllllllllll18qqqlllaaaa111111aaaalllqqq01lllllllllllllllll",
"llllllllllllllllllqq9pllldaaa111111aaadlllp9qqllllllllllllllllll",
"llllllllllllllllllq9aaallpaaa111111aaapllaaa9qllllllllllllllllll",
"llllllllllllllllllqaaaalllaaa111111aaalllaaaaqllllllllllllllllll",
"llllllllllllllllllqaaaalllaaa111111aaalllaaaaqllllllllllllllllll",
"llllllllllllllllllwaaaalllaaa111111aaalllaaaawllllllllllllllllll",
"llllllllllllllllllfaaaalllaaa111111aaalllaaaalllllllllllllllllll",
"lllllllllllllllllllaaaglllaaa111111aaalllhaaalllllllllllllllllll",
"lllllllllllllllllllljallllaaa111111aaallllakllllllllllllllllllll",
"llllllllllllllllllllllllllaaaa1111aaaallllllllllllllllllllllllll",
"lllllllllllllllllllllllllldaaa1111aaadllllllllllllllllllllllllll",
"lllllllllllllllllllllllllllaaa1111aaalllllllllllllllllllllllllll",
"lllllllllllllllllllllllllllaaa*11*aaalllllllllllllllllllllllllll",
"lllllllllllllllllllllllllllaaa&11&aaalllllllllllllllllllllllllll",
"lllllllllllllllllllllllllllaaa@11@aaalllllllllllllllllllllllllll",
"lllllllllllllllllllllllllllaaa 11 aaalllllllllllllllllllllllllll",
"llllllllllllllllllllllllllllaaXoo aallllllllllllllllllllllllllll",
"llllllllllllllllllllllllllllaay++eaallllllllllllllllllllllllllll",
"llllllllllllllllllllllllllllaaa++aaallllllllllllllllllllllllllll",
"llllllllllllllllllllllllllllsaaO+aasllllllllllllllllllllllllllll",
"lllllllllllllllllllllllllllllaa##aalllllllllllllllllllllllllllll",
"lllllllllllllllllllllllllllllaa$$aalllllllllllllllllllllllllllll",
"lllllllllllllllllllllllllllllaa$$aalllllllllllllllllllllllllllll",
"lllllllllllllllllllllllllllllaa$$aalllllllllllllllllllllllllllll",
"lllllllllllllllllllllllllllllaa$$aalllllllllllllllllllllllllllll",
"llllllllllllllllllllllllllllaaa$$aaallllllllllllllllllllllllllll",
"llllllllllllllllllllllllllllaaa##aaallllllllllllllllllllllllllll",
"llllllllllllllllllllllllllllaaa++aaallllllllllllllllllllllllllll",
"llllllllllllllllllllllllllllaaa++aaallllllllllllllllllllllllllll",
"llllllllllllllllllllllllllllaar++raallllllllllllllllllllllllllll",
"llllllllllllllllllllllllllllsa.oo.asllllllllllllllllllllllllllll",
"llllllllllllllllllllllllllllla 11 alllllllllllllllllllllllllllll",
"llllllllllllllllllllllllllllla@11@alllllllllllllllllllllllllllll",
"llllllllllllllllllllllllllllla&11&alllllllllllllllllllllllllllll",
"llllllllllllllllllllllllllllla*11*alllllllllllllllllllllllllllll",
"llllllllllllllllllllllllllllla*11*alllllllllllllllllllllllllllll",
"llllllllllllllllllllllllllllla*11*alllllllllllllllllllllllllllll",
"llllllllllllllllllllllllllllllllllllllllllllllllllllllllllllllll",
"llllllllllllllllllllllllllllllllllllllllllllllllllllllllllllllll",
"llllllllllllllllllllllllllllllllllllllllllllllllllllllllllllllll",
"llllllllllllllllllllllllllllllllllllllllllllllllllllllllllllllll",
"llllllllllllllllllllllllllllllllllllllllllllllllllllllllllllllll",
"llllllllllllllllllllllllllllllllllllllllllllllllllllllllllllllll",
"llllllllllllllllllllllllllllllllllllllllllllllllllllllllllllllll",
"llllllllllllllllllllllllllllllllllllllllllllllllllllllllllllllll"
};
