/* XPM */
static char *result[] = {
/* columns rows colors chars-per-pixel */
"64 64 231 2 ",
"   c #202020",
".  c gray13",
"X  c #222222",
"o  c #232323",
"O  c gray14",
"+  c #252525",
"@  c gray15",
"#  c #272727",
"$  c #282828",
"%  c gray16",
"&  c #2A2A2A",
"*  c gray17",
"=  c #2D2A2B",
"-  c #2D2D2D",
";  c gray18",
":  c #2F2F2F",
">  c #32322F",
",  c gray19",
"<  c #313131",
"1  c #333331",
"2  c #323232",
"3  c gray20",
"4  c #343433",
"5  c #373234",
"6  c #343434",
"7  c #353535",
"8  c gray21",
"9  c #373737",
"0  c #3A3436",
"q  c #383737",
"w  c gray22",
"e  c #393939",
"r  c #3A3838",
"t  c #3A3A3A",
"y  c gray23",
"u  c #3C3A39",
"i  c #3E3C3A",
"p  c #3F3C3B",
"a  c #3C3C3C",
"s  c gray24",
"d  c #3F3C3D",
"f  c #3E3E3E",
"g  c #3F3F3F",
"h  c #453F41",
"j  c gray25",
"k  c #414141",
"l  c gray26",
"z  c #434343",
"x  c #434440",
"c  c #444440",
"v  c #444444",
"b  c #464646",
"n  c gray28",
"m  c #4C4542",
"M  c #4C4642",
"N  c #4A4446",
"B  c #484747",
"V  c #4C4D47",
"C  c #4F4448",
"Z  c #484848",
"A  c #494949",
"S  c gray29",
"D  c #4E4E4E",
"F  c gray31",
"G  c #544B47",
"H  c #524549",
"J  c #54484C",
"K  c #5C514C",
"L  c #5D524C",
"P  c #574D50",
"I  c #525251",
"U  c gray32",
"Y  c #535353",
"T  c gray33",
"R  c #565655",
"E  c gray34",
"W  c #585852",
"Q  c gray35",
"!  c #5A5959",
"~  c #5B5B5B",
"^  c #5C5B5B",
"/  c #5F5F58",
"(  c gray36",
")  c gray37",
"_  c #5F5F5F",
"`  c #6A5B53",
"'  c #6C5D55",
"]  c #6F5E57",
"[  c #64575C",
"{  c #705F57",
"}  c #66675B",
"|  c #67675B",
" . c #74625A",
".. c #705D62",
"X. c #646261",
"o. c #646262",
"O. c #646464",
"+. c gray40",
"@. c #676766",
"#. c DimGray",
"$. c #6A6969",
"%. c #6C6C6C",
"&. c #6F6E6E",
"*. c #7F6A60",
"=. c #79646C",
"-. c #7A676D",
";. c #7F716B",
":. c #7E736E",
">. c gray44",
",. c #717170",
"<. c #727171",
"1. c #737372",
"2. c #747474",
"3. c #767675",
"4. c #777776",
"5. c #787877",
"6. c #7A7979",
"7. c #7C7C7B",
"8. c #7E7D7D",
"9. c #7F7E7E",
"0. c #856E63",
"q. c #8A7266",
"w. c #94796C",
"e. c #997D6F",
"r. c #8B717A",
"t. c #8A737A",
"y. c #8C727B",
"u. c #848572",
"i. c #858672",
"p. c #858772",
"a. c #998175",
"s. c #A28374",
"d. c #A98879",
"f. c #AF8C7C",
"g. c #B4907F",
"h. c #927880",
"j. c #947A83",
"k. c #828281",
"l. c #848483",
"z. c #848484",
"x. c #858484",
"c. c gray52",
"v. c gray53",
"b. c #888887",
"n. c #8A8989",
"m. c #8B8A89",
"M. c #8B8A8A",
"N. c #8C8B8B",
"B. c #8E8E8D",
"V. c #918B88",
"C. c #959684",
"Z. c #9C9E8B",
"A. c #919090",
"S. c #949493",
"D. c gray58",
"F. c #979696",
"G. c #989897",
"H. c #999898",
"J. c #999998",
"K. c #9B9A9A",
"L. c #9D9C9C",
"P. c #9E9D9D",
"I. c #9F9E9E",
"U. c #A3838E",
"Y. c #B79280",
"T. c #A58690",
"R. c #A98792",
"E. c #B4B598",
"W. c #A1A1A0",
"Q. c #A3A2A1",
"!. c #A4A3A3",
"~. c #A5A4A3",
"^. c #A9A9A8",
"/. c #AAA8A8",
"(. c #ACABAB",
"). c #AFAEAD",
"_. c #BABBA2",
"`. c #BCBDA6",
"'. c #BEBFAA",
"]. c #B4B3B3",
"[. c #B6B5B4",
"{. c #B7B6B5",
"}. c #B9B8B8",
"|. c #B9B9B8",
" X c #BBBAB9",
".X c #BDBCBB",
"XX c #BFBEBD",
"oX c #C99F8B",
"OX c #D4A791",
"+X c #D6A892",
"@X c #D9AA94",
"#X c #DCAD96",
"$X c #DFAF98",
"%X c #C39BA8",
"&X c #CBA2AF",
"*X c #C0C1AF",
"=X c #C4C4B4",
"-X c #C4C5B4",
";X c #C8C8BC",
":X c #C8C9BD",
">X c #DFB0C0",
",X c #DFB1C0",
"<X c #DFB1C1",
"1X c #C1C0C0",
"2X c #C4C3C2",
"3X c #C5C4C3",
"4X c #C7C6C5",
"5X c #C9C9C1",
"6X c #CDCDC7",
"7X c #CECEC7",
"8X c #C9C8C8",
"9X c #CAC9C8",
"0X c #CBCAC9",
"qX c #CDCDCC",
"wX c #D0D0CB",
"eX c #D0D0CC",
"rX c #D2D2D1",
"tX c #D3D2D1",
"yX c #D4D3D2",
"uX c #D4D3D3",
"iX c #D5D4D3",
"pX c #D7D6D5",
"aX c #D9D8D7",
"sX c #DCDBDA",
"dX c #DDDCDB",
"fX c #DEDDDC",
"gX c #DFDDDD",
"hX c #DFDEDC",
"jX c #DFDEDD",
"kX c #DFDEDE",
"lX c None",
/* pixels */
"lXlXlXlXlXlXlXlXlXlXlXlXlXlXlXlXlXlXlXlXlXlXlXlXlXlXlXlXlXlXlXlXlXlXlXlXlXlXlXlXlXlXlXlXlXlXlXlXlXlXlXlXlXlXlXlXlXlXlXlXlXlXlXlX",
"lXlXlXlXlXlXlXlXlXlXlXlXlXlXlXlXlXlXlXlXlXlXlXlXlXlXlXlXlXlXlXlXlXlXlXlXlXlXlXlXlXlXlXlXlXlXlXlXlXlXlXlXlXlXlXlXlXlXlXlXlXlXlXlX",
"lXlXlXlXlXlXlXlXlXlXlXlXlXlXlXlXlXlXlXlXlXlXlXlXlXlXlXlXlXlXlXlXlXlXlXlXlXlXlXlXlXlXlXlXlXlXlXlXlXlXlXlXlXlXlXlXlXlXlXlXlXlXlXlX",
"lXlXlXlXlXlXlXlXlXlXlXlXlXlXlXlXlXlXlXlXlXlXlXlXlXlXlXlXlXlXlXlXlXlXlXlXlXlXlXlXlXlXlXlXlXlXlXlXlXlXlXlXlXlXlXlXlXlXlXlXlXlXlXlX",
"lXlXlXlXlXlXlXlXlXlXlXlXlXlXlXlXlXlXlXlXlXlXlXlXlXlXlXlXlXlXlXlXlXlXlXlXlXlXlXlXlXlXlXlXlXlXlXlXlXlXlXlXlXlXlXlXlXlXlXlXlXlXlXlX",
"lXlXlXlXlXlXlXlXlXlXlXlXlXlXlXlXlXlXlXlXlXlXlXlXlXlXlXlXlXlXlXlXlXlXlXlXlXwXeXeXlXlXlXlXlXlXlXlXlXlXlXlXlXlXlXlXlXlXlXlXlXeXeXeX",
"lXlXlXlXlXlXlXlXlXlXlXlXlXlXlXlXlXlXlXlXlXlXlXlXlXlXlXlXlXlXlXlXlXlXlXlXlXeXeXeXlXlXlXlXlXlXlXlXlXlXlXlXlXlXlXlXlXlXlXlXlXeXeXeX",
"lXlXlXlXlXlXlXlXlXlXlXlXlXlXlXlXlXlXlXlXlXlXlXlXlXlXlXlXlXlXlXlXlXlXlXlXlXeXeXeXlXlXlXlXlXlXlXlXlXlXlXlXlXlXlXlXlXlXlXlXlXeXeXeX",
"lXlXlXlXlXlXlXlXlXlXlXlXlXlXlXlXlXlXlXlXlXlXlXlXlXlXlXlXlXlXlXlXlXlXlXlXlX7X6X6X5XlXlXlXlXlXlXlXlXlXlXlXlXlXlXlXlXlXlXlXlX6X6X6X",
"lXlXlXlXlXlXlXlXlXlXlXlXlXlXlXlXlXlXlXlXlXlXlXlXlXlXlXlXlXlXlXlXlXlXlXlXlX;X:X:X*XE.E.p.>               - 7 7 7 7 u.E.E.'.:X:X:X",
"lXlXlXlXlXlXlXlXlXlXlXlXlXlXlXlXlXlXlXlXlXlXlXlXlXlXlXlXlXlXlXlXlXlXlXlXlX=X-X-X`.E.E.i.>         . . X - 7 7 7 7 u.E.E._.-X-X-X",
"lXlXlXlXlXlXlXlXlXlXlXlXlXlXlXlXlXlXlXlXlXlXlXlXlXlXlXlXlXlXlXlXlXlXlXlXlX=X-X-X`.E.E.i.>       X % & * < 7 7 7 7 u.E.E._.-X-X-X",
"lXlXlXlXlXlXlXlXlXlXlXlXlXlXlXlXlXlXlXlXlXlXlXlXlXlXlXlXlXlXlXlXlXlXlXlXlX=X-X-X`.E.E.i.>       O < 3 3 6 7 7 7 7 u.E.E._.-X-X-X",
"lXlXlXlXlXlXlXlXlXlXlXlXlXlXlXlXlXlXlXlXlXlXlXlXlXlXlXlXlXlXlXlXlXlXlXlXlXlX-X-XZ.u.u.| 1 # # # * 3 7 7 7 7 7 7 7 } u.u.C.-X-X-X",
"lXlXlXlXlXlXlXlXlXlXlXlXlXlXlXlXlXlXlXlXlXlXlXlXlXlXlXlXlXlXlXlXlXlXlXlXlXlXlXlX/ V V c 4 < < < 2 6 7 7 7 7 7 7 7 x V V W lXlXlX",
"lXlXlXlXlXlXlXlXlXlXlXlXlXlXlXlXlXlXlXlXlXlXlXlXlXlXlXlXlXlXlXlXlXlXlXlXlXlXlXlXlX7 7 7 7 7 7 7 7 7 7 7 7 7 7 7 7 7 7 7 7 lXlXlX",
"lXlXlXlXlXlXlXlXlXlXlXlXlXlXlXlXlXlXlXlXlXlXlXlXlXlXlXlXlXlXlXlXlXlXlXlXlXlXlXlXlX7 7 7 7 7 7 7 7 7 7 7 7 7 7 7 7 7 7 7 7 lXlXlX",
"lXlXlXlXlXlXlXlXlXlXlXlXlXlXlXlXlXlXlXlXlXlXlXlXlXlXlXlXlXlXlXlXlXlXlXlXlXlXlXlX6 7 7 y n S Z y 7 7 7 7 7 7 7 7 7 l S S S lXlXlX",
"lXlXlXlXlXlXlXlXlXlXlXgXgXgXgXgXgXgXgXrX@.                    O ; 6 6 6 6 6 6 6 7 7 7 U b.S.B.U 7 7 7 7 7 7 7 7 7 >.S.S.D.lXlXlX",
"lXlXlXlXlXlXlXlXlXlXgXjXjXjXjXjXjXjXjXtX@.                    o : 7 7 7 7 7 7 7 7 7 7 $.8XjXyX$.7 7 7 7 7 7 7 7 7 I.jXjXgXlXlXlX",
"lXlXlXlXlXlXlXlXlXlXgXjXjXjXjXjXjXjXjXtX@.              o % % * 2 7 7 7 7 7 7 7 7 7 7 $.8XjXyX$.7 7 7 7 7 7 7 7 7 I.jXjXgXlXlXlX",
"lXlXlXlXlXlXlXlXlXlXgXjXjXjXjXjXjXjXjXtX@.              @ 2 2 2 6 7 7 7 7 7 7 7 7 7 7 $.8XjXyX$.7 7 7 7 7 7 7 7 7 I.jXjXgXlXlXlX",
"lXlXlXlXlXlXlXlXlXlXjXjXjX2X^.^.^.^.^.W.E @ @ @ @ @ @ @ * 7 7 7 7 7 7 7 y ( $.$.F 7 7 Q K.^.~.:.` ` ` ` ` ` ` ` ` V.^.^./.lXlXlX",
"6 6 6 6 6 6 #.uXkXhXfXjXjXI._ _ _ _ _ ( k : : : : : : : < 7 7 7 7 7 7 7 v S.].].2.7 7 l ! _ X.a.g.g.g.g.g.g.g.g.g.;._ _ _ lXlXlX",
"7 7 7 7 7 7 $.yXjXjXjXjXjXn.7 7 7 7 7 7 7 7 7 7 7 7 7 7 7 7 7 7 7 7 7 7 S ].jXjXn.7 7 7 7 7 p d.$X$X$X$X$X$X$X$X$X .7 7 7 lXlXlX",
"7 7 7 7 7 7 $.yXjXjXjXjXjXn.7 7 7 7 7 7 7 7 7 7 7 7 7 7 7 7 7 7 7 7 7 7 S ].jXjXn.7 7 7 7 7 p d.$X$X$X$X$X$X$X$X$X .7 7 7 lXlXlX",
"7 7 7 7 6 6 %.iXjXdXpXyXyXl.7 7 7 7 7 7 y g g g g g s 8 7 7 7 7 7 w f g Y {.jXjXn.7 7 7 7 7 i s.OXOX@X$X$X#X+XOXOX{ 7 7 7 lXlXlX",
"7 7 7 7 lXlXc.aXjXyX!.n.n._ 7 7 7 7 7 t $.n.n.n.n.n.6.v 7 7 7 7 7 T l.n.S.8XjXjXn.7 7 7 7 7 r ] q.q.f.$X$XoXe.q.q.G 7 7 7 lXlXlX",
"7 7 7 lXlXlXlXfXjX0X,.g g t 7 7 7 7 7 f G.yXyXyXyXyX[.U 7 7 7 7 7 >.9XyXiXsXjXjXn.7 7 7 7 7 7 u p p 0.$X$XY.L p p q 7 7 7 lXlXlX",
"7 7 7 lXlXlXlXjX Xm.Y 7 7 7 7 7 7 7 7 g I.jXjXjXjXjXXXT 7 7 7 7 7 2.yXjXjXjXjXjXn.7 7 7 7 7 7 7 7 7 *.$X$Xg.G 7 7 7 7 7 7 lXlXlX",
"7 7 7 lXlXlXlXjXA.k e 7 7 7 7 7 7 7 7 g I.jXjXjXjXjXXXT 7 7 7 7 7 2.yXjXjXjXjXjXn.7 7 7 7 7 7 7 7 7 *.$X$Xg.G 7 7 7 7 7 7 lXlXlX",
"7 7 7 lXlXlXlX).@.X ; 7 7 7 7 7 7 7 7 a l.].].4XjXjXXXT 7 7 7 7 7 O.(.].|.yXjXjXI._ _ I t 7 7 7 7 7 ' g.g.w.M 7 7 7 7 7 7 lXlXlX",
"7 7 7 lXlXlXlX~ s X ; 7 7 7 7 7 7 7 7 w R $.$.L.jXjXXXT 7 7 7 7 7 Z +.$.5.1XjXjX2X^.^.x.z 7 7 7 7 7 m ` ` K i 7 7 7 7 7 7 lXlXlX",
"7 6 2 lXlXlXlX    X ; 7 7 7 7 7 7 7 7 7 7 7 7 9.jXjXXXT 7 7 7 7 7 7 7 7 S ].jXjXjXjXjX^.S 7 7 7 7 7 7 7 7 7 7 7 7 7 7 7 7 lXlXlX",
"7 , % lXlXlXlX    X ; 7 7 7 7 7 7 7 7 7 7 7 7 9.jXjXXXT 7 7 7 7 7 7 7 7 S ].jXjXjXjXjX^.S 7 7 7 7 7 7 7 7 7 7 7 7 7 7 7 7 lXlXlX",
"7 - . lXlXlXlX    X ; 7 7 7 7 7 7 7 7 7 7 7 7 9.jXjXXXT 7 7 7 7 7 7 7 7 S ].jXjXjXjXjX^.S 7 7 7 7 7 7 7 7 7 7 7 7 7 7 7 7 lXlXlX",
"* #   lXlXlXlX% O X ; 7 7 ! 9.9.%.f 7 7 7 7 7 ) S.S.k.b 7 7 7 7 7 7 7 7 j 7.S.S.S.S.S.3.j 7 6 ; ; 3 7 7 7 7 7 6 6 6 6 6 lXlXlXlX",
"X .   lXlXlXlX2 % X ; 7 7 9.8X8X!.n 7 7 7 7 7 f S S b w 7 7 7 7 7 7 7 7 9 v S S S S S z 9 7 3 $ # 2 7 7 7 7 lXlXlXlXlXlXlXlXlXlX",
"      lXlXlXlX6 - $ , 7 7 n.jXjX].S 7 7 7 7 7 7 7 7 7 7 7 7 7 7 7 7 7 7 7 7 7 7 7 7 7 7 7 < - O + 2 7 7 7 6 lXlXlXlXlXlXlXlXlXlX",
"      lXlXlXlX6 2 , 3 7 7 n.jXjX].S 7 7 7 7 7 7 7 7 7 7 7 7 7 7 7 7 7 7 7 7 7 7 7 7 7 7 7 - O . + 2 7 7 7 6 lXlXlXlXlXlXlXlXlXlX",
"      lXlXlXlX6 7 w S T T J.jXjX].S 3 < < 2 6 7 7 7 t D T T T T T Z 8 7 6 2 < < 3 7 7 3 < $ X w B U b 7 7 7 lXlXlXlXlXlXlXlXlXlX",
"lXlXlXlXlXlXlX6 7 l 8.I.I.XXjXjX].S : # # * 2 7 7 7 Z M.I.I.I.I.I.4.y 7 3 * # # ; 7 7 , % o # <.H.P.>.7 7 7 6 7 7 7 7 7 lXlXlXlX",
"lXlXlXlXlXlXlX6 7 S ^.jXjXjXjXjX].S *     + < 7 7 7 T XXjXjXjXjXjXI.g 7 2 @     % 3 3 - X   * Q.jXjXS.7 7 7 7 7 7 7 7 7 7 lXlXlX",
"lXlXlXlXlXlXlX6 7 S ^.jXjXjXjXjX].S *     + < 7 7 7 T XXjXjXjXjXjXI.g 7 3 - #   + & & # .   * Q.jXjXS.7 7 7 7 7 7 7 7 7 7 lXlXlX",
"lXlXlXlXlXlXlX6 7 S ^.jXjXjXjXjX].S *     + < 7 7 7 T XXjXjXjXjXjXI.g 7 6 6 - .   . .       * Q.jXjXS.7 7 7 7 7 7 7 7 7 7 lXlXlX",
"lXlXlXlXlXlXlX7 7 A v.I.I.I.I.I.k.y #     o & - - Q b.0XjXjXjXjXjXI.g , - - %       + y _ @.&.}.jXjXS.7 7 7 6 7 7 6 7 7 7 lXlXlX",
"lXlXlXlXlXlXlXlXlXlXU T T T T T Z & X       o o o l.3XaXjXjXjXjXjXI.g * o o X     X * ^ ^. X.XtXjXjXS.7 7 7 lXlXlX6 7 7 7 lXlXlX",
"lXlXlXlXlXlXlXlXlXlX6 7 7 7 7 7 : X               F.jXjXjXjXjXjXjXI.g %           X ; $.8XjXjXjXjXjXS.7 7 6 lXlXlX7 7 7 7 lXlXlX",
"lXlXlXlXlXlXlXlXlXlX6 7 7 7 7 7 : X               F.jXjXjXjXjXjXjXI.g %           X ; $.8XjXjXjXjXjXS.7 7 6 lXlXlX7 7 7 7 lXlXlX",
"lXlXlXlXlXlXlXlXlXlX6 7 7 d N N h 0 5 5 5 5 5 =   F.jXjXjXjXjXjXjXI.g %           X ; #.8XjXdXqX4X4XN.7 7 6 lXlXlX6 7 7 7 lXlXlX",
"lXlXlXlXlXlXlXlXlXlX6 7 7 [ j.j.h.y.r.r.r.r.r...lXlXlXlXlXlXlXlXlXlXlXlXlXlXlXlXlXlXlXlXlXlXlXz.1.1.o.lXlXlX6 6 6 7 7 7 7 lXlXlX",
"lXlXlXlXlXlXlXlXlXlX6 7 7 t.,X,X,X,X,X,X,X,X,X<XlXlXlXlXlXlXlXlXlXlXlXlXlXlXlXlXlXlXlXlXlXlXlX        lXlXlX7 7 7 7 7 7 7 lXlXlX",
"lXlXlXlXlXlXlXlXlXlX6 7 7 t.,X,X,X,X,X,X,X,X,X<XlXlXlXlXlXlXlXlXlXlXlXlXlXlXlXlXlXlXlXlXlXlXlX        lXlXlX7 7 7 7 7 7 7 lXlXlX",
"lXlXlXlXlXlXlXlXlXlX6 7 7 t.,X,X,X,X,X,X,X,X,X<XlXlXlXlXlXlXlXlXlXlXlXlXlXlXlXlXlXlXlXlXlXlXlX        lXlXlX7 7 7 7 7 7 7 lXlXlX",
"lXlXlXlXlXlXlXlXlXlX6 7 7 -.>X>X&XR.U.T.%X>X>XlXlXlXlXlXlXlXlXlXlXlXlXlXlXlXlXlXlXlXlXlXlXlXlX        lXlXlX6 6 6 6 6 6 lXlXlXlX",
"lXlXlXlXlXlXlXlXlXlX6 7 7 P lXlXlXJ C H =.lXlXlXlXlXlXlXlXlXlXlXlXlXlXlXlXlXlXlXlXlXlXlXlXlXlX        lXlXlXlXlXlXlXlXlXlXlXlXlX",
"lXlXlXlXlXlXlXlXlXlX6 7 7 lXlXlXlX      lXlXlXlXlXlXlXlXlXlXlXlXlXlXlXlXlXlXlXlXlXlXlXlXlXlXlX        lXlXlXlXlXlXlXlXlXlXlXlXlX",
"lXlXlXlXlXlXlXlXlXlX6 7 7 lXlXlXlX      lXlXlXlXlXlXlXlXlXlXlXlXlXlXlXlXlXlXlXlXlXlXlXlXlXlXlX        lXlXlXlXlXlXlXlXlXlXlXlXlX",
"lXlXlXlXlXlXlXlXlXlX6 7 7 lXlXlXlX      lXlXlXlXlXlXlXlXlXlXlXlXlXlXlXlXlXlXlXlXlXlXlXlXlXlXlX        lXlXlXlXlXlXlXlXlXlXlXlXlX",
"lXlXlXlXlXlXlXlXlXlX6 7 7 lXlXlXlX      lXlXlXlXlXlXlXlXlXlXlXlXlXlXlXlXlXlXlXlXlXlXlXlXlXlXlX        lXlXlXlXlXlXlXlXlXlXlXlXlX",
"lXlXlXlXlXlXlXlXlXlX6 7 7 lXlXlXlX      lXlXlXlXlXlXlXlXlXlXlXlXlXlXlXlXlXlXlXlXlXlXlXlXlXlXlX        lXlXlXlXlXlXlXlXlXlXlXlXlX",
"lXlXlXlXlXlXlXlXlXlX6 7 7 lXlXlXlX      lXlXlXlXlXlXlXlXlXlXlXlXlXlXlXlXlXlXlXlXlXlXlXlXlXlXlX        lXlXlXlXlXlXlXlXlXlXlXlXlX",
"lXlXlXlXlXlXlXlXlXlX6 7 7 lXlXlXlX      lXlXlXlXlXlXlXlXlXlXlXlXlXlXlXlXlXlXlXlXlXlXlXlXlXlXlX        lXlXlXlXlXlXlXlXlXlXlXlXlX",
"lXlXlXlXlXlXlXlXlXlX6 7 7 lXlXlXlX      lXlXlXlXlXlXlXlXlXlXlXlXlXlXlXlXlXlXlXlXlXlXlXlXlXlXlX        lXlXlXlXlXlXlXlXlXlXlXlXlX"
};
