/* XPM */
static char *result[] = {
/* columns rows colors chars-per-pixel */
"64 64 231 2 ",
"   c #202020",
".  c gray13",
"X  c #222222",
"o  c #232323",
"O  c gray14",
"+  c #252525",
"@  c gray15",
"#  c #272727",
"$  c #282828",
"%  c gray16",
"&  c #2A2A2A",
"*  c gray17",
"=  c #2D2A2B",
"-  c #2D2D2D",
";  c gray18",
":  c #2F2F2F",
">  c gray19",
",  c #313131",
"<  c #323232",
"1  c gray20",
"2  c #373234",
"3  c #343434",
"4  c #353535",
"5  c gray21",
"6  c #373636",
"7  c #373737",
"8  c #3A3436",
"9  c #393837",
"0  c gray22",
"q  c #393939",
"w  c #3A3B39",
"e  c #3A3A3A",
"r  c gray23",
"t  c #3C3A39",
"y  c #3F3C3B",
"u  c #3C3C3C",
"i  c gray24",
"p  c #3F3C3D",
"a  c #3E3E3E",
"s  c #3F3F3F",
"d  c #41423F",
"f  c #44403E",
"g  c #453F41",
"h  c gray25",
"j  c #414141",
"k  c gray26",
"l  c #434343",
"z  c #444541",
"x  c #454541",
"c  c #444444",
"v  c #464646",
"b  c gray28",
"n  c #4A4441",
"m  c #4A4446",
"M  c #4F4448",
"N  c #484848",
"B  c gray29",
"V  c #4C4C4B",
"C  c #4E4E4E",
"Z  c gray31",
"A  c #524946",
"S  c #524A46",
"D  c #544B47",
"F  c #524549",
"G  c #54484C",
"H  c #5A4F4A",
"J  c #52534C",
"K  c #55564E",
"L  c #5F534D",
"P  c #574D50",
"I  c #525251",
"U  c gray32",
"Y  c #535353",
"T  c gray33",
"R  c #565655",
"E  c gray34",
"W  c gray35",
"Q  c #5A5959",
"!  c #5B5B5B",
"~  c gray36",
"^  c #5D5D5C",
"/  c gray37",
"(  c #5F5F5F",
")  c #60544E",
"_  c #64575C",
"`  c #605F5F",
"'  c #64655A",
"]  c #74625A",
"[  c #77645B",
"{  c #7A675D",
"}  c #705D62",
"|  c #636362",
" . c #646262",
".. c #646464",
"X. c gray40",
"o. c #676766",
"O. c DimGray",
"+. c #6A6969",
"@. c #6B6A6A",
"#. c #6C6C6C",
"$. c #7F6A60",
"%. c #79646C",
"&. c #7A676D",
"*. c #726D6B",
"=. c #757667",
"-. c #76766A",
";. c #7B7C6C",
":. c gray44",
">. c #717170",
",. c #737372",
"<. c gray45",
"1. c #747474",
"2. c #767575",
"3. c #767675",
"4. c #777776",
"5. c #7F7F72",
"6. c #787877",
"7. c #7A7979",
"8. c #7B7A7A",
"9. c #7C7C7B",
"0. c #7E7D7D",
"q. c #7F7E7E",
"w. c gray50",
"e. c #856E63",
"r. c #8A7266",
"t. c #94796C",
"y. c #977B6E",
"u. c #877C77",
"i. c #8D7B72",
"p. c #8B717A",
"a. c #8A737A",
"s. c #8C727B",
"d. c #807E7D",
"f. c #848572",
"g. c #8C8D78",
"h. c #8C8D79",
"j. c #A98879",
"k. c #AC8A7A",
"l. c #B3907E",
"z. c #B4907F",
"x. c #927880",
"c. c #947A83",
"v. c #828281",
"b. c #848483",
"n. c #848484",
"m. c #858484",
"M. c gray52",
"N. c #878786",
"B. c #888887",
"V. c #8A8989",
"C. c #8B8A89",
"Z. c #8B8A8A",
"A. c #8C8B8B",
"S. c #9C9D85",
"D. c #919090",
"F. c #949493",
"G. c #979696",
"H. c #999795",
"J. c #989897",
"K. c #999998",
"L. c #9D9C9C",
"P. c #9F9E9E",
"I. c #A3838E",
"U. c #BF9885",
"Y. c #A58690",
"T. c #A98792",
"R. c #A9AA94",
"E. c #ADAE99",
"W. c #B4B598",
"Q. c #A1A1A0",
"!. c #A4A3A3",
"~. c #A9A9A8",
"^. c #ACABAB",
"/. c #ADACAB",
"(. c #ADADAC",
"). c #AFAEAD",
"_. c #BABBA2",
"`. c #BBBCA4",
"'. c #BCBDA6",
"]. c #BDBEA9",
"[. c #B4B3B3",
"{. c #B6B5B4",
"}. c #B7B6B5",
"|. c #B9B9B8",
" X c #BBBAB9",
".X c #BDBCBC",
"XX c #BFBDBD",
"oX c #BFBEBD",
"OX c #C19986",
"+X c #D1A590",
"@X c #D4A791",
"#X c #DFAF98",
"$X c #C39BA8",
"%X c #CBA2AF",
"&X c #C1C1B0",
"*X c #C4C5B3",
"=X c #C3C4B5",
"-X c #C4C4B4",
";X c #C4C5B4",
":X c #C5C6B7",
">X c #C6C6B7",
",X c #C1C0BF",
"<X c #DFB0C0",
"1X c #DFB1C0",
"2X c #DFB1C1",
"3X c #C1C0C0",
"4X c #C4C3C2",
"5X c #C5C4C3",
"6X c #C7C6C5",
"7X c #CACBC1",
"8X c #CBCBC2",
"9X c #C9C8C8",
"0X c #CAC8C8",
"qX c #CAC9C8",
"wX c #CBCAC9",
"eX c #CDCDCC",
"rX c #D0D0CC",
"tX c #D2D2D1",
"yX c #D3D2D1",
"uX c #D4D3D2",
"iX c #D5D4D3",
"pX c #D7D6D5",
"aX c #D9D8D7",
"sX c #DCDBDA",
"dX c #DDDCDB",
"fX c #DEDDDC",
"gX c #DFDDDC",
"hX c #DFDDDD",
"jX c #DFDEDC",
"kX c #DFDEDD",
"lX c None",
/* pixels */
"lXlXlXlXlXlXlXlXlXlXlXlXlXlXlXlXlXlXlXlXlXlXlXlXlXlXlXlXlXlXlXlXlXlXlXlXlXrXrXrXlXlXlXlXlXlXlXlXlXlXlXlXlXlXlXlXlXlXlXlXlXrXrXrX",
"lXlXlXlXlXlXlXlXlXlXlXlXlXlXlXlXlXlXlXlXlXlXlXlXlXlXlXlXlXlXlXlXlXlXlXlXlXrXrXrXlXlXlXlXlXlXlXlXlXlXlXlXlXlXlXlXlXlXlXlXlXrXrXrX",
"lXlXlXlXlXlXlXlXlXlXlXlXlXlXlXlXlXlXlXlXlXlXlXlXlXlXlXlXlXlXlXlXlXlXlXlXlXrXrXrXlXlXlXlXlXlXlXlXlXlXlXlXlXlXlXlXlXlXlXlXlXrXrXrX",
"lXlXlXlXlXlXlXlXlXlXlXlXlXlXlXlXlXlXlXlXlXlXlXlXlXlXlXlXlXlXlXlXlXlXlXlXlXrXrXrXlXlXlXlXlXlXlXlXlXlXlXlXlXlXlXlXlXlXlXlXlXrXrXrX",
"lXlXlXlXlXlXlXlXlXlXlXlXlXlXlXlXlXlXlXlXlXlXlXlXlXlXlXlXlXlXlXlXlXlXlXlXlX8X7X7X=XlXlXlXlXlXlXlXlXlXlXlXlXlXlXlXlXlXlXlX&X7X7X7X",
"lXlXlXlXlXlXlXlXlXlXlXlXlXlXlXlXlXlXlXlXlXlXlXlXlXlXlXlXlXlXlXlXlXlXlXlXlX>X:X:X].W.W.g.x 4 4 4 4 4 4 4 4 4 4 4 4 f.W.W.`.:X:X:X",
"lXlXlXlXlXlXlXlXlXlXlXlXlXlXlXlXlXlXlXlXlXlXlXlXlXlXlXlXlXlXlXlXlXlXlXlXlX-X;X;X'.W.W.h.z 4 4 4 4 4 4 4 4 4 4 4 4 f.W.W._.;X;X;X",
"lXlXlXlXlXlXlXlXlXlXlXlXlXlXlXlXlXlXlXlXlXlXlXlXlXlXlXlXlXlXlXlXlXlXlXlXlX-X;X;X'.W.W.h.z 4 4 4 4 4 4 4 4 4 4 4 4 f.W.W._.;X;X;X",
"lXlXlXlXlXlXlXlXlXlXlXlXlXlXlXlXlXlXlXlXlXlXlXlXlXlXlXlXlXlXlXlXlXlXlXlXlX*X;X;XE.S.S.;.d 4 4 4 4 4 4 4 4 4 4 4 4 =.S.S.R.;X;X;X",
"lXlXlXlXlXlXlXlXlXlXlXlXlXlXlXlXlXlXlXlXlXlXlXlXlXlXlXlXlXlXlXlXlXlXlXlXlXlXlXlX5.' ' K w 4 4 4 4 4 4 4 4 4 4 4 4 J ' ' -.lXlXlX",
"lXlXlXlXlXlXlXlXlXlXlXlXlXlXlXlXlXlXlXlXlXlXlXlXlXlXlXlXlXlXlXlXlXlXlXlXlXlXlXlXlX4 4 4 4 4 4 4 4 4 4 4 4 4 4 4 4 4 4 4 4 lXlXlX",
"lXlXlXlXlXlXlXlXlXlXlXlXlXlXlXlXlXlXlXlXlXlXlXlXlXlXlXlXlXlXlXlXlXlXlXlXlXlXlXlXlX4 4 4 4 4 4 4 4 4 4 4 4 4 4 4 4 4 4 4 4 lXlXlX",
"lXlXlXlXlXlXlXlXlXlXlXlXlXlXlXlXlXlXlXlXlXlXlXlXlXlXlXlXlXlXlXlXlXlXlXlXlXlXlXlXlX4 4 4 4 4 4 4 4 4 4 4 4 4 4 4 4 4 4 4 4 lXlXlX",
"lXlXlXlXlXlXlXlXlXlXlXlXlXlXlXlXlXlXlXlXlXlXlXlXlXlXlXlXlXlXlXlXlXlXlXlXlXlXlXlXlX4 4 N #.1.:.N 4 4 4 4 4 4 4 4 4 ~ 1.1.<.lXlXlX",
"lXlXlXlXlXlXlXlXlXlXlXlXlXlXlXlXlXlXlXlXlXlXlXlXlXlXlXlXlXlXlXlXlXlXlXlXlXlXlXlXlX4 4 ` (.oX{.` 4 4 4 4 4 4 4 4 4 Z.oXoXXXlXlXlX",
"lXlXlXlXlXlXlXlXlXlXlXlXlXlXlXlXlXlXlXlXlXlXlXlXlXlXlXlXlXlXlXlXlXlXlXlXlXlXlXlXlX4 4 +.9XkXuX+.4 4 4 4 4 4 4 4 4 P.kXkXhXlXlXlX",
"lXlXlXlXlXlXlXlXlXlXlXlXlXlXlXlXlXlXlXlXlXlXlXlXlXlXlXlXlXlXlXlXlXlXlXlXlXlXlXlXlX4 4 +.9XkXuX+.4 4 4 4 4 4 4 4 4 P.kXkXhXlXlXlX",
"lXlXlXlXlXlXlXlXlXlXlXlXlXlXlXlXlXlXlXlXlXlXlXlXlXlXlXlXlXlXlXlXlXlXlXlXlXlXlXlX3 4 4 | }.9X,X*.n n n n n n n n n H.9X9X0XlXlXlX",
"lXlXlXlXlXlXlXlXlXlXlXhXhXhXhXhXhXhXhXtXo.                    O ; 3 3 3 3 3 3 3 4 4 4 V 2.q.d.i.t.t.t.t.t.t.t.t.t.u.q.q.w.lXlXlX",
"lXlXlXlXlXlXlXlXlXlXgXkXkXkXkXkXkXkXkXyXo.                    o : 4 4 4 4 4 4 4 4 4 4 4 4 4 y j.#X#X#X#X#X#X#X#X#X] 4 4 4 lXlXlX",
"lXlXlXlXlXlXlXlXlXlXgXkXkXkXkXkXkXkXkXyXo.              o % % * < 4 4 4 4 4 4 4 4 4 4 4 4 4 y j.#X#X#X#X#X#X#X#X#X] 4 4 4 lXlXlX",
"lXlXlXlXlXlXlXlXlXlXgXkXkXkXkXkXkXkXkXyXo.              @ < < < 3 4 4 4 4 4 4 4 4 4 4 4 4 4 y j.#X#X#X#X#X#X#X#X#X] 4 4 4 lXlXlX",
"lXlXlXlXlXlXlXlXlXlXkXkXkX4X~.~.~.~.~.Q.E @ @ @ @ @ @ @ * 4 4 4 4 4 4 4 r ~ +.+.Z 4 4 4 4 4 t e.j.j.OX#X#X+Xl.j.j.) 4 4 4 lXlXlX",
"lXlXlXlX3 3 O.uXjXjXfXkXkXP.( ( ( ( ( ~ j : : : : : : : , 4 4 4 4 4 4 4 c F.[.[.1.4 4 4 4 4 6 A L L y.#X#XU.[ L L f 4 4 4 lXlXlX",
"lXlXlX3 4 4 +.uXkXkXkXkXkXV.4 4 4 4 4 4 4 4 4 4 4 4 4 4 4 4 4 4 4 4 4 4 B [.kXkXV.4 4 4 4 4 4 4 4 4 $.#X#Xz.D 4 4 4 4 4 4 lXlXlX",
"lXlXlX3 4 4 +.uXkXkXkXkXkXV.4 4 4 4 4 4 4 4 4 4 4 4 4 4 4 4 4 4 4 4 4 4 B [.kXkXV.4 4 4 4 4 4 4 4 4 $.#X#Xz.D 4 4 4 4 4 4 lXlXlX",
"lXlXlX3 3 3 #.iXkXdXpXuXuXb.4 4 4 4 4 4 r s s s s s i 5 4 4 4 4 4 0 a s Y }.kXkXV.4 4 4 4 4 4 4 4 4 { @X@Xk.S 4 4 4 4 4 4 lXlXlX",
"lXlXlXlXlXlXM.aXkXuX!.V.V.( 4 4 4 4 4 e +.V.V.V.V.V.7.c 4 4 4 4 4 T b.V.F.9XkXkXV.4 4 4 4 4 4 4 4 4 H r.r.] f 4 4 4 4 4 4 lXlXlX",
"3 3 3 lXlXlXlXfXkXwX>.s s e 4 4 4 4 4 a J.uXuXuXuXuX{.U 4 4 4 4 4 :.qXuXiXsXkXkXV.4 4 4 4 4 4 4 4 4 9 y y t 5 4 4 4 4 4 4 lXlXlX",
"4 4 4 lXlXlXlXkX XC.Y 4 4 4 4 4 4 4 4 s P.kXkXkXkXkXoXT 4 4 4 4 4 1.uXkXkXkXkXkXV.4 4 4 4 4 4 4 4 4 4 4 4 4 4 4 4 4 4 4 4 lXlXlX",
"4 4 4 lXlXlXlXkXD.j q 4 4 4 4 4 4 4 4 s P.kXkXkXkXkXoXT 4 4 4 4 4 1.uXkXkXkXkXkXV.4 4 4 4 4 4 4 4 4 4 4 4 4 4 4 4 4 4 4 4 lXlXlX",
"4 4 4 lXlXlXlX).o.X ; 4 4 4 4 4 4 4 4 u b.[.[.6XkXkXoXT 4 4 4 4 4 ..^.[.|.uXkXkXP.( ( I e 4 4 4 4 4 4 4 4 3 4 3 3 3 3 3 lXlXlXlX",
"4 4 4 lXlXlXlX! i X ; 4 4 4 4 4 4 4 4 0 R +.+.L.kXkXoXT 4 4 4 4 4 N X.+.6.3XkXkX4X~.~.m.l 4 4 4 4 4 4 4 4 3 lXlXlXlXlXlXlXlXlXlX",
"4 4 4 lXlXlXlX    X ; 4 4 4 4 4 4 4 4 4 4 4 4 q.kXkXoXT 4 4 4 4 4 4 4 4 B [.kXkXkXkXkX~.B 4 4 4 4 4 4 4 4 3 lXlXlXlXlXlXlXlXlXlX",
"4 4 4 lXlXlXlX    X ; 4 4 4 4 4 4 4 4 4 4 4 4 q.kXkXoXT 4 4 4 4 4 4 4 4 B [.kXkXkXkXkX~.B 4 4 4 4 4 4 4 4 3 lXlXlXlXlXlXlXlXlXlX",
"4 4 4 lXlXlXlX    X ; 4 4 4 4 4 4 4 4 4 4 4 4 q.kXkXoXT 4 4 4 4 4 4 4 4 B [.kXkXkXkXkX~.B 4 4 4 4 4 4 4 4 3 lXlXlXlXlXlXlXlXlXlX",
"4 4 4 lXlXlXlX% O X ; 4 4 Q q.q.#.a 4 4 4 4 4 / F.F.v.v 4 4 4 4 4 4 4 4 h 9.F.F.F.F.F.3.h 4 4 4 4 4 4 4 4 3 lXlXlXlXlXlXlXlXlXlX",
"4 4 4 lXlXlXlX< % X ; 4 4 q.9X9X!.b 4 4 4 4 4 a B B v 0 4 4 4 4 4 4 4 4 7 c B B B B B l 7 4 4 4 4 4 4 4 4 3 lXlXlXlXlXlXlXlXlXlX",
"4 < ; lXlXlXlX3 - $ > 4 4 V.kXkX[.B 4 4 4 4 4 4 4 4 4 4 4 4 4 4 4 4 4 4 4 4 4 4 4 4 4 4 4 4 4 4 4 4 4 4 4 3 lXlXlXlXlXlXlXlXlXlX",
"4 : @ lXlXlXlX3 < > 1 4 4 V.kXkX[.B 4 4 4 4 4 4 4 4 4 4 4 4 4 4 4 4 4 4 4 4 4 4 4 4 4 4 4 4 4 4 4 4 4 4 4 3 lXlXlXlXlXlXlXlXlXlX",
", & . lXlXlXlX3 4 0 B T T K.kXkX[.B 1 , , < 3 4 4 4 e C T T T T T N 5 4 3 < , , 1 4 4 4 4 4 5 B T T v 4 4 3 lXlXlXlXlXlXlXlXlXlX",
"# O   lXlXlXlX3 4 k 0.P.P.oXkXkX[.B : # # * < 4 4 4 N Z.P.P.P.P.P.4.r 4 1 * # # ; 4 4 4 4 4 r 0.P.P.:.4 4 3 lXlXlXlXlXlXlXlXlXlX",
"      lXlXlXlX3 4 B ~.kXkXkXkXkX[.B *     + , 4 4 4 T oXkXkXkXkXkXP.s 4 < @     % 1 1 3 3 4 s ~.kXkXF.4 4 3 lXlXlXlXlXlXlXlXlXlX",
"      lXlXlXlX3 4 B ~.kXkXkXkXkX[.B *     + , 4 4 4 T oXkXkXkXkXkXP.s 4 1 - #   + & & - 1 4 s ~.kXkXF.4 4 3 lXlXlXlXlXlXlXlXlXlX",
"      lXlXlXlX3 4 B ~.kXkXkXkXkX[.B *     + , 4 4 4 T oXkXkXkXkXkXP.s 4 3 3 - .   . . # < 4 s ~.kXkXF.4 4 3 lXlXlXlXlXlXlXlXlXlX",
"      lXlXlXlX4 4 N N.P.P.P.P.P.v.r #     o & - - W B.wXkXkXkXkXkXP.s > - - %       + s @.1.8..XkXkXF.4 4 3 lXlXlXlXlXlXlXlXlXlX",
"lXlXlXlXlXlXlXlXlXlXU T T T T T N & X       o o o b.5XaXkXkXkXkXkXP.s * o o X     X * ^ /.oX,XiXkXkXF.4 4 3 3 4 4 4 4 4 1 lXlXlX",
"lXlXlXlXlXlXlXlXlXlX3 4 4 4 4 4 : X               G.kXkXkXkXkXkXkXP.s %           X ; +.9XkXkXkXkXkXF.4 4 4 4 4 4 4 4 4 4 lXlXlX",
"lXlXlXlXlXlXlXlXlXlX3 4 4 4 4 4 : X               G.kXkXkXkXkXkXkXP.s %           X ; +.9XkXkXkXkXkXF.4 4 4 4 4 4 4 4 4 4 lXlXlX",
"lXlXlXlXlXlXlXlXlXlX3 4 4 p m m g 8 2 2 2 2 2 =   G.kXkXkXkXkXkXkXP.s %           X ; O.9XkXdXeX6X6XA.4 4 4 4 4 4 3 4 4 4 lXlXlX",
"lXlXlXlXlXlXlXlXlXlX3 4 4 _ c.c.x.s.p.p.p.p.p.} lXlXlXlXlXlXlXlXlXlXlXlXlXlXlXlXlXlXlXlXlXlXlXn.,.,. .lXlXlXlXlXlX3 4 4 4 lXlXlX",
"lXlXlXlXlXlXlXlXlXlX3 4 4 a.1X1X1X1X1X1X1X1X1X2XlXlXlXlXlXlXlXlXlXlXlXlXlXlXlXlXlXlXlXlXlXlXlX        lXlXlXlXlXlX4 4 4 4 lXlXlX",
"lXlXlXlXlXlXlXlXlXlX3 4 4 a.1X1X1X1X1X1X1X1X1X2XlXlXlXlXlXlXlXlXlXlXlXlXlXlXlXlXlXlXlXlXlXlXlX        lXlXlXlXlXlX4 4 4 4 lXlXlX",
"lXlXlXlXlXlXlXlXlXlX3 4 4 a.1X1X1X1X1X1X1X1X1X2XlXlXlXlXlXlXlXlXlXlXlXlXlXlXlXlXlXlXlXlXlXlXlX        lXlXlXlXlXlX4 4 4 4 lXlXlX",
"lXlXlXlXlXlXlXlXlXlX3 4 4 &.<X<X%XT.I.Y.$X<X<XlXlXlXlXlXlXlXlXlXlXlXlXlXlXlXlXlXlXlXlXlXlXlXlX        lXlXlXlXlXlX4 4 4 4 lXlXlX",
"lXlXlXlXlXlXlXlXlXlX3 4 4 P lXlXlXG M F %.lXlXlXlXlXlXlXlXlXlXlXlXlXlXlXlXlXlXlXlXlXlXlXlXlXlX        lXlXlX4 3 3 4 4 4 4 lXlXlX",
"lXlXlXlXlXlXlXlXlXlX3 4 4 lXlXlXlX      lXlXlXlXlXlXlXlXlXlXlXlXlXlXlXlXlXlXlXlXlXlXlXlXlXlXlX        lXlXlX4 4 4 4 4 4 4 lXlXlX",
"lXlXlXlXlXlXlXlXlXlX3 4 4 lXlXlXlX      lXlXlXlXlXlXlXlXlXlXlXlXlXlXlXlXlXlXlXlXlXlXlXlXlXlXlX        lXlXlX4 4 4 4 4 4 4 lXlXlX",
"lXlXlXlXlXlXlXlXlXlX3 4 4 lXlXlXlX      lXlXlXlXlXlXlXlXlXlXlXlXlXlXlXlXlXlXlXlXlXlXlXlXlXlXlX        lXlXlX4 3 3 3 3 3 4 lXlXlX",
"lXlXlXlXlXlXlXlXlXlX3 4 4 lXlXlXlX      lXlXlXlXlXlXlXlXlXlXlXlXlXlXlXlXlXlXlXlXlXlXlXlXlXlXlX        lXlXlXlXlXlXlXlXlXlXlXlXlX",
"lXlXlXlXlXlXlXlXlXlX3 4 4 lXlXlXlX      lXlXlXlXlXlXlXlXlXlXlXlXlXlXlXlXlXlXlXlXlXlXlXlXlXlXlX        lXlXlXlXlXlXlXlXlXlXlXlXlX",
"lXlXlXlXlXlXlXlXlXlX3 4 4 lXlXlXlX      lXlXlXlXlXlXlXlXlXlXlXlXlXlXlXlXlXlXlXlXlXlXlXlXlXlXlX        lXlXlXlXlXlXlXlXlXlXlXlXlX",
"lXlXlXlXlXlXlXlXlXlX3 4 4 lXlXlXlX      lXlXlXlXlXlXlXlXlXlXlXlXlXlXlXlXlXlXlXlXlXlXlXlXlXlXlX        lXlXlXlXlXlXlXlXlXlXlXlXlX",
"lXlXlXlXlXlXlXlXlXlX3 4 4 lXlXlXlX      lXlXlXlXlXlXlXlXlXlXlXlXlXlXlXlXlXlXlXlXlXlXlXlXlXlXlX        lXlXlXlXlXlXlXlXlXlXlXlXlX"
};
