/* XPM */
static char *result[] = {
/* columns rows colors chars-per-pixel */
"68 64 123 2 ",
"   c #864B36",
".  c #8B4B35",
"X  c #874D39",
"o  c #8B4F3A",
"O  c #934E37",
"+  c #9C4E35",
"@  c #924F38",
"#  c #984F38",
"$  c #8B513D",
"%  c #9E5037",
"&  c #95513A",
"*  c #9D523B",
"=  c #A0533B",
"-  c #8C5643",
";  c #8D5845",
":  c #8D5C4B",
">  c #935642",
",  c #9E5740",
"<  c #935945",
"1  c #9E5943",
"2  c #915E4D",
"3  c #9D5E4A",
"4  c #A05A43",
"5  c #A15E49",
"6  c #8F604F",
"7  c #91604E",
"8  c #9D614E",
"9  c #8F6354",
"0  c #926353",
"q  c #9D6654",
"w  c #986857",
"e  c #916758",
"r  c #956B5B",
"t  c #9B6C5C",
"y  c #A2614C",
"u  c #A36653",
"i  c #A56956",
"p  c #A46D5B",
"a  c #A7705E",
"s  c #956E60",
"d  c #9B6E61",
"f  c #967265",
"g  c #9D7365",
"h  c #967569",
"j  c #9A766A",
"k  c #96796E",
"l  c #9C7A6E",
"z  c #977B72",
"x  c #9C7C72",
"c  c #A37364",
"v  c #A97666",
"b  c #A77768",
"n  c #A97768",
"m  c #A47A6C",
"M  c #AA7A6B",
"N  c #A47D71",
"B  c #AB7E71",
"V  c #9D8076",
"C  c #9D847B",
"Z  c #A38175",
"A  c #AD8476",
"S  c #A3857B",
"D  c #AD8679",
"F  c #A4897F",
"G  c #AE897D",
"H  c #B08A7E",
"J  c #9A8683",
"K  c #9D8A84",
"L  c #978D8E",
"P  c #9C8D8B",
"I  c #9F928D",
"U  c #998F91",
"Y  c #9C9292",
"T  c #9F9798",
"R  c #A18781",
"E  c #A48B82",
"W  c #AB8C83",
"Q  c #A28F89",
"!  c #AA8F88",
"~  c #B08D82",
"^  c #AD9086",
"/  c #A4928C",
"(  c #AC948C",
")  c #B19187",
"_  c #B2958C",
"`  c #B3988F",
"'  c #A49691",
"]  c #A99690",
"[  c #A59994",
"{  c #AC9A94",
"}  c #A49D9B",
"|  c #AC9E99",
" . c #B49C94",
".. c #B29E98",
"X. c #A6A09E",
"o. c #ADA19D",
"O. c #B4A29C",
"+. c #B8A59F",
"@. c #A59FA0",
"#. c #A6A4A4",
"$. c #ACA5A3",
"%. c #ADA8A7",
"&. c #A7AAAC",
"*. c #ADACAC",
"=. c #B3A5A1",
"-. c #B8A6A1",
";. c #B4A9A6",
":. c #B9ABA7",
">. c #B5ADAB",
",. c #BAADAA",
"<. c #B6B0AE",
"1. c #BAB1AE",
"2. c #ACAFB0",
"3. c #B4B3B3",
"4. c #BAB4B1",
"5. c #BCB8B7",
"6. c #B7BABB",
"7. c #BEBDBD",
"8. c #C0BEBE",
"9. c #BFC0C1",
"0. c #C1C4C5",
"q. c #C2C6C8",
"w. c #C3C8CA",
/* pixels */
"&.&.*.3.6.9.0.0.q.q.0.0.0.9.9.9.9.9.0.0.0.0.0.0.0.0.0.0.0.0.0.0.0.0.0.0.0.0.0.0.0.0.0.q.0.0.0.9.7.7.0.0.0.0.0.0.0.0.0.0.0.0.0.0.q.0.0.0.",
"#.&.&.2.3.5.9.9.9.9.9.7.7.7.7.9.9.9.9.9.9.9.9.9.9.9.8.8.9.9.8.8.8.9.8.9.9.9.9.9.8.8.8.8.8.8.7.8.7.0.7.7.9.9.9.7.9.9.9.9.9.8.9.9.8.5.8.8.",
"} X.X.$.%.<.<.1.1.4.1.5.5.8.8.7.7.5.4.1.1.1.1.1.1.1.1.4.1.1.1.1.4.1.1.1.1.1.1.4.8.,.,.8.4.4.5.8.9.7.5.5.4.4.1.1.1.4.4.1.4.4.1.1.4.8.,.8.",
"K K I / ' { | O.O. .O.+.,.4.7.5.4.;.O.o.o.{ o. .o. .o.o.{ o.o.o.o.O.O. .O.O. .O... .`  .O.-.,.5.7.5.4.;.O.| | |  .o.| | | |  .O... . ...",
"k k k x V V Z Z Z A H ) O.1.8.1.:.o.F S Z Z Z C Z Z C Z C S S Z Z S Z A A A A A A A A A H ) ` 8.5.4.;.| E S Z Z Z S Z S Z Z Z S D D D A ",
"9 9 9 9 e e r r q u p M ) +.1.1.O.F j r e e e r r r r r w e e r w w i i i i i i i i i i p M ~ +.4.1.O.E j r e e e r e e r r t w q u u p ",
"$ - $ - - $ > & & * 4 a D O.1.1.{ V e ; $ $ $ ; $ $ 6 $ $ ; $ ; < & * 8 = = 4 = 4 = = = 4 a H O.1.<.{ Z 0 ; $ - - - - - ; & > > , , , 4 ",
"$ $ $ & o o $ O O & = i A O.1.,.( V 6 $   X X X X $ X X $ X $ $ $ & & % * = = = + + + + = i A O.1.1.{ l 7 $       X X o $ o $ # + , + % ",
"O # O O O O O O + + * i D O.8.+.{ V 7 X     X X X X X X X @ @ O O & % % % % % % % % + + * i A O.1.1.{ l 7 X       X . o o O O # + + + + ",
"& & & & & & & # O + * i D O.1.,.] l 7 o     X $ X X X $ o $ $ & & * % * % = % % % % + + , i A O.1.1.{ l 0 X     X $ $ $ # # & & % % , + ",
"* * * * = * * * + % * i A O.1.,.] V 0 $   X X $ $ $ $ $ $ & & & * * * * * * * * % % + % , i A ..1.>.{ l 7 $   X $ $ $ & * * = = , + , + ",
"* * * = * % * % + + = i A O.,.;.] V 6 $   o X $ $ $ @ $ $ & # * * * * * * * * * % % + + * u A  .>.o./ l 9 $ X o $ $ & & & % % = + , + , ",
"= % % % % % = + + % * u m ` %.$./ h 6 o     X o X o o O O # # % % % % * = % % % % % + + = y m ! | [ E f : o . . o o # # * % % % + + , + ",
"% + % + % % + + + % * y m ( o.o.I h 6 X     X X $ o O O % % % % % % % * % % % % & % + % % 8 c F / / C s : $ . . O # # * & = + = + + + + ",
"* = = * = 1 * = % % 4 u m / X.X.K h 6 $ X o $ $ $ & & * = = = = * * * * * * * * = = % = * 8 g C P J z s 6 $ $ & * * * * * % % = , , , , ",
"u y u y y y y y y y u a S / X.[ K V e 6 6 6 6 0 0 8 q u u y y y y y y 8 y y y y y y y y u a m R P L J k r 7 7 8 8 y y y y 8 y y y y y y ",
"M B M M A M M B A v A A ! X.#.X.Y C V f f V h V V Z v A v Z A a b b b c c b m m M M M M B D W { } [ ' R Z x m m M M M b c c c b n n M M ",
"`  .` ` ` ` `  .` ` _ O.o.o.#.#.} T L F C I / / ` ` ` ` ` ) ` ` ( ^ W F E ^ ^ _ `  .`  . ...O.%.>.*.%.| { { { `  . ._ ^ ! R ! ^ ! _ _ _ ",
",.,.1.,.,.,.,.,.,.,.,.>.;.*.%.#.#.} } [ o.o.;.:.+.,.:.+.,.:.,.,.:.O.o.o.} o.O.>.,.,.,.,.,.,.4.4.3.4.4.3.,.,.:.-.>.:.;.$.| | } o.-.;.,.,.",
"1.1.1.1.4.1.1.4.1.1.1.>.%.o.X.X.} } } X.o.%.>.1.8.1.,.8.8.1.5.5.5.<.$.X.X.o.$.>.1.4.4.1.1.3.1.1.4.4.4.4.4.4.,.8.1.,.:.$.o.X.o.*.<.6.8.8.",
"o.O.o.O.O.o.O.o.O.O.o.o.[ / Q I I F / / { { O.O.+.+.O.+.O.8.1.8.5.<.$.[ I ' ' o.O.o.O.o.O.o.O.o...o...O.O.O.+.O.O.O...{ / / | =.4.8.9.q.",
"F S F F F F S F F F C C V V k k V j Z Z Z A D D D H A H H +.,.8.6.%.' C V z V C S F S F F S S S S S S D H H D H G D A N N Z E ..>.8.0.w.",
"r r r r r r r r r r r r e 0 e e 7 q q i i i i i p i i a A ) +.8.1.o.E h e 9 0 r r r r r r r e r r t t t i p p p p i i u u i M ! -.5.0.q.",
"- - - ; - - - - $ 6 $ ; ; $ $ ; & & * 1 1 4 4 4 4 = = 4 p H ` 8.<.{ V e ; $ $ - - ; - - - ; - - ; > > 1 , 1 4 4 4 4 , , * 5 p A  .1.5.0.",
"X $ X X X $ X X $ o o o o o $ @ & & * * = % % % % + + % i A +.:.,.] l 7 $     X X X $ o o O $ o o @ @ # + * = + * % + + + = y M ( ;.3.6.",
"X X X X X X X X o o O O @ @ O # & & % % % % % % + + + * u A  .8.<.{ l 7 $       X . $ o o O O O @ O O # + + + + + + + + + = y m ! ..%.*.",
"X X $ X X X $ o $ & # # & * & * * * * % * % * % + + + = i A +.1.,.] V 7 $ X   X $ $ & & # # & & & & & * * * % = * * + + * * u c R Y @.@.",
"$ $ $ $ $ $ $ $ & & * * * * * * * * * * = * * = % % * * i A O.,.,.{ V 7 $ X X $ $ $ & & * * * * * = * * * * * * = * * = * * 8 d N J U T ",
"$ $ $ $ $ X $ & & * * % % * % * * * * * = % % * % % % * p D O.,.,.{ V 6 $     X $ & & & % = = = = * * = = * * = + = = % * = 3 d x J L U ",
"X X X X $ $ $ O # * * % % % % = % % * % % % % = + + % * i D +.,.,.] l 6 $     X $ o O # % + + = = + + + + * + * + + + + + * 3 t k J J U ",
"X X X $ o O # # # * % % % % % % % % % * = % = % + + + * i A O.1.<.] l 6 X X     $ $ # % % = = + + = + = + + + + + = + + + + 3 w k J L U ",
"$ $ $ $ & * * * * * * * * * * * * * * * * * * * % % % = i D O.,.1.] V 9 - X X $ $ $ & & * * = = * * * = * = * 4 * * * = + 4 3 d x J L U ",
"6 6 6 8 8 8 y 4 y 5 5 4 y 5 y 5 y 8 8 8 3 3 8 8 8 y 8 y v H +.1.1.o.F s 6 6 $ 6 6 6 < 8 1 8 8 8 1 8 8 8 y y y y y y y y y y i b R P ' } ",
"g V g V Z a A A A v A A A a Z Z a a a a c c c a a a a A H  .,.5.4.;.( Z V f f f f f f g g a a d a a a c M b A v M M M M M A D G ' } @.#.",
"( ( { ( ) _ ` ` H ` ` ` H _ _ H ^ ! F S S F F F F ^ _ ` +.,.4.9.7.4.;.o.] Q I C C K C S S S S S S S G ( _ ` ` ` ` ` _ _ _ _ o.O.=.>.2.>.",
">.:.>.:.:.,.,.,.,.:.,.,.,.:.:.:.O.o.X.[ ' ' I X.o.O.+.,.1.4.7.9.7.5.4.1.;.O.o.X.[ [ [ ' [ [ [ [ ' X.o.O.;.:.,.,.,.:.,.:.,.,.,.1.5.3.5.6.",
"4.4.4.4.4.4.1.1.8.8.:.8.5.5.7.4.3.*.X.o.T } } } X.o.>.1.4.4.3.3.4.5.4.4.>.;.o.o.X.} [ X.X.X.X.X.$.%.*.<.<.1.4.4.4.1.4.<.1.4.1.4.4.4.3.4.",
"o.o.O.O.O.O.O.+. .+.+. .1.7.7.7.<.X.[ I K L I I ' X.o.o.O.O.O.O.O.O.O.O.O.O.o.{ / E / / ] [ X.%.*.2.*.;.$.O.O.O.O.$.O.O.O.o.O.o.o.O.O.O.",
"F F F F G G H H H H H _ +.1.7.5.%.[ F V V k V V V V C F F F F F C F G G H D Z Z Z Z m Z Z F { +.<.2.$.{ / F F S F F F F F F E F F F F S ",
"s r s t p p a i i i a A _ :.4.4.o.F h e 9 9 9 e e r r r r r r r w t p p p p i u u q q q i b H O.<.<.o.E l t r r r s s r r s r s t r r r ",
"; ; ; < 1 1 1 1 % , 4 a H O.1.,.o.V w ; $ $ - - ; ; $ ; ; ; ; ; 7 & 8 1 * y = = 8 * * * 4 a H O.1.>.{ Z e ; - $ - ; - ; ; ; ; ; ; ; ; ; ",
"o @ o @ & & % % + + , i A O.1.,.( V 6 $     X X o o $ $ o o o o O O & & % % * * % % % * = i A +.1.<.{ x 7 $     X X o o o o O o o o o @ ",
"@ O O O O % % + + + * i A  .8.,.{ V ; o     X X o o @ @ O @ @ @ O & & + % % % % + + + + = i A +.1.1.{ l 6 $     X X X o o o O O @ @ @ @ ",
"& & & % % % % % + % = i A  .:.:.{ V 7 X   X X $ $ @ $ O # # # O % & % % * % * % = + + + = u A  .1.,.{ l 6 $   X X $ o o # # & # # # # @ ",
"* * * * * * * % + + = i A O.1.>.( V 0 $ X   $ $ $ & & * * * * % * * * * * * * * = % + + = i A +.1.>.` l 7 $ X X $ $ $ & & * * * * * * * ",
"* % * % * * * % + + = i A O.1.>.{ V 0 $ X X $ $ & # * * * * * % * % * % * * * % = % + + = i A +.1.<.] V 6 $ X X $ $ & # * * * * * = * * ",
"% % % % % % % % + + = i A O.1.,.{ V 6 $   . . @ O O % % % % % % % % % % % % % % % + + + * i A O.1.,.{ l 7 $   . . O O O * % % % % % = + ",
"% % % + % + % + + + = u A O.,.:.( V 6 o . . O & O % + % % = % % % % % + % % % % + + + + * i A O.1.<.{ l 6 o . . O O % O % % % % % + + + ",
"* * * * % = = % % % = i A  .4.1.( V 7 $ @ O & % * % * * = % * = = = = = * * * % % + + % 4 p D O.1.,.] V 7 $ @ . % * * * = % * = = = = = ",
"8 y y y 5 = 5 5 5 5 5 A H +.4.1.o.V r 6 & 7 8 8 y y y y y y y y y 5 y 5 y y y y y y y 4 y a H O.1.<.o.Z r 7 7 8 8 8 y y y y y y 5 5 5 5 ",
"a Z A a A A Z Z A A A H  .,.5.4.O.I V f f g b b v M M v v v v v a A Z a A a A a v v a A A A  .;.<.<.o./ V V j c a Z a v a A v A M M n n ",
"_ _ _ _ ` H H _ H H H  .:.5.7.5.;.X.I C F E _ _ ` _ _ ` _ _ _ _ H H _ _ _ _ _ _ _ ` _ _ _  .o.;.*.<.%.o.] ] _ ( _ ` ` _ _ _ _ H _ ) ) ) ",
":.:.,.:.:.:.:.,.:.:.:.1.5.5.8.5.3.%.X.[ X.O.+.:.:.:.:.:.:.:.:.+.,.:.:.:.,.,.:.:.:.,.,.:.>.,.*.<.*.*.*.;.;.,.,.:.:.:.:.:.:.,.:.:.:.:.:.:.",
":.8.4.4.4.4.4.4.1.4.4.4.4.5.5.4.<.o.X.X.X.%.>.1.4.1.4.4.4.5.4.1.7.5.4.4.4.4.4.1.1.1.1.1.1.<.%.o.#.o.%.%.<.<.4.4.4.1.4.4.1.1.4.4.4.5.5.5.",
"O.=.=.=.=.=.=.=.=.=.=.=.+.O.O.O.O.( [ ( { o.o.:.+.+.+.+.:.4.7.8.7.5.1.:.;.o.O.%.o.+.+.+.o.O.X.I ' I I X.O.;.+.;.+.+.:.+.+.+.:.:.4.4.3.3.",
"G F F F F F F F F F F F G G H A A Z Z Z Z A G H H H H ) ` +.8.8.5.1.O./ F F F F ! F Q F F F V V V V V C C E E H H H H H H H ) { @.%.*.&.",
"t s s s s s r s f s s t t p p a i i p p i p a a a i a a A _ -.1.4.o.F V s r r t s s s d s s r e e e e r r d d a c a p a p a Z A Q ' } @.",
"; ; ; ; ; ; ; ; ; ; ; < < 5 1 1 4 4 1 4 4 1 1 1 4 4 4 5 p H O.8.1.o.V w 6 $ $ ; $ 6 6 $ 6 ; ; ; - ; ; ; : ; < < 1 8 4 1 4 4 q c C K Y Y ",
"$ $ $ X $ $ $ $ $ $ o $ $ % * * = % * * * % % % + + + = i A  .1.>.{ V 6 $   X $ X o @ $ . o o $ $ o $ $ @ o $ # & % % + % * 8 w V J L U ",
"X X . o o O O O O O O O % O % % % % % % % % % % + + + = i A O.,.:.{ V ; $       X o o $ O O O O @ @ @ @ @ O O # + + + + + % 8 t k C L U ",
"X X X $ O O & & & & % % % * % % = % % = % * % % + + + = i A O.1.>.{ V 6 X     X $ $ $ & & & & * O & & & & * # * % % = % % * 8 t k C L U ",
"$ $ $ $ > & * * , * & * & * * * * * * * = * * = + + % = i D O.1.:.( V 0 $ X X X $ & & & * * * * * * * * * * * * * * % % % * 8 d V L L U ",
"$ $ $ $ & * * * * * * * * % * * , = = * * * * * = % % , i D O.1.>.{ V 6 $ X X $ $ $ & & * * * * = * * * * * = * * * * % % = 8 t V J L I ",
"$ $ o > & * * = = = % , * , , * * * * * = * % = % % % , i A O.1.1.{ V 9 $ X X $ $ $ & * * * = = = * = * = * = = * * = % * * 8 d V C L I "
};
